%
M48
M72
T01C0.0320
T02C0.0400
%
T01
X650Y5500
X650Y6500
X650Y7500
X650Y8500
X650Y9500
X650Y10500
X650Y11500
X650Y12500
X650Y13500
X650Y14500
X1650Y14500
X1650Y13500
X1650Y12500
X1650Y11500
X1650Y10500
X1650Y9500
X1650Y8500
X1650Y7500
X1650Y6500
X1650Y5500
X3650Y5500
X3650Y6500
X3650Y7500
X3650Y8500
X3650Y9500
X3650Y10500
X3650Y11500
X3650Y12500
X3650Y13500
X3650Y14500
X4650Y14500
X4650Y13500
X4650Y12500
X4650Y11500
X4650Y10500
X4650Y9500
X4650Y8500
X4650Y7500
X4650Y6500
X4650Y5500
T02
X3150Y4500
X2150Y4500
M30
