G75*
%MOIN*%
%OFA0B0*%
%FSLAX24Y24*%
%IPPOS*%
%LPD*%
%AMOC8*
5,1,8,0,0,1.08239X$1,22.5*
%
%ADD10C,0.0100*%
%ADD11C,0.0520*%
%ADD12OC8,0.0600*%
%ADD13C,0.0240*%
%ADD14C,0.0120*%
D10*
X000150Y002750D02*
X000150Y015120D01*
X005142Y015120D01*
X005142Y002750D01*
X000150Y002750D01*
D11*
X000650Y005500D03*
X000650Y006500D03*
X000650Y007500D03*
X000650Y008500D03*
X000650Y009500D03*
X000650Y010500D03*
X000650Y011500D03*
X000650Y012500D03*
X000650Y013500D03*
X000650Y014500D03*
X001650Y014500D03*
X001650Y013500D03*
X001650Y012500D03*
X001650Y011500D03*
X001650Y010500D03*
X001650Y009500D03*
X001650Y008500D03*
X001650Y007500D03*
X001650Y006500D03*
X001650Y005500D03*
X003650Y005500D03*
X003650Y006500D03*
X003650Y007500D03*
X003650Y008500D03*
X003650Y009500D03*
X003650Y010500D03*
X003650Y011500D03*
X003650Y012500D03*
X003650Y013500D03*
X003650Y014500D03*
X004650Y014500D03*
X004650Y013500D03*
X004650Y012500D03*
X004650Y011500D03*
X004650Y010500D03*
X004650Y009500D03*
X004650Y008500D03*
X004650Y007500D03*
X004650Y006500D03*
X004650Y005500D03*
D12*
X003150Y004500D03*
X002150Y004500D03*
D13*
X001650Y005500D02*
X000650Y005500D01*
X003650Y014500D02*
X004650Y014500D01*
D14*
X004650Y013500D02*
X003650Y013500D01*
X003650Y012500D02*
X004650Y012500D01*
X004650Y011500D02*
X003650Y011500D01*
X003650Y010500D02*
X004650Y010500D01*
X004650Y009500D02*
X003650Y009500D01*
X003650Y008500D02*
X004650Y008500D01*
X004650Y007500D02*
X003650Y007500D01*
X003650Y006500D02*
X004650Y006500D01*
X004650Y005500D02*
X003650Y005500D01*
X001650Y006500D02*
X000650Y006500D01*
X000650Y007500D02*
X001650Y007500D01*
X001650Y008500D02*
X000650Y008500D01*
X000650Y009500D02*
X001650Y009500D01*
X001650Y010500D02*
X000650Y010500D01*
X000650Y011500D02*
X001650Y011500D01*
X001650Y012500D02*
X000650Y012500D01*
X000650Y013500D02*
X001650Y013500D01*
X001650Y014500D02*
X000650Y014500D01*
M02*
