%
M48
M72
T01C0.0320
T02C0.0400
%
T01
X900Y5750
X900Y6750
X900Y7750
X900Y8750
X900Y9750
X900Y10750
X900Y11750
X900Y12750
X900Y13750
X900Y14750
X1900Y14750
X1900Y13750
X1900Y12750
X1900Y11750
X1900Y10750
X1900Y9750
X1900Y8750
X1900Y7750
X1900Y6750
X1900Y5750
X3900Y5750
X3900Y6750
X3900Y7750
X3900Y8750
X3900Y9750
X3900Y10750
X3900Y11750
X3900Y12750
X3900Y13750
X3900Y14750
X4900Y14750
X4900Y13750
X4900Y12750
X4900Y11750
X4900Y10750
X4900Y9750
X4900Y8750
X4900Y7750
X4900Y6750
X4900Y5750
T02
X900Y4500
X1900Y4500
X2900Y4500
X3900Y4500
X4900Y4500
M30
