G75*
%MOIN*%
%OFA0B0*%
%FSLAX24Y24*%
%IPPOS*%
%LPD*%
%AMOC8*
5,1,8,0,0,1.08239X$1,22.5*
%
%ADD10C,0.0050*%
D10*
X000650Y003025D02*
X000830Y003025D01*
X000830Y003205D02*
X000740Y003295D01*
X000740Y003025D01*
X000945Y003070D02*
X000990Y003025D01*
X001125Y003025D01*
X001125Y003295D01*
X000990Y003295D01*
X000945Y003250D01*
X000945Y003205D01*
X000990Y003160D01*
X001125Y003160D01*
X000990Y003160D02*
X000945Y003115D01*
X000945Y003070D01*
X001650Y003025D02*
X001830Y003025D01*
X001650Y003205D01*
X001650Y003250D01*
X001695Y003295D01*
X001785Y003295D01*
X001830Y003250D01*
X001945Y003250D02*
X001945Y003205D01*
X001990Y003160D01*
X002125Y003160D01*
X002125Y003025D02*
X001990Y003025D01*
X001945Y003070D01*
X001945Y003115D01*
X001990Y003160D01*
X001945Y003250D02*
X001990Y003295D01*
X002125Y003295D01*
X002125Y003025D01*
X002650Y003070D02*
X002695Y003025D01*
X002785Y003025D01*
X002830Y003070D01*
X002740Y003160D02*
X002695Y003160D01*
X002650Y003115D01*
X002650Y003070D01*
X002695Y003160D02*
X002650Y003205D01*
X002650Y003250D01*
X002695Y003295D01*
X002785Y003295D01*
X002830Y003250D01*
X002945Y003250D02*
X002945Y003205D01*
X002990Y003160D01*
X003125Y003160D01*
X003125Y003025D02*
X002990Y003025D01*
X002945Y003070D01*
X002945Y003115D01*
X002990Y003160D01*
X002945Y003250D02*
X002990Y003295D01*
X003125Y003295D01*
X003125Y003025D01*
X003650Y003160D02*
X003830Y003160D01*
X003695Y003295D01*
X003695Y003025D01*
X003945Y003070D02*
X003990Y003025D01*
X004125Y003025D01*
X004125Y003295D01*
X003990Y003295D01*
X003945Y003250D01*
X003945Y003205D01*
X003990Y003160D01*
X004125Y003160D01*
X003990Y003160D02*
X003945Y003115D01*
X003945Y003070D01*
X004686Y003395D02*
X005275Y003395D01*
X004686Y003395D01*
X004775Y003295D02*
X004955Y003295D01*
X004955Y003025D01*
X004775Y003025D01*
X004955Y003025D01*
X004955Y003295D01*
X004775Y003295D01*
X004865Y003160D02*
X004955Y003160D01*
X004865Y003160D01*
X005070Y003025D02*
X005070Y003295D01*
X005070Y003025D01*
X005160Y003115D01*
X005250Y003025D01*
X005250Y003295D01*
X005250Y003025D01*
X005160Y003115D01*
X005070Y003025D01*
M02*
