%
M48
M72
T01C0.0236
T02C0.0315
T03C0.0320
T04C0.0400
%
T01
X27100Y10600
X27350Y15600
X36600Y16350
T02
X33600Y15600
X33100Y15100
T03
X850Y1100
X850Y2100
X1850Y2100
X2850Y2100
X3850Y2100
X3850Y1100
X2850Y1100
X1850Y1100
X4850Y1100
X5850Y1100
X6850Y1100
X7850Y1100
X7850Y2100
X6850Y2100
X5850Y2100
X4850Y2100
X4850Y4100
X5850Y4100
X6850Y4100
X7850Y4100
X7850Y5100
X6850Y5100
X5850Y5100
X4850Y5100
X3850Y5100
X2850Y5100
X1850Y5100
X1850Y4100
X2850Y4100
X3850Y4100
X850Y4100
X850Y5100
X8850Y5100
X9850Y5100
X9850Y4100
X8850Y4100
X8850Y2100
X9850Y2100
X9850Y1100
X8850Y1100
X12850Y2600
X13850Y2600
X14850Y2600
X15850Y2600
X16850Y2600
X18850Y2600
X19850Y2600
X22600Y2100
X23600Y2100
X24600Y2100
X24600Y1100
X23600Y1100
X22600Y1100
X25600Y1100
X26600Y1100
X27600Y1100
X27600Y2100
X26600Y2100
X25600Y2100
X28600Y2100
X29600Y2100
X30600Y2100
X31600Y2100
X31600Y1100
X30600Y1100
X29600Y1100
X28600Y1100
X28600Y4100
X29600Y4100
X30600Y4100
X31600Y4100
X31600Y5100
X30600Y5100
X29600Y5100
X28600Y5100
X27600Y5100
X26600Y5100
X25600Y5100
X25600Y4100
X26600Y4100
X27600Y4100
X24600Y4100
X23600Y4100
X22600Y4100
X22600Y5100
X23600Y5100
X24600Y5100
X19850Y4600
X18850Y4600
X16850Y4600
X15850Y4600
X14850Y4600
X13850Y4600
X12850Y4600
X21600Y8850
X22600Y8850
X23600Y8850
X24600Y8850
X25600Y8850
X26600Y8850
X27600Y8850
X28600Y8850
X29600Y8850
X30600Y8850
X31600Y8850
X32600Y8850
X33600Y8850
X34600Y8850
X35600Y8850
X36600Y8850
X37600Y8850
X38600Y8850
X39600Y8850
X40600Y8850
X41600Y8850
X41600Y7850
X40600Y7850
X39600Y7850
X38600Y7850
X37600Y7850
X36600Y7850
X35600Y7850
X34600Y7850
X33600Y7850
X32600Y7850
X31600Y7850
X32600Y10850
X33600Y10850
X34600Y10850
X35600Y10850
X35600Y11850
X34600Y11850
X33600Y11850
X32600Y11850
X34100Y12850
X35100Y12850
X36100Y12850
X37100Y12850
X38100Y12850
X39100Y12850
X40100Y12850
X41100Y12850
X40600Y11850
X39600Y11850
X39600Y10850
X40600Y10850
X41600Y10850
X41600Y11850
X38600Y11850
X37600Y11850
X36600Y11850
X36600Y10850
X37600Y10850
X38600Y10850
X38100Y14850
X37100Y14850
X36100Y14850
X35100Y14850
X34100Y14850
X33600Y17100
X32600Y17100
X34600Y17100
X35600Y17100
X36600Y17100
X37600Y17100
X38600Y17100
X39600Y17100
X40600Y17100
X41600Y17100
X42600Y17100
X42600Y18100
X41600Y20100
X40600Y20100
X39600Y20100
X38600Y20100
X37600Y20100
X36600Y20100
X35600Y20100
X34600Y20100
X33600Y20100
X32600Y20100
X32600Y21350
X33600Y21350
X34600Y21350
X35600Y21350
X36600Y21350
X37600Y21350
X38600Y21350
X39600Y21350
X40600Y21350
X41600Y21350
X42600Y21350
X42600Y22350
X41600Y24350
X40600Y24350
X39600Y24350
X38600Y24350
X37600Y24350
X36600Y24350
X35600Y24350
X34600Y24350
X33600Y24350
X32600Y24350
X30100Y22350
X30100Y21350
X29100Y21350
X28100Y21350
X27100Y21350
X26100Y21350
X25100Y21350
X24100Y21350
X23100Y21350
X23100Y24350
X24100Y24350
X25100Y24350
X26100Y24350
X27100Y24350
X28100Y24350
X29100Y24350
X19850Y18100
X18850Y18100
X17850Y18100
X16850Y18100
X15850Y18100
X14850Y18100
X13850Y18100
X12850Y18100
X11850Y18100
X10850Y18100
X9850Y18100
X8850Y18100
X7850Y18100
X6850Y18100
X5850Y18100
X4850Y18100
X3850Y18100
X2850Y18100
X2850Y16350
X3850Y16350
X4850Y16350
X5850Y16350
X6850Y16350
X7850Y16350
X8850Y16350
X9850Y16350
X10850Y16350
X11850Y16350
X12850Y16350
X13850Y16350
X14850Y16350
X15850Y16350
X16850Y16350
X17850Y16350
X21600Y11850
X22600Y11850
X23600Y11850
X24600Y11850
X25600Y11850
X26600Y11850
X27600Y11850
X28600Y11850
X29600Y11850
X30600Y11850
X39100Y14850
X40100Y14850
X41100Y14850
X19850Y10350
X18850Y10350
X17850Y10350
X16850Y10350
X15850Y10350
X14850Y10350
X13850Y10350
X12850Y10350
X11850Y10350
X10850Y10350
X9850Y10350
X8850Y10350
X7850Y10350
X6850Y10350
X5850Y10350
X4850Y10350
X3850Y10350
X2850Y10350
X2850Y24100
X3850Y24100
X4850Y24100
X5850Y24100
X6850Y24100
X7850Y24100
X8850Y24100
X9850Y24100
X10850Y24100
X11850Y24100
X12850Y24100
X13850Y24100
X14850Y24100
X15850Y24100
X16850Y24100
X17850Y24100
T04
X22600Y20350
X23600Y20350
X24600Y20350
X25600Y20350
X26600Y20350
X26600Y19350
X25600Y19350
X24600Y19350
X23600Y19350
X22600Y19350
X31600Y6100
X32600Y6100
X33600Y6100
X19850Y1600
X18850Y1600
X16850Y1600
X15850Y1600
X14850Y1600
X13850Y1600
X12850Y1600
M30
