G75*
%MOIN*%
%OFA0B0*%
%FSLAX24Y24*%
%IPPOS*%
%LPD*%
%AMOC8*
5,1,8,0,0,1.08239X$1,22.5*
%
%ADD10C,0.0060*%
%ADD11C,0.0160*%
%ADD12C,0.0080*%
%ADD13C,0.0100*%
D10*
X000350Y001450D02*
X000350Y003750D01*
X010350Y003750D01*
X010350Y003000D01*
X010350Y003200D02*
X010350Y002450D01*
X000350Y002450D01*
X000350Y004750D01*
X010350Y004750D01*
X010350Y004000D01*
X010311Y003998D01*
X010272Y003992D01*
X010234Y003983D01*
X010197Y003970D01*
X010161Y003953D01*
X010128Y003933D01*
X010096Y003909D01*
X010067Y003883D01*
X010041Y003854D01*
X010017Y003822D01*
X009997Y003789D01*
X009980Y003753D01*
X009967Y003716D01*
X009958Y003678D01*
X009952Y003639D01*
X009950Y003600D01*
X009952Y003561D01*
X009958Y003522D01*
X009967Y003484D01*
X009980Y003447D01*
X009997Y003411D01*
X010017Y003378D01*
X010041Y003346D01*
X010067Y003317D01*
X010096Y003291D01*
X010128Y003267D01*
X010161Y003247D01*
X010197Y003230D01*
X010234Y003217D01*
X010272Y003208D01*
X010311Y003202D01*
X010350Y003200D01*
X010350Y003000D02*
X010311Y002998D01*
X010272Y002992D01*
X010234Y002983D01*
X010197Y002970D01*
X010161Y002953D01*
X010128Y002933D01*
X010096Y002909D01*
X010067Y002883D01*
X010041Y002854D01*
X010017Y002822D01*
X009997Y002789D01*
X009980Y002753D01*
X009967Y002716D01*
X009958Y002678D01*
X009952Y002639D01*
X009950Y002600D01*
X009952Y002561D01*
X009958Y002522D01*
X009967Y002484D01*
X009980Y002447D01*
X009997Y002411D01*
X010017Y002378D01*
X010041Y002346D01*
X010067Y002317D01*
X010096Y002291D01*
X010128Y002267D01*
X010161Y002247D01*
X010197Y002230D01*
X010234Y002217D01*
X010272Y002208D01*
X010311Y002202D01*
X010350Y002200D01*
X010350Y001450D01*
X000350Y001450D01*
X011230Y001505D02*
X011230Y001618D01*
X011230Y001562D02*
X011570Y001562D01*
X011570Y001618D02*
X011570Y001505D01*
X011513Y001751D02*
X011570Y001807D01*
X011570Y001921D01*
X011513Y001977D01*
X011400Y001977D01*
X011343Y001921D01*
X011343Y001864D01*
X011400Y001751D01*
X011230Y001751D01*
X011230Y001977D01*
X011286Y002119D02*
X011230Y002176D01*
X011230Y002289D01*
X011286Y002346D01*
X011513Y002119D01*
X011570Y002176D01*
X011570Y002289D01*
X011513Y002346D01*
X011286Y002346D01*
X011286Y002119D02*
X011513Y002119D01*
X012350Y001850D02*
X012600Y002100D01*
X013100Y002100D01*
X013350Y001850D01*
X013350Y001350D01*
X013100Y001100D01*
X012600Y001100D01*
X012350Y001350D01*
X012350Y001850D01*
X013350Y001850D02*
X013350Y001350D01*
X013600Y001100D01*
X014100Y001100D01*
X014350Y001350D01*
X014600Y001100D01*
X015100Y001100D01*
X015350Y001350D01*
X015350Y001850D01*
X015100Y002100D01*
X014600Y002100D01*
X014350Y001850D01*
X014350Y001350D01*
X014350Y001850D02*
X014100Y002100D01*
X013600Y002100D01*
X013350Y001850D01*
X015350Y001850D02*
X015600Y002100D01*
X016100Y002100D01*
X016350Y001850D01*
X016600Y002100D01*
X017100Y002100D01*
X017350Y001850D01*
X017350Y001350D01*
X017100Y001100D01*
X016600Y001100D01*
X016350Y001350D01*
X016100Y001100D01*
X015600Y001100D01*
X015350Y001350D01*
X016350Y001350D02*
X016350Y001850D01*
X018350Y001850D02*
X018350Y001350D01*
X018600Y001100D01*
X019100Y001100D01*
X019350Y001350D01*
X019350Y001850D01*
X019100Y002100D01*
X018600Y002100D01*
X018350Y001850D01*
X019350Y001850D02*
X019600Y002100D01*
X020100Y002100D01*
X020350Y001850D01*
X020350Y001350D01*
X020100Y001100D01*
X019600Y001100D01*
X019350Y001350D01*
X019200Y003000D02*
X019200Y003100D01*
X019150Y003150D01*
X019150Y004050D01*
X019200Y004100D01*
X019200Y004200D01*
X019198Y004217D01*
X019194Y004234D01*
X019187Y004250D01*
X019177Y004264D01*
X019164Y004277D01*
X019150Y004287D01*
X019134Y004294D01*
X019117Y004298D01*
X019100Y004300D01*
X019500Y004200D02*
X019500Y004100D01*
X019550Y004050D01*
X019550Y003150D01*
X019500Y003100D01*
X019500Y003000D01*
X019502Y002983D01*
X019506Y002966D01*
X019513Y002950D01*
X019523Y002936D01*
X019536Y002923D01*
X019550Y002913D01*
X019566Y002906D01*
X019583Y002902D01*
X019600Y002900D01*
X019200Y003000D02*
X019198Y002983D01*
X019194Y002966D01*
X019187Y002950D01*
X019177Y002936D01*
X019164Y002923D01*
X019150Y002913D01*
X019134Y002906D01*
X019117Y002902D01*
X019100Y002900D01*
X018600Y002900D02*
X018583Y002902D01*
X018566Y002906D01*
X018550Y002913D01*
X018536Y002923D01*
X018523Y002936D01*
X018513Y002950D01*
X018506Y002966D01*
X018502Y002983D01*
X018500Y003000D01*
X018500Y003100D01*
X018550Y003150D01*
X018550Y004050D01*
X018500Y004100D01*
X018500Y004200D01*
X018502Y004217D01*
X018506Y004234D01*
X018513Y004250D01*
X018523Y004264D01*
X018536Y004277D01*
X018550Y004287D01*
X018566Y004294D01*
X018583Y004298D01*
X018600Y004300D01*
X019500Y004200D02*
X019502Y004217D01*
X019506Y004234D01*
X019513Y004250D01*
X019523Y004264D01*
X019536Y004277D01*
X019550Y004287D01*
X019566Y004294D01*
X019583Y004298D01*
X019600Y004300D01*
X020100Y004300D02*
X020117Y004298D01*
X020134Y004294D01*
X020150Y004287D01*
X020164Y004277D01*
X020177Y004264D01*
X020187Y004250D01*
X020194Y004234D01*
X020198Y004217D01*
X020200Y004200D01*
X020200Y004100D01*
X020150Y004050D01*
X020150Y003150D01*
X020200Y003100D01*
X020200Y003000D01*
X020198Y002983D01*
X020194Y002966D01*
X020187Y002950D01*
X020177Y002936D01*
X020164Y002923D01*
X020150Y002913D01*
X020134Y002906D01*
X020117Y002902D01*
X020100Y002900D01*
X022100Y002450D02*
X022100Y004750D01*
X032100Y004750D01*
X032100Y004000D01*
X032100Y003750D02*
X032100Y003000D01*
X032100Y003200D02*
X032100Y002450D01*
X022100Y002450D01*
X022100Y001450D02*
X022100Y003750D01*
X032100Y003750D01*
X032100Y004000D02*
X032061Y003998D01*
X032022Y003992D01*
X031984Y003983D01*
X031947Y003970D01*
X031911Y003953D01*
X031878Y003933D01*
X031846Y003909D01*
X031817Y003883D01*
X031791Y003854D01*
X031767Y003822D01*
X031747Y003789D01*
X031730Y003753D01*
X031717Y003716D01*
X031708Y003678D01*
X031702Y003639D01*
X031700Y003600D01*
X031702Y003561D01*
X031708Y003522D01*
X031717Y003484D01*
X031730Y003447D01*
X031747Y003411D01*
X031767Y003378D01*
X031791Y003346D01*
X031817Y003317D01*
X031846Y003291D01*
X031878Y003267D01*
X031911Y003247D01*
X031947Y003230D01*
X031984Y003217D01*
X032022Y003208D01*
X032061Y003202D01*
X032100Y003200D01*
X032100Y003000D02*
X032061Y002998D01*
X032022Y002992D01*
X031984Y002983D01*
X031947Y002970D01*
X031911Y002953D01*
X031878Y002933D01*
X031846Y002909D01*
X031817Y002883D01*
X031791Y002854D01*
X031767Y002822D01*
X031747Y002789D01*
X031730Y002753D01*
X031717Y002716D01*
X031708Y002678D01*
X031702Y002639D01*
X031700Y002600D01*
X031702Y002561D01*
X031708Y002522D01*
X031717Y002484D01*
X031730Y002447D01*
X031747Y002411D01*
X031767Y002378D01*
X031791Y002346D01*
X031817Y002317D01*
X031846Y002291D01*
X031878Y002267D01*
X031911Y002247D01*
X031947Y002230D01*
X031984Y002217D01*
X032022Y002208D01*
X032061Y002202D01*
X032100Y002200D01*
X032100Y001450D01*
X022100Y001450D01*
X017200Y003000D02*
X017200Y003100D01*
X017150Y003150D01*
X017150Y004050D01*
X017200Y004100D01*
X017200Y004200D01*
X017198Y004217D01*
X017194Y004234D01*
X017187Y004250D01*
X017177Y004264D01*
X017164Y004277D01*
X017150Y004287D01*
X017134Y004294D01*
X017117Y004298D01*
X017100Y004300D01*
X016600Y004300D02*
X016583Y004298D01*
X016566Y004294D01*
X016550Y004287D01*
X016536Y004277D01*
X016523Y004264D01*
X016513Y004250D01*
X016506Y004234D01*
X016502Y004217D01*
X016500Y004200D01*
X016500Y004100D01*
X016550Y004050D01*
X016550Y003150D01*
X016500Y003100D01*
X016500Y003000D01*
X016502Y002983D01*
X016506Y002966D01*
X016513Y002950D01*
X016523Y002936D01*
X016536Y002923D01*
X016550Y002913D01*
X016566Y002906D01*
X016583Y002902D01*
X016600Y002900D01*
X016200Y003000D02*
X016200Y003100D01*
X016150Y003150D01*
X016150Y004050D01*
X016200Y004100D01*
X016200Y004200D01*
X016198Y004217D01*
X016194Y004234D01*
X016187Y004250D01*
X016177Y004264D01*
X016164Y004277D01*
X016150Y004287D01*
X016134Y004294D01*
X016117Y004298D01*
X016100Y004300D01*
X015600Y004300D02*
X015583Y004298D01*
X015566Y004294D01*
X015550Y004287D01*
X015536Y004277D01*
X015523Y004264D01*
X015513Y004250D01*
X015506Y004234D01*
X015502Y004217D01*
X015500Y004200D01*
X015500Y004100D01*
X015550Y004050D01*
X015550Y003150D01*
X015500Y003100D01*
X015500Y003000D01*
X015502Y002983D01*
X015506Y002966D01*
X015513Y002950D01*
X015523Y002936D01*
X015536Y002923D01*
X015550Y002913D01*
X015566Y002906D01*
X015583Y002902D01*
X015600Y002900D01*
X015200Y003000D02*
X015200Y003100D01*
X015150Y003150D01*
X015150Y004050D01*
X015200Y004100D01*
X015200Y004200D01*
X015198Y004217D01*
X015194Y004234D01*
X015187Y004250D01*
X015177Y004264D01*
X015164Y004277D01*
X015150Y004287D01*
X015134Y004294D01*
X015117Y004298D01*
X015100Y004300D01*
X014600Y004300D02*
X014583Y004298D01*
X014566Y004294D01*
X014550Y004287D01*
X014536Y004277D01*
X014523Y004264D01*
X014513Y004250D01*
X014506Y004234D01*
X014502Y004217D01*
X014500Y004200D01*
X014500Y004100D01*
X014550Y004050D01*
X014550Y003150D01*
X014500Y003100D01*
X014500Y003000D01*
X014502Y002983D01*
X014506Y002966D01*
X014513Y002950D01*
X014523Y002936D01*
X014536Y002923D01*
X014550Y002913D01*
X014566Y002906D01*
X014583Y002902D01*
X014600Y002900D01*
X014200Y003000D02*
X014200Y003100D01*
X014150Y003150D01*
X014150Y004050D01*
X014200Y004100D01*
X014200Y004200D01*
X014198Y004217D01*
X014194Y004234D01*
X014187Y004250D01*
X014177Y004264D01*
X014164Y004277D01*
X014150Y004287D01*
X014134Y004294D01*
X014117Y004298D01*
X014100Y004300D01*
X013600Y004300D02*
X013583Y004298D01*
X013566Y004294D01*
X013550Y004287D01*
X013536Y004277D01*
X013523Y004264D01*
X013513Y004250D01*
X013506Y004234D01*
X013502Y004217D01*
X013500Y004200D01*
X013500Y004100D01*
X013550Y004050D01*
X013550Y003150D01*
X013500Y003100D01*
X013500Y003000D01*
X013502Y002983D01*
X013506Y002966D01*
X013513Y002950D01*
X013523Y002936D01*
X013536Y002923D01*
X013550Y002913D01*
X013566Y002906D01*
X013583Y002902D01*
X013600Y002900D01*
X013200Y003000D02*
X013200Y003100D01*
X013150Y003150D01*
X013150Y004050D01*
X013200Y004100D01*
X013200Y004200D01*
X013198Y004217D01*
X013194Y004234D01*
X013187Y004250D01*
X013177Y004264D01*
X013164Y004277D01*
X013150Y004287D01*
X013134Y004294D01*
X013117Y004298D01*
X013100Y004300D01*
X012600Y004300D02*
X012583Y004298D01*
X012566Y004294D01*
X012550Y004287D01*
X012536Y004277D01*
X012523Y004264D01*
X012513Y004250D01*
X012506Y004234D01*
X012502Y004217D01*
X012500Y004200D01*
X012500Y004100D01*
X012550Y004050D01*
X012550Y003150D01*
X012500Y003100D01*
X012500Y003000D01*
X012502Y002983D01*
X012506Y002966D01*
X012513Y002950D01*
X012523Y002936D01*
X012536Y002923D01*
X012550Y002913D01*
X012566Y002906D01*
X012583Y002902D01*
X012600Y002900D01*
X013100Y002900D02*
X013117Y002902D01*
X013134Y002906D01*
X013150Y002913D01*
X013164Y002923D01*
X013177Y002936D01*
X013187Y002950D01*
X013194Y002966D01*
X013198Y002983D01*
X013200Y003000D01*
X014100Y002900D02*
X014117Y002902D01*
X014134Y002906D01*
X014150Y002913D01*
X014164Y002923D01*
X014177Y002936D01*
X014187Y002950D01*
X014194Y002966D01*
X014198Y002983D01*
X014200Y003000D01*
X015100Y002900D02*
X015117Y002902D01*
X015134Y002906D01*
X015150Y002913D01*
X015164Y002923D01*
X015177Y002936D01*
X015187Y002950D01*
X015194Y002966D01*
X015198Y002983D01*
X015200Y003000D01*
X016100Y002900D02*
X016117Y002902D01*
X016134Y002906D01*
X016150Y002913D01*
X016164Y002923D01*
X016177Y002936D01*
X016187Y002950D01*
X016194Y002966D01*
X016198Y002983D01*
X016200Y003000D01*
X017100Y002900D02*
X017117Y002902D01*
X017134Y002906D01*
X017150Y002913D01*
X017164Y002923D01*
X017177Y002936D01*
X017187Y002950D01*
X017194Y002966D01*
X017198Y002983D01*
X017200Y003000D01*
X017070Y005130D02*
X017070Y005300D01*
X017013Y005357D01*
X016900Y005357D01*
X016843Y005300D01*
X016843Y005130D01*
X016730Y005130D02*
X017070Y005130D01*
X016610Y005100D02*
X016610Y006512D01*
X016730Y006287D02*
X017070Y006287D01*
X017070Y006174D02*
X017070Y006400D01*
X016843Y006174D02*
X016730Y006287D01*
X016843Y006037D02*
X016957Y005867D01*
X017070Y006037D01*
X017070Y005867D02*
X016730Y005867D01*
X016900Y005725D02*
X017070Y005725D01*
X016900Y005725D02*
X016843Y005668D01*
X016843Y005498D01*
X017070Y005498D01*
X016070Y005498D02*
X015843Y005498D01*
X015843Y005668D01*
X015900Y005725D01*
X016070Y005725D01*
X016070Y005867D02*
X015730Y005867D01*
X015843Y006037D02*
X015957Y005867D01*
X016070Y006037D01*
X016070Y006174D02*
X015843Y006400D01*
X015786Y006400D01*
X015730Y006344D01*
X015730Y006230D01*
X015786Y006174D01*
X016070Y006174D02*
X016070Y006400D01*
X015610Y006512D02*
X015610Y005100D01*
X015730Y005130D02*
X016070Y005130D01*
X016070Y005300D01*
X016013Y005357D01*
X015900Y005357D01*
X015843Y005300D01*
X015843Y005130D01*
X015070Y005130D02*
X015070Y005300D01*
X015013Y005357D01*
X014900Y005357D01*
X014843Y005300D01*
X014843Y005130D01*
X014730Y005130D02*
X015070Y005130D01*
X014610Y005100D02*
X014610Y006512D01*
X014730Y006344D02*
X014786Y006400D01*
X014843Y006400D01*
X014900Y006344D01*
X014957Y006400D01*
X015013Y006400D01*
X015070Y006344D01*
X015070Y006230D01*
X015013Y006174D01*
X015070Y006037D02*
X014957Y005867D01*
X014843Y006037D01*
X014786Y006174D02*
X014730Y006230D01*
X014730Y006344D01*
X014900Y006344D02*
X014900Y006287D01*
X015070Y005867D02*
X014730Y005867D01*
X014900Y005725D02*
X015070Y005725D01*
X014900Y005725D02*
X014843Y005668D01*
X014843Y005498D01*
X015070Y005498D01*
X014070Y005498D02*
X013843Y005498D01*
X013843Y005668D01*
X013900Y005725D01*
X014070Y005725D01*
X014070Y005867D02*
X013730Y005867D01*
X013843Y006037D02*
X013957Y005867D01*
X014070Y006037D01*
X013900Y006174D02*
X013900Y006400D01*
X014070Y006344D02*
X013730Y006344D01*
X013900Y006174D01*
X013610Y006512D02*
X013610Y005100D01*
X013730Y005130D02*
X014070Y005130D01*
X014070Y005300D01*
X014013Y005357D01*
X013900Y005357D01*
X013843Y005300D01*
X013843Y005130D01*
X012945Y005130D02*
X012718Y005130D01*
X012718Y005243D02*
X012718Y005300D01*
X012718Y005243D02*
X012832Y005130D01*
X012485Y005100D02*
X012485Y007249D01*
X012718Y007080D02*
X012775Y007137D01*
X012832Y007137D01*
X012832Y006910D01*
X012888Y006910D02*
X012775Y006910D01*
X012718Y006967D01*
X012718Y007080D01*
X012945Y007080D02*
X012945Y006967D01*
X012888Y006910D01*
X012888Y006769D02*
X012718Y006769D01*
X012888Y006769D02*
X012945Y006712D01*
X012888Y006655D01*
X012945Y006599D01*
X012888Y006542D01*
X012718Y006542D01*
X013002Y006400D02*
X013002Y006174D01*
X012945Y006032D02*
X012775Y006032D01*
X012718Y005975D01*
X012775Y005919D01*
X012945Y005919D01*
X012945Y005805D02*
X012718Y005805D01*
X012718Y005862D01*
X012775Y005919D01*
X012775Y005664D02*
X012718Y005607D01*
X012718Y005494D01*
X012832Y005494D02*
X012832Y005664D01*
X012775Y005664D02*
X012945Y005664D01*
X012945Y005494D01*
X012888Y005437D01*
X012832Y005494D01*
X011230Y003819D02*
X011230Y003592D01*
X011230Y003706D02*
X011570Y003706D01*
X011570Y003451D02*
X011400Y003281D01*
X011457Y003224D02*
X011230Y003451D01*
X011230Y003224D02*
X011570Y003224D01*
X011513Y003082D02*
X011570Y003026D01*
X011570Y002912D01*
X011513Y002855D01*
X011400Y002912D02*
X011400Y003026D01*
X011457Y003082D01*
X011513Y003082D01*
X011400Y002912D02*
X011343Y002855D01*
X011286Y002855D01*
X011230Y002912D01*
X011230Y003026D01*
X011286Y003082D01*
X018485Y005100D02*
X018485Y006205D01*
X018718Y006093D02*
X018718Y005923D01*
X018775Y005867D01*
X018832Y005923D01*
X018832Y006037D01*
X018888Y006093D01*
X018945Y006037D01*
X018945Y005867D01*
X018945Y005725D02*
X018945Y005555D01*
X018888Y005498D01*
X018832Y005555D01*
X018832Y005725D01*
X018775Y005725D02*
X018945Y005725D01*
X018775Y005725D02*
X018718Y005668D01*
X018718Y005555D01*
X018718Y005357D02*
X018718Y005187D01*
X018775Y005130D01*
X018888Y005130D01*
X018945Y005187D01*
X018945Y005357D01*
X019485Y005100D02*
X019485Y006144D01*
X019718Y006032D02*
X019718Y005862D01*
X019775Y005805D01*
X019832Y005862D01*
X019832Y005975D01*
X019888Y006032D01*
X019945Y005975D01*
X019945Y005805D01*
X019945Y005664D02*
X019775Y005664D01*
X019718Y005607D01*
X019718Y005494D01*
X019832Y005494D02*
X019832Y005664D01*
X019945Y005664D02*
X019945Y005494D01*
X019888Y005437D01*
X019832Y005494D01*
X019718Y005300D02*
X019718Y005243D01*
X019832Y005130D01*
X019945Y005130D02*
X019718Y005130D01*
X021100Y009200D02*
X021100Y011500D01*
X031100Y011500D01*
X031100Y010750D01*
X031061Y010748D01*
X031022Y010742D01*
X030984Y010733D01*
X030947Y010720D01*
X030911Y010703D01*
X030878Y010683D01*
X030846Y010659D01*
X030817Y010633D01*
X030791Y010604D01*
X030767Y010572D01*
X030747Y010539D01*
X030730Y010503D01*
X030717Y010466D01*
X030708Y010428D01*
X030702Y010389D01*
X030700Y010350D01*
X030702Y010311D01*
X030708Y010272D01*
X030717Y010234D01*
X030730Y010197D01*
X030747Y010161D01*
X030767Y010128D01*
X030791Y010096D01*
X030817Y010067D01*
X030846Y010041D01*
X030878Y010017D01*
X030911Y009997D01*
X030947Y009980D01*
X030984Y009967D01*
X031022Y009958D01*
X031061Y009952D01*
X031100Y009950D01*
X031100Y009200D01*
X021100Y009200D01*
X020300Y009950D02*
X020300Y010750D01*
X020298Y010767D01*
X020294Y010784D01*
X020287Y010800D01*
X020277Y010814D01*
X020264Y010827D01*
X020250Y010837D01*
X020234Y010844D01*
X020217Y010848D01*
X020200Y010850D01*
X018500Y010850D01*
X018483Y010848D01*
X018466Y010844D01*
X018450Y010837D01*
X018436Y010827D01*
X018423Y010814D01*
X018413Y010800D01*
X018406Y010784D01*
X018402Y010767D01*
X018400Y010750D01*
X018400Y009950D01*
X018402Y009933D01*
X018406Y009916D01*
X018413Y009900D01*
X018423Y009886D01*
X018436Y009873D01*
X018450Y009863D01*
X018466Y009856D01*
X018483Y009852D01*
X018500Y009850D01*
X020200Y009850D01*
X020217Y009852D01*
X020234Y009856D01*
X020250Y009863D01*
X020264Y009873D01*
X020277Y009886D01*
X020287Y009900D01*
X020294Y009916D01*
X020298Y009933D01*
X020300Y009950D01*
X019500Y010350D02*
X019450Y010350D01*
X019250Y010350D02*
X019200Y010350D01*
X018350Y010700D02*
X018350Y012950D01*
X018311Y012952D01*
X018272Y012958D01*
X018234Y012967D01*
X018197Y012980D01*
X018161Y012997D01*
X018128Y013017D01*
X018096Y013041D01*
X018067Y013067D01*
X018041Y013096D01*
X018017Y013128D01*
X017997Y013161D01*
X017980Y013197D01*
X017967Y013234D01*
X017958Y013272D01*
X017952Y013311D01*
X017950Y013350D01*
X017952Y013389D01*
X017958Y013428D01*
X017967Y013466D01*
X017980Y013503D01*
X017997Y013539D01*
X018017Y013572D01*
X018041Y013604D01*
X018067Y013633D01*
X018096Y013659D01*
X018128Y013683D01*
X018161Y013703D01*
X018197Y013720D01*
X018234Y013733D01*
X018272Y013742D01*
X018311Y013748D01*
X018350Y013750D01*
X018350Y016000D01*
X002350Y016000D01*
X002350Y010700D01*
X018350Y010700D01*
X016562Y013380D02*
X016392Y013380D01*
X016335Y013437D01*
X016335Y013550D01*
X016392Y013607D01*
X016562Y013607D01*
X016562Y013720D02*
X016562Y013380D01*
X016194Y013380D02*
X016194Y013720D01*
X016194Y013607D02*
X016024Y013607D01*
X015967Y013550D01*
X015967Y013437D01*
X016024Y013380D01*
X016194Y013380D01*
X015826Y013437D02*
X015826Y013664D01*
X015769Y013720D01*
X015656Y013720D01*
X015599Y013664D01*
X015599Y013437D01*
X015656Y013380D01*
X015769Y013380D01*
X015826Y013437D01*
X015457Y013720D02*
X015230Y013380D01*
X015089Y013380D02*
X015089Y013550D01*
X015032Y013607D01*
X014919Y013607D01*
X014862Y013550D01*
X014721Y013607D02*
X014551Y013607D01*
X014494Y013550D01*
X014494Y013437D01*
X014551Y013380D01*
X014721Y013380D01*
X014721Y013323D02*
X014721Y013607D01*
X014862Y013720D02*
X014862Y013380D01*
X014721Y013323D02*
X014664Y013267D01*
X014607Y013267D01*
X014362Y013380D02*
X014248Y013380D01*
X014305Y013380D02*
X014305Y013607D01*
X014248Y013607D01*
X014305Y013720D02*
X014305Y013777D01*
X014107Y013720D02*
X014107Y013380D01*
X014107Y013550D02*
X013880Y013550D01*
X013880Y013380D02*
X013880Y013720D01*
X018400Y017700D02*
X018400Y018500D01*
X018350Y018450D02*
X018350Y020700D01*
X018311Y020702D01*
X018272Y020708D01*
X018234Y020717D01*
X018197Y020730D01*
X018161Y020747D01*
X018128Y020767D01*
X018096Y020791D01*
X018067Y020817D01*
X018041Y020846D01*
X018017Y020878D01*
X017997Y020911D01*
X017980Y020947D01*
X017967Y020984D01*
X017958Y021022D01*
X017952Y021061D01*
X017950Y021100D01*
X017952Y021139D01*
X017958Y021178D01*
X017967Y021216D01*
X017980Y021253D01*
X017997Y021289D01*
X018017Y021322D01*
X018041Y021354D01*
X018067Y021383D01*
X018096Y021409D01*
X018128Y021433D01*
X018161Y021453D01*
X018197Y021470D01*
X018234Y021483D01*
X018272Y021492D01*
X018311Y021498D01*
X018350Y021500D01*
X018350Y023750D01*
X002350Y023750D01*
X002350Y018450D01*
X018350Y018450D01*
X018400Y018500D02*
X018402Y018517D01*
X018406Y018534D01*
X018413Y018550D01*
X018423Y018564D01*
X018436Y018577D01*
X018450Y018587D01*
X018466Y018594D01*
X018483Y018598D01*
X018500Y018600D01*
X020200Y018600D01*
X020217Y018598D01*
X020234Y018594D01*
X020250Y018587D01*
X020264Y018577D01*
X020277Y018564D01*
X020287Y018550D01*
X020294Y018534D01*
X020298Y018517D01*
X020300Y018500D01*
X020300Y017700D01*
X020298Y017683D01*
X020294Y017666D01*
X020287Y017650D01*
X020277Y017636D01*
X020264Y017623D01*
X020250Y017613D01*
X020234Y017606D01*
X020217Y017602D01*
X020200Y017600D01*
X018500Y017600D01*
X018483Y017602D01*
X018466Y017606D01*
X018450Y017613D01*
X018436Y017623D01*
X018423Y017636D01*
X018413Y017650D01*
X018406Y017666D01*
X018402Y017683D01*
X018400Y017700D01*
X019200Y018100D02*
X019250Y018100D01*
X019450Y018100D02*
X019500Y018100D01*
X022100Y019100D02*
X022350Y018850D01*
X022850Y018850D01*
X023100Y019100D01*
X023100Y020600D01*
X022850Y020850D01*
X022350Y020850D01*
X022100Y020600D01*
X022100Y019100D01*
X023100Y019100D02*
X023350Y018850D01*
X023850Y018850D01*
X024100Y019100D01*
X024100Y020600D01*
X023850Y020850D01*
X023350Y020850D01*
X023100Y020600D01*
X024100Y020600D02*
X024350Y020850D01*
X024850Y020850D01*
X025100Y020600D01*
X025100Y019100D01*
X024850Y018850D01*
X024350Y018850D01*
X024100Y019100D01*
X025100Y019100D02*
X025350Y018850D01*
X025850Y018850D01*
X026100Y019100D01*
X026100Y020600D01*
X025850Y020850D01*
X025350Y020850D01*
X025100Y020600D01*
X026100Y020600D02*
X026350Y020850D01*
X026850Y020850D01*
X027100Y020600D01*
X027100Y019100D01*
X026850Y018850D01*
X026350Y018850D01*
X026100Y019100D01*
X029600Y021000D02*
X029600Y022700D01*
X029602Y022717D01*
X029606Y022734D01*
X029613Y022750D01*
X029623Y022764D01*
X029636Y022777D01*
X029650Y022787D01*
X029666Y022794D01*
X029683Y022798D01*
X029700Y022800D01*
X030500Y022800D01*
X030517Y022798D01*
X030534Y022794D01*
X030550Y022787D01*
X030564Y022777D01*
X030577Y022764D01*
X030587Y022750D01*
X030594Y022734D01*
X030598Y022717D01*
X030600Y022700D01*
X030600Y021000D01*
X030598Y020983D01*
X030594Y020966D01*
X030587Y020950D01*
X030577Y020936D01*
X030564Y020923D01*
X030550Y020913D01*
X030534Y020906D01*
X030517Y020902D01*
X030500Y020900D01*
X029700Y020900D01*
X029683Y020902D01*
X029666Y020906D01*
X029650Y020913D01*
X029636Y020923D01*
X029623Y020936D01*
X029613Y020950D01*
X029606Y020966D01*
X029602Y020983D01*
X029600Y021000D01*
X029600Y021700D02*
X029600Y022450D01*
X030100Y022000D02*
X030100Y021950D01*
X030100Y021750D02*
X030100Y021700D01*
X029600Y021700D02*
X022600Y021700D01*
X022600Y024000D01*
X029600Y024000D01*
X029600Y023250D01*
X029561Y023248D01*
X029522Y023242D01*
X029484Y023233D01*
X029447Y023220D01*
X029411Y023203D01*
X029378Y023183D01*
X029346Y023159D01*
X029317Y023133D01*
X029291Y023104D01*
X029267Y023072D01*
X029247Y023039D01*
X029230Y023003D01*
X029217Y022966D01*
X029208Y022928D01*
X029202Y022889D01*
X029200Y022850D01*
X029202Y022811D01*
X029208Y022772D01*
X029217Y022734D01*
X029230Y022697D01*
X029247Y022661D01*
X029267Y022628D01*
X029291Y022596D01*
X029317Y022567D01*
X029346Y022541D01*
X029378Y022517D01*
X029411Y022497D01*
X029447Y022480D01*
X029484Y022467D01*
X029522Y022458D01*
X029561Y022452D01*
X029600Y022450D01*
X032100Y021700D02*
X032100Y024000D01*
X042100Y024000D01*
X042100Y023250D01*
X042061Y023248D01*
X042022Y023242D01*
X041984Y023233D01*
X041947Y023220D01*
X041911Y023203D01*
X041878Y023183D01*
X041846Y023159D01*
X041817Y023133D01*
X041791Y023104D01*
X041767Y023072D01*
X041747Y023039D01*
X041730Y023003D01*
X041717Y022966D01*
X041708Y022928D01*
X041702Y022889D01*
X041700Y022850D01*
X041702Y022811D01*
X041708Y022772D01*
X041717Y022734D01*
X041730Y022697D01*
X041747Y022661D01*
X041767Y022628D01*
X041791Y022596D01*
X041817Y022567D01*
X041846Y022541D01*
X041878Y022517D01*
X041911Y022497D01*
X041947Y022480D01*
X041984Y022467D01*
X042022Y022458D01*
X042061Y022452D01*
X042100Y022450D01*
X042100Y021700D01*
X032100Y021700D01*
X032100Y019750D02*
X032100Y017450D01*
X042100Y017450D01*
X042100Y018200D01*
X042100Y018450D02*
X042100Y016750D01*
X042102Y016733D01*
X042106Y016716D01*
X042113Y016700D01*
X042123Y016686D01*
X042136Y016673D01*
X042150Y016663D01*
X042166Y016656D01*
X042183Y016652D01*
X042200Y016650D01*
X043000Y016650D01*
X043017Y016652D01*
X043034Y016656D01*
X043050Y016663D01*
X043064Y016673D01*
X043077Y016686D01*
X043087Y016700D01*
X043094Y016716D01*
X043098Y016733D01*
X043100Y016750D01*
X043100Y018450D01*
X043098Y018467D01*
X043094Y018484D01*
X043087Y018500D01*
X043077Y018514D01*
X043064Y018527D01*
X043050Y018537D01*
X043034Y018544D01*
X043017Y018548D01*
X043000Y018550D01*
X042200Y018550D01*
X042183Y018548D01*
X042166Y018544D01*
X042150Y018537D01*
X042136Y018527D01*
X042123Y018514D01*
X042113Y018500D01*
X042106Y018484D01*
X042102Y018467D01*
X042100Y018450D01*
X042100Y018200D02*
X042061Y018202D01*
X042022Y018208D01*
X041984Y018217D01*
X041947Y018230D01*
X041911Y018247D01*
X041878Y018267D01*
X041846Y018291D01*
X041817Y018317D01*
X041791Y018346D01*
X041767Y018378D01*
X041747Y018411D01*
X041730Y018447D01*
X041717Y018484D01*
X041708Y018522D01*
X041702Y018561D01*
X041700Y018600D01*
X041702Y018639D01*
X041708Y018678D01*
X041717Y018716D01*
X041730Y018753D01*
X041747Y018789D01*
X041767Y018822D01*
X041791Y018854D01*
X041817Y018883D01*
X041846Y018909D01*
X041878Y018933D01*
X041911Y018953D01*
X041947Y018970D01*
X041984Y018983D01*
X042022Y018992D01*
X042061Y018998D01*
X042100Y019000D01*
X042100Y019750D01*
X032100Y019750D01*
X033750Y014450D02*
X033750Y014350D01*
X033800Y014300D01*
X033800Y013400D01*
X033750Y013350D01*
X033750Y013250D01*
X033752Y013233D01*
X033756Y013216D01*
X033763Y013200D01*
X033773Y013186D01*
X033786Y013173D01*
X033800Y013163D01*
X033816Y013156D01*
X033833Y013152D01*
X033850Y013150D01*
X034350Y013150D02*
X034367Y013152D01*
X034384Y013156D01*
X034400Y013163D01*
X034414Y013173D01*
X034427Y013186D01*
X034437Y013200D01*
X034444Y013216D01*
X034448Y013233D01*
X034450Y013250D01*
X034450Y013350D01*
X034400Y013400D01*
X034400Y014300D01*
X034450Y014350D01*
X034450Y014450D01*
X034448Y014467D01*
X034444Y014484D01*
X034437Y014500D01*
X034427Y014514D01*
X034414Y014527D01*
X034400Y014537D01*
X034384Y014544D01*
X034367Y014548D01*
X034350Y014550D01*
X034750Y014450D02*
X034750Y014350D01*
X034800Y014300D01*
X034800Y013400D01*
X034750Y013350D01*
X034750Y013250D01*
X034752Y013233D01*
X034756Y013216D01*
X034763Y013200D01*
X034773Y013186D01*
X034786Y013173D01*
X034800Y013163D01*
X034816Y013156D01*
X034833Y013152D01*
X034850Y013150D01*
X035350Y013150D02*
X035367Y013152D01*
X035384Y013156D01*
X035400Y013163D01*
X035414Y013173D01*
X035427Y013186D01*
X035437Y013200D01*
X035444Y013216D01*
X035448Y013233D01*
X035450Y013250D01*
X035450Y013350D01*
X035400Y013400D01*
X035400Y014300D01*
X035450Y014350D01*
X035450Y014450D01*
X035448Y014467D01*
X035444Y014484D01*
X035437Y014500D01*
X035427Y014514D01*
X035414Y014527D01*
X035400Y014537D01*
X035384Y014544D01*
X035367Y014548D01*
X035350Y014550D01*
X035750Y014450D02*
X035750Y014350D01*
X035800Y014300D01*
X035800Y013400D01*
X035750Y013350D01*
X035750Y013250D01*
X035752Y013233D01*
X035756Y013216D01*
X035763Y013200D01*
X035773Y013186D01*
X035786Y013173D01*
X035800Y013163D01*
X035816Y013156D01*
X035833Y013152D01*
X035850Y013150D01*
X036350Y013150D02*
X036367Y013152D01*
X036384Y013156D01*
X036400Y013163D01*
X036414Y013173D01*
X036427Y013186D01*
X036437Y013200D01*
X036444Y013216D01*
X036448Y013233D01*
X036450Y013250D01*
X036450Y013350D01*
X036400Y013400D01*
X036400Y014300D01*
X036450Y014350D01*
X036450Y014450D01*
X036448Y014467D01*
X036444Y014484D01*
X036437Y014500D01*
X036427Y014514D01*
X036414Y014527D01*
X036400Y014537D01*
X036384Y014544D01*
X036367Y014548D01*
X036350Y014550D01*
X036750Y014450D02*
X036750Y014350D01*
X036800Y014300D01*
X036800Y013400D01*
X036750Y013350D01*
X036750Y013250D01*
X036752Y013233D01*
X036756Y013216D01*
X036763Y013200D01*
X036773Y013186D01*
X036786Y013173D01*
X036800Y013163D01*
X036816Y013156D01*
X036833Y013152D01*
X036850Y013150D01*
X037350Y013150D02*
X037367Y013152D01*
X037384Y013156D01*
X037400Y013163D01*
X037414Y013173D01*
X037427Y013186D01*
X037437Y013200D01*
X037444Y013216D01*
X037448Y013233D01*
X037450Y013250D01*
X037450Y013350D01*
X037400Y013400D01*
X037400Y014300D01*
X037450Y014350D01*
X037450Y014450D01*
X037448Y014467D01*
X037444Y014484D01*
X037437Y014500D01*
X037427Y014514D01*
X037414Y014527D01*
X037400Y014537D01*
X037384Y014544D01*
X037367Y014548D01*
X037350Y014550D01*
X037750Y014450D02*
X037750Y014350D01*
X037800Y014300D01*
X037800Y013400D01*
X037750Y013350D01*
X037750Y013250D01*
X037752Y013233D01*
X037756Y013216D01*
X037763Y013200D01*
X037773Y013186D01*
X037786Y013173D01*
X037800Y013163D01*
X037816Y013156D01*
X037833Y013152D01*
X037850Y013150D01*
X038350Y013150D02*
X038367Y013152D01*
X038384Y013156D01*
X038400Y013163D01*
X038414Y013173D01*
X038427Y013186D01*
X038437Y013200D01*
X038444Y013216D01*
X038448Y013233D01*
X038450Y013250D01*
X038450Y013350D01*
X038400Y013400D01*
X038400Y014300D01*
X038450Y014350D01*
X038450Y014450D01*
X038448Y014467D01*
X038444Y014484D01*
X038437Y014500D01*
X038427Y014514D01*
X038414Y014527D01*
X038400Y014537D01*
X038384Y014544D01*
X038367Y014548D01*
X038350Y014550D01*
X038750Y014450D02*
X038750Y014350D01*
X038800Y014300D01*
X038800Y013400D01*
X038750Y013350D01*
X038750Y013250D01*
X038752Y013233D01*
X038756Y013216D01*
X038763Y013200D01*
X038773Y013186D01*
X038786Y013173D01*
X038800Y013163D01*
X038816Y013156D01*
X038833Y013152D01*
X038850Y013150D01*
X039350Y013150D02*
X039367Y013152D01*
X039384Y013156D01*
X039400Y013163D01*
X039414Y013173D01*
X039427Y013186D01*
X039437Y013200D01*
X039444Y013216D01*
X039448Y013233D01*
X039450Y013250D01*
X039450Y013350D01*
X039400Y013400D01*
X039400Y014300D01*
X039450Y014350D01*
X039450Y014450D01*
X039448Y014467D01*
X039444Y014484D01*
X039437Y014500D01*
X039427Y014514D01*
X039414Y014527D01*
X039400Y014537D01*
X039384Y014544D01*
X039367Y014548D01*
X039350Y014550D01*
X039750Y014450D02*
X039750Y014350D01*
X039800Y014300D01*
X039800Y013400D01*
X039750Y013350D01*
X039750Y013250D01*
X039752Y013233D01*
X039756Y013216D01*
X039763Y013200D01*
X039773Y013186D01*
X039786Y013173D01*
X039800Y013163D01*
X039816Y013156D01*
X039833Y013152D01*
X039850Y013150D01*
X040350Y013150D02*
X040367Y013152D01*
X040384Y013156D01*
X040400Y013163D01*
X040414Y013173D01*
X040427Y013186D01*
X040437Y013200D01*
X040444Y013216D01*
X040448Y013233D01*
X040450Y013250D01*
X040450Y013350D01*
X040400Y013400D01*
X040400Y014300D01*
X040450Y014350D01*
X040450Y014450D01*
X040448Y014467D01*
X040444Y014484D01*
X040437Y014500D01*
X040427Y014514D01*
X040414Y014527D01*
X040400Y014537D01*
X040384Y014544D01*
X040367Y014548D01*
X040350Y014550D01*
X040750Y014450D02*
X040750Y014350D01*
X040800Y014300D01*
X040800Y013400D01*
X040750Y013350D01*
X040750Y013250D01*
X040752Y013233D01*
X040756Y013216D01*
X040763Y013200D01*
X040773Y013186D01*
X040786Y013173D01*
X040800Y013163D01*
X040816Y013156D01*
X040833Y013152D01*
X040850Y013150D01*
X041350Y013150D02*
X041367Y013152D01*
X041384Y013156D01*
X041400Y013163D01*
X041414Y013173D01*
X041427Y013186D01*
X041437Y013200D01*
X041444Y013216D01*
X041448Y013233D01*
X041450Y013250D01*
X041450Y013350D01*
X041400Y013400D01*
X041400Y014300D01*
X041450Y014350D01*
X041450Y014450D01*
X041448Y014467D01*
X041444Y014484D01*
X041437Y014500D01*
X041427Y014514D01*
X041414Y014527D01*
X041400Y014537D01*
X041384Y014544D01*
X041367Y014548D01*
X041350Y014550D01*
X040850Y014550D02*
X040833Y014548D01*
X040816Y014544D01*
X040800Y014537D01*
X040786Y014527D01*
X040773Y014514D01*
X040763Y014500D01*
X040756Y014484D01*
X040752Y014467D01*
X040750Y014450D01*
X039850Y014550D02*
X039833Y014548D01*
X039816Y014544D01*
X039800Y014537D01*
X039786Y014527D01*
X039773Y014514D01*
X039763Y014500D01*
X039756Y014484D01*
X039752Y014467D01*
X039750Y014450D01*
X038850Y014550D02*
X038833Y014548D01*
X038816Y014544D01*
X038800Y014537D01*
X038786Y014527D01*
X038773Y014514D01*
X038763Y014500D01*
X038756Y014484D01*
X038752Y014467D01*
X038750Y014450D01*
X037850Y014550D02*
X037833Y014548D01*
X037816Y014544D01*
X037800Y014537D01*
X037786Y014527D01*
X037773Y014514D01*
X037763Y014500D01*
X037756Y014484D01*
X037752Y014467D01*
X037750Y014450D01*
X036850Y014550D02*
X036833Y014548D01*
X036816Y014544D01*
X036800Y014537D01*
X036786Y014527D01*
X036773Y014514D01*
X036763Y014500D01*
X036756Y014484D01*
X036752Y014467D01*
X036750Y014450D01*
X035850Y014550D02*
X035833Y014548D01*
X035816Y014544D01*
X035800Y014537D01*
X035786Y014527D01*
X035773Y014514D01*
X035763Y014500D01*
X035756Y014484D01*
X035752Y014467D01*
X035750Y014450D01*
X034850Y014550D02*
X034833Y014548D01*
X034816Y014544D01*
X034800Y014537D01*
X034786Y014527D01*
X034773Y014514D01*
X034763Y014500D01*
X034756Y014484D01*
X034752Y014467D01*
X034750Y014450D01*
X033850Y014550D02*
X033833Y014548D01*
X033816Y014544D01*
X033800Y014537D01*
X033786Y014527D01*
X033773Y014514D01*
X033763Y014500D01*
X033756Y014484D01*
X033752Y014467D01*
X033750Y014450D01*
X032100Y011500D02*
X032100Y009200D01*
X032100Y007500D01*
X032098Y007483D01*
X032094Y007466D01*
X032087Y007450D01*
X032077Y007436D01*
X032064Y007423D01*
X032050Y007413D01*
X032034Y007406D01*
X032017Y007402D01*
X032000Y007400D01*
X031200Y007400D01*
X031183Y007402D01*
X031166Y007406D01*
X031150Y007413D01*
X031136Y007423D01*
X031123Y007436D01*
X031113Y007450D01*
X031106Y007466D01*
X031102Y007483D01*
X031100Y007500D01*
X031100Y009200D01*
X031102Y009217D01*
X031106Y009234D01*
X031113Y009250D01*
X031123Y009264D01*
X031136Y009277D01*
X031150Y009287D01*
X031166Y009294D01*
X031183Y009298D01*
X031200Y009300D01*
X032000Y009300D01*
X032017Y009298D01*
X032034Y009294D01*
X032050Y009287D01*
X032064Y009277D01*
X032077Y009264D01*
X032087Y009250D01*
X032094Y009234D01*
X032098Y009217D01*
X032100Y009200D01*
X042100Y009200D01*
X042100Y009950D01*
X042100Y009750D02*
X042100Y010500D01*
X032100Y010500D01*
X032100Y008200D01*
X042100Y008200D01*
X042100Y008950D01*
X042061Y008952D01*
X042022Y008958D01*
X041984Y008967D01*
X041947Y008980D01*
X041911Y008997D01*
X041878Y009017D01*
X041846Y009041D01*
X041817Y009067D01*
X041791Y009096D01*
X041767Y009128D01*
X041747Y009161D01*
X041730Y009197D01*
X041717Y009234D01*
X041708Y009272D01*
X041702Y009311D01*
X041700Y009350D01*
X041702Y009389D01*
X041708Y009428D01*
X041717Y009466D01*
X041730Y009503D01*
X041747Y009539D01*
X041767Y009572D01*
X041791Y009604D01*
X041817Y009633D01*
X041846Y009659D01*
X041878Y009683D01*
X041911Y009703D01*
X041947Y009720D01*
X041984Y009733D01*
X042022Y009742D01*
X042061Y009748D01*
X042100Y009750D01*
X042100Y009950D02*
X042061Y009952D01*
X042022Y009958D01*
X041984Y009967D01*
X041947Y009980D01*
X041911Y009997D01*
X041878Y010017D01*
X041846Y010041D01*
X041817Y010067D01*
X041791Y010096D01*
X041767Y010128D01*
X041747Y010161D01*
X041730Y010197D01*
X041717Y010234D01*
X041708Y010272D01*
X041702Y010311D01*
X041700Y010350D01*
X041702Y010389D01*
X041708Y010428D01*
X041717Y010466D01*
X041730Y010503D01*
X041747Y010539D01*
X041767Y010572D01*
X041791Y010604D01*
X041817Y010633D01*
X041846Y010659D01*
X041878Y010683D01*
X041911Y010703D01*
X041947Y010720D01*
X041984Y010733D01*
X042022Y010742D01*
X042061Y010748D01*
X042100Y010750D01*
X042100Y011500D01*
X032100Y011500D01*
X031600Y008500D02*
X031600Y008450D01*
X031600Y008250D02*
X031600Y008200D01*
X031350Y006600D02*
X031100Y006350D01*
X031100Y005850D01*
X031350Y005600D01*
X031850Y005600D01*
X032100Y005850D01*
X032350Y005600D01*
X032850Y005600D01*
X033100Y005850D01*
X033350Y005600D01*
X033850Y005600D01*
X034100Y005850D01*
X034100Y006350D01*
X033850Y006600D01*
X033350Y006600D01*
X033100Y006350D01*
X033100Y005850D01*
X033100Y006350D02*
X032850Y006600D01*
X032350Y006600D01*
X032100Y006350D01*
X032100Y005850D01*
X032100Y006350D02*
X031850Y006600D01*
X031350Y006600D01*
X032980Y003819D02*
X032980Y003592D01*
X032980Y003706D02*
X033320Y003706D01*
X033320Y003451D02*
X033150Y003281D01*
X033207Y003224D02*
X032980Y003451D01*
X032980Y003224D02*
X033320Y003224D01*
X033263Y003082D02*
X033320Y003026D01*
X033320Y002912D01*
X033263Y002855D01*
X033150Y002912D02*
X033150Y003026D01*
X033207Y003082D01*
X033263Y003082D01*
X033150Y002912D02*
X033093Y002855D01*
X033036Y002855D01*
X032980Y002912D01*
X032980Y003026D01*
X033036Y003082D01*
X033036Y002346D02*
X032980Y002289D01*
X032980Y002176D01*
X033036Y002119D01*
X032980Y001977D02*
X032980Y001751D01*
X033150Y001751D01*
X033093Y001864D01*
X033093Y001921D01*
X033150Y001977D01*
X033263Y001977D01*
X033320Y001921D01*
X033320Y001807D01*
X033263Y001751D01*
X033320Y001618D02*
X033320Y001505D01*
X033320Y001562D02*
X032980Y001562D01*
X032980Y001618D02*
X032980Y001505D01*
X033320Y002119D02*
X033093Y002346D01*
X033036Y002346D01*
X033320Y002346D02*
X033320Y002119D01*
X042730Y008130D02*
X042730Y008243D01*
X042730Y008187D02*
X043070Y008187D01*
X043070Y008243D02*
X043070Y008130D01*
X043013Y008376D02*
X043070Y008432D01*
X043070Y008546D01*
X043013Y008602D01*
X042900Y008602D01*
X042843Y008546D01*
X042843Y008489D01*
X042900Y008376D01*
X042730Y008376D01*
X042730Y008602D01*
X042900Y008744D02*
X042900Y008914D01*
X042957Y008971D01*
X043013Y008971D01*
X043070Y008914D01*
X043070Y008801D01*
X043013Y008744D01*
X042900Y008744D01*
X042786Y008857D01*
X042730Y008971D01*
X042786Y009480D02*
X042843Y009480D01*
X042900Y009537D01*
X042900Y009651D01*
X042957Y009707D01*
X043013Y009707D01*
X043070Y009651D01*
X043070Y009537D01*
X043013Y009480D01*
X042786Y009480D02*
X042730Y009537D01*
X042730Y009651D01*
X042786Y009707D01*
X042730Y009849D02*
X043070Y009849D01*
X042957Y009849D02*
X042730Y010076D01*
X042730Y010217D02*
X042730Y010444D01*
X042730Y010331D02*
X043070Y010331D01*
X043070Y010076D02*
X042900Y009906D01*
X042600Y017450D02*
X042600Y017500D01*
X042600Y017700D02*
X042600Y017750D01*
X042200Y020900D02*
X043000Y020900D01*
X043017Y020902D01*
X043034Y020906D01*
X043050Y020913D01*
X043064Y020923D01*
X043077Y020936D01*
X043087Y020950D01*
X043094Y020966D01*
X043098Y020983D01*
X043100Y021000D01*
X043100Y022700D01*
X043098Y022717D01*
X043094Y022734D01*
X043087Y022750D01*
X043077Y022764D01*
X043064Y022777D01*
X043050Y022787D01*
X043034Y022794D01*
X043017Y022798D01*
X043000Y022800D01*
X042200Y022800D01*
X042183Y022798D01*
X042166Y022794D01*
X042150Y022787D01*
X042136Y022777D01*
X042123Y022764D01*
X042113Y022750D01*
X042106Y022734D01*
X042102Y022717D01*
X042100Y022700D01*
X042100Y021000D01*
X042102Y020983D01*
X042106Y020966D01*
X042113Y020950D01*
X042123Y020936D01*
X042136Y020923D01*
X042150Y020913D01*
X042166Y020906D01*
X042183Y020902D01*
X042200Y020900D01*
X042600Y021700D02*
X042600Y021750D01*
X042600Y021950D02*
X042600Y022000D01*
X016685Y021300D02*
X016685Y021130D01*
X016685Y021300D02*
X016628Y021357D01*
X016458Y021357D01*
X016458Y021130D01*
X016317Y021243D02*
X016090Y021243D01*
X016090Y021187D02*
X016090Y021300D01*
X016147Y021357D01*
X016260Y021357D01*
X016317Y021300D01*
X016317Y021243D01*
X016260Y021130D02*
X016147Y021130D01*
X016090Y021187D01*
X015948Y021357D02*
X015835Y021130D01*
X015722Y021357D01*
X015580Y021470D02*
X015353Y021470D01*
X015353Y021130D01*
X015580Y021130D01*
X015467Y021300D02*
X015353Y021300D01*
X015212Y021470D02*
X014985Y021130D01*
X014843Y021187D02*
X014843Y021357D01*
X014843Y021187D02*
X014787Y021130D01*
X014730Y021187D01*
X014673Y021130D01*
X014617Y021187D01*
X014617Y021357D01*
X014475Y021300D02*
X014418Y021357D01*
X014305Y021357D01*
X014248Y021300D01*
X014248Y021187D01*
X014305Y021130D01*
X014418Y021130D01*
X014475Y021187D01*
X014475Y021300D01*
X014107Y021130D02*
X013880Y021130D01*
X013880Y021470D01*
D11*
X010850Y004350D02*
X010850Y003850D01*
X010600Y004100D01*
X011850Y004100D01*
X011850Y001100D01*
X010600Y001100D01*
X010850Y000850D01*
X010850Y001350D01*
X010600Y001100D01*
X010600Y004100D02*
X010850Y004350D01*
X032350Y004100D02*
X032600Y003850D01*
X032600Y004350D01*
X032350Y004100D01*
X033600Y004100D01*
X033600Y001100D01*
X032350Y001100D01*
X032600Y001350D01*
X032600Y000850D01*
X032350Y001100D01*
X042350Y007850D02*
X043350Y007850D01*
X042600Y007600D02*
X042350Y007850D01*
X042600Y008100D01*
X042600Y007600D01*
X042600Y010600D02*
X042350Y010850D01*
X043350Y010850D01*
X042600Y011100D02*
X042600Y010600D01*
X042350Y010850D02*
X042600Y011100D01*
D12*
X026840Y017720D02*
X022850Y017720D01*
X022960Y017560D02*
X022890Y017490D01*
X022890Y017210D01*
X022960Y017140D01*
X023100Y017140D01*
X023170Y017210D01*
X023350Y017140D02*
X023350Y017420D01*
X023491Y017560D01*
X023631Y017420D01*
X023631Y017140D01*
X023811Y017210D02*
X023881Y017140D01*
X024021Y017140D01*
X024091Y017210D01*
X024091Y017280D01*
X024021Y017350D01*
X023881Y017350D01*
X023811Y017420D01*
X023811Y017490D01*
X023881Y017560D01*
X024021Y017560D01*
X024091Y017490D01*
X023631Y017350D02*
X023350Y017350D01*
X023170Y017490D02*
X023100Y017560D01*
X022960Y017560D01*
X022850Y018140D02*
X022850Y018560D01*
X022640Y018350D01*
X022920Y018350D01*
X023640Y018210D02*
X023710Y018140D01*
X023850Y018140D01*
X023920Y018210D01*
X023920Y018280D01*
X023850Y018350D01*
X023780Y018350D01*
X023850Y018350D02*
X023920Y018420D01*
X023920Y018490D01*
X023850Y018560D01*
X023710Y018560D01*
X023640Y018490D01*
X024640Y018490D02*
X024710Y018560D01*
X024850Y018560D01*
X024920Y018490D01*
X024920Y018420D01*
X024640Y018140D01*
X024920Y018140D01*
X025640Y018140D02*
X025920Y018140D01*
X025780Y018140D02*
X025780Y018560D01*
X025640Y018420D01*
X026640Y018490D02*
X026640Y018210D01*
X026920Y018490D01*
X026920Y018210D01*
X026850Y018140D01*
X026710Y018140D01*
X026640Y018210D01*
X026640Y018490D02*
X026710Y018560D01*
X026850Y018560D01*
X026920Y018490D01*
X026700Y017420D02*
X026700Y017070D01*
X026630Y017000D01*
X026560Y017000D01*
X026490Y017140D02*
X026700Y017140D01*
X026490Y017140D02*
X026420Y017210D01*
X026420Y017420D01*
X026240Y017350D02*
X026240Y017140D01*
X026029Y017140D01*
X025959Y017210D01*
X026029Y017280D01*
X026240Y017280D01*
X026240Y017350D02*
X026169Y017420D01*
X026029Y017420D01*
X025722Y017560D02*
X025722Y017140D01*
X025652Y017140D02*
X025792Y017140D01*
X025472Y017280D02*
X025472Y017350D01*
X025402Y017420D01*
X025262Y017420D01*
X025192Y017350D01*
X025192Y017210D01*
X025262Y017140D01*
X025402Y017140D01*
X025472Y017280D02*
X025192Y017280D01*
X025012Y017140D02*
X025012Y017560D01*
X025012Y017420D02*
X024802Y017420D01*
X024732Y017350D01*
X024732Y017210D01*
X024802Y017140D01*
X025012Y017140D01*
X025652Y017560D02*
X025722Y017560D01*
X015982Y008990D02*
X015982Y008710D01*
X016052Y008640D01*
X016219Y008640D02*
X016289Y008640D01*
X016289Y008710D01*
X016219Y008710D01*
X016219Y008640D01*
X016052Y008920D02*
X015912Y008920D01*
X015732Y008850D02*
X015732Y008640D01*
X015732Y008850D02*
X015662Y008920D01*
X015452Y008920D01*
X015452Y008640D01*
X015272Y008780D02*
X014991Y008780D01*
X014991Y008710D02*
X014991Y008850D01*
X015061Y008920D01*
X015202Y008920D01*
X015272Y008850D01*
X015272Y008780D01*
X015202Y008640D02*
X015061Y008640D01*
X014991Y008710D01*
X014811Y008640D02*
X014811Y008850D01*
X014741Y008920D01*
X014671Y008850D01*
X014671Y008640D01*
X014531Y008640D02*
X014531Y008920D01*
X014601Y008920D01*
X014671Y008850D01*
X014351Y008850D02*
X014351Y008780D01*
X014071Y008780D01*
X014071Y008710D02*
X014071Y008850D01*
X014141Y008920D01*
X014281Y008920D01*
X014351Y008850D01*
X014281Y008640D02*
X014141Y008640D01*
X014071Y008710D01*
X013890Y008640D02*
X013680Y008640D01*
X013610Y008710D01*
X013610Y008850D01*
X013680Y008920D01*
X013890Y008920D01*
X013430Y008850D02*
X013430Y008640D01*
X013220Y008640D01*
X013150Y008710D01*
X013220Y008780D01*
X013430Y008780D01*
X013430Y008850D02*
X013360Y008920D01*
X013220Y008920D01*
X012913Y009060D02*
X012913Y008640D01*
X012843Y008640D02*
X012983Y008640D01*
X012663Y008710D02*
X012593Y008640D01*
X012382Y008640D01*
X012382Y008500D02*
X012382Y008920D01*
X012593Y008920D01*
X012663Y008850D01*
X012663Y008710D01*
X012843Y009060D02*
X012913Y009060D01*
X012202Y008850D02*
X012202Y008780D01*
X011922Y008780D01*
X011922Y008710D02*
X011922Y008850D01*
X011992Y008920D01*
X012132Y008920D01*
X012202Y008850D01*
X012132Y008640D02*
X011992Y008640D01*
X011922Y008710D01*
X011749Y008920D02*
X011679Y008920D01*
X011538Y008780D01*
X011538Y008640D02*
X011538Y008920D01*
X010898Y009060D02*
X010898Y008640D01*
X010618Y008640D02*
X010618Y009060D01*
X010758Y008920D01*
X010898Y009060D01*
X010437Y008920D02*
X010437Y008640D01*
X010437Y008850D02*
X010157Y008850D01*
X010157Y008920D02*
X010297Y009060D01*
X010437Y008920D01*
X010157Y008920D02*
X010157Y008640D01*
X009977Y008640D02*
X009837Y008780D01*
X009907Y008780D02*
X009697Y008780D01*
X009697Y008640D02*
X009697Y009060D01*
X009907Y009060D01*
X009977Y008990D01*
X009977Y008850D01*
X009907Y008780D01*
X009517Y008780D02*
X009517Y008710D01*
X009447Y008640D01*
X009307Y008640D01*
X009236Y008710D01*
X009307Y008850D02*
X009236Y008920D01*
X009236Y008990D01*
X009307Y009060D01*
X009447Y009060D01*
X009517Y008990D01*
X009447Y008850D02*
X009517Y008780D01*
X009447Y008850D02*
X009307Y008850D01*
X008853Y008310D02*
X008853Y007890D01*
X008686Y007890D02*
X008616Y007960D01*
X008616Y008240D01*
X008546Y008170D02*
X008686Y008170D01*
X008853Y008100D02*
X008923Y008170D01*
X009063Y008170D01*
X009133Y008100D01*
X009133Y007890D01*
X009313Y007890D02*
X009383Y007890D01*
X009383Y007960D01*
X009313Y007960D01*
X009313Y007890D01*
X008366Y007960D02*
X008366Y008100D01*
X008296Y008170D01*
X008156Y008170D01*
X008085Y008100D01*
X008085Y007960D01*
X008156Y007890D01*
X008296Y007890D01*
X008366Y007960D01*
X007905Y007890D02*
X007905Y008100D01*
X007835Y008170D01*
X007765Y008100D01*
X007765Y007890D01*
X007625Y007890D02*
X007625Y008170D01*
X007695Y008170D01*
X007765Y008100D01*
X007445Y008100D02*
X007375Y008170D01*
X007235Y008170D01*
X007235Y008030D02*
X007445Y008030D01*
X007445Y008100D02*
X007445Y007890D01*
X007235Y007890D01*
X007165Y007960D01*
X007235Y008030D01*
X006985Y008100D02*
X006985Y008240D01*
X006914Y008310D01*
X006704Y008310D01*
X006704Y007890D01*
X006704Y008030D02*
X006914Y008030D01*
X006985Y008100D01*
X006844Y008030D02*
X006985Y007890D01*
X006935Y008640D02*
X007215Y008920D01*
X007215Y008990D01*
X007145Y009060D01*
X007005Y009060D01*
X006935Y008990D01*
X007395Y009060D02*
X007395Y008850D01*
X007535Y008920D01*
X007605Y008920D01*
X007675Y008850D01*
X007675Y008710D01*
X007605Y008640D01*
X007465Y008640D01*
X007395Y008710D01*
X007215Y008640D02*
X006935Y008640D01*
X006294Y008640D02*
X006294Y008850D01*
X006224Y008920D01*
X006084Y008920D01*
X006084Y008780D02*
X006294Y008780D01*
X006294Y008640D02*
X006084Y008640D01*
X006014Y008710D01*
X006084Y008780D01*
X005847Y008640D02*
X005777Y008710D01*
X005777Y008990D01*
X005707Y008920D02*
X005847Y008920D01*
X005527Y008850D02*
X005527Y008780D01*
X005246Y008780D01*
X005246Y008710D02*
X005246Y008850D01*
X005316Y008920D01*
X005457Y008920D01*
X005527Y008850D01*
X005457Y008640D02*
X005316Y008640D01*
X005246Y008710D01*
X005066Y008710D02*
X004996Y008640D01*
X004786Y008640D01*
X004786Y009060D01*
X004996Y009060D01*
X005066Y008990D01*
X005066Y008920D01*
X004996Y008850D01*
X004786Y008850D01*
X004996Y008850D02*
X005066Y008780D01*
X005066Y008710D01*
X005463Y008310D02*
X005463Y007890D01*
X005323Y007890D02*
X005603Y007890D01*
X005784Y007960D02*
X006064Y008240D01*
X006064Y007960D01*
X005994Y007890D01*
X005854Y007890D01*
X005784Y007960D01*
X005784Y008240D01*
X005854Y008310D01*
X005994Y008310D01*
X006064Y008240D01*
X005463Y008310D02*
X005323Y008170D01*
X005143Y008100D02*
X004863Y008100D01*
X004683Y008100D02*
X004402Y008100D01*
X004613Y008310D01*
X004613Y007890D01*
X004222Y007960D02*
X004222Y008240D01*
X003942Y007960D01*
X004012Y007890D01*
X004152Y007890D01*
X004222Y007960D01*
X003942Y007960D02*
X003942Y008240D01*
X004012Y008310D01*
X004152Y008310D01*
X004222Y008240D01*
X004145Y008640D02*
X004145Y008850D01*
X004075Y008920D01*
X003865Y008920D01*
X003865Y008640D01*
X003685Y008710D02*
X003615Y008640D01*
X003475Y008640D01*
X003405Y008710D01*
X003405Y008850D01*
X003475Y008920D01*
X003615Y008920D01*
X003685Y008850D01*
X003685Y008710D01*
X003225Y008640D02*
X003015Y008640D01*
X002944Y008710D01*
X002944Y008850D01*
X003015Y008920D01*
X003225Y008920D01*
X003225Y008570D01*
X003155Y008500D01*
X003085Y008500D01*
X003091Y008310D02*
X003021Y008240D01*
X003091Y008310D02*
X003231Y008310D01*
X003301Y008240D01*
X003301Y008170D01*
X003021Y007890D01*
X003301Y007890D01*
X003482Y008100D02*
X003762Y008100D01*
X002841Y008170D02*
X002841Y008240D01*
X002771Y008310D01*
X002631Y008310D01*
X002561Y008240D01*
X002381Y008240D02*
X002100Y007960D01*
X002170Y007890D01*
X002311Y007890D01*
X002381Y007960D01*
X002381Y008240D01*
X002311Y008310D01*
X002170Y008310D01*
X002100Y008240D01*
X002100Y007960D01*
X001920Y007890D02*
X001640Y007890D01*
X001920Y008170D01*
X001920Y008240D01*
X001850Y008310D01*
X001710Y008310D01*
X001640Y008240D01*
X001640Y008640D02*
X001850Y008640D01*
X001920Y008710D01*
X001920Y008990D01*
X001850Y009060D01*
X001640Y009060D01*
X001640Y008640D01*
X002100Y008640D02*
X002100Y008920D01*
X002100Y008780D02*
X002241Y008920D01*
X002311Y008920D01*
X002554Y008920D02*
X002694Y008920D01*
X002764Y008850D01*
X002764Y008640D01*
X002554Y008640D01*
X002484Y008710D01*
X002554Y008780D01*
X002764Y008780D01*
X002841Y008170D02*
X002561Y007890D01*
X002841Y007890D01*
X007395Y009060D02*
X007675Y009060D01*
X007855Y008850D02*
X008065Y008850D01*
X008136Y008780D01*
X008136Y008710D01*
X008065Y008640D01*
X007925Y008640D01*
X007855Y008710D01*
X007855Y008850D01*
X007995Y008990D01*
X008136Y009060D01*
X008316Y009060D02*
X008316Y008640D01*
X008316Y008780D02*
X008596Y009060D01*
X008386Y008850D02*
X008596Y008640D01*
D13*
X019250Y010050D02*
X019250Y010350D01*
X019250Y010650D01*
X019450Y010650D02*
X019450Y010350D01*
X019450Y010050D01*
X031300Y008450D02*
X031600Y008450D01*
X031900Y008450D01*
X031900Y008250D02*
X031600Y008250D01*
X031300Y008250D01*
X042300Y017500D02*
X042600Y017500D01*
X042900Y017500D01*
X042900Y017700D02*
X042600Y017700D01*
X042300Y017700D01*
X042300Y021750D02*
X042600Y021750D01*
X042900Y021750D01*
X042900Y021950D02*
X042600Y021950D01*
X042300Y021950D01*
X030400Y021950D02*
X030100Y021950D01*
X029800Y021950D01*
X029800Y021750D02*
X030100Y021750D01*
X030400Y021750D01*
X019450Y018400D02*
X019450Y018100D01*
X019450Y017800D01*
X019250Y017800D02*
X019250Y018100D01*
X019250Y018400D01*
M02*
