G75*
%MOIN*%
%OFA0B0*%
%FSLAX24Y24*%
%IPPOS*%
%LPD*%
%AMOC8*
5,1,8,0,0,1.08239X$1,22.5*
%
%ADD10C,0.0000*%
%ADD11C,0.0480*%
%ADD12OC8,0.0600*%
%ADD13OC8,0.0480*%
%ADD14C,0.0240*%
%ADD15C,0.0100*%
%ADD16C,0.0120*%
%ADD17C,0.0354*%
%ADD18C,0.0472*%
D10*
X000100Y000100D02*
X000100Y026970D01*
X043467Y026970D01*
X043467Y000100D01*
X000100Y000100D01*
D11*
X000850Y001100D03*
X000850Y002100D03*
X001850Y002100D03*
X002850Y002100D03*
X003850Y002100D03*
X003850Y001100D03*
X002850Y001100D03*
X001850Y001100D03*
X004850Y001100D03*
X005850Y001100D03*
X006850Y001100D03*
X007850Y001100D03*
X007850Y002100D03*
X006850Y002100D03*
X005850Y002100D03*
X004850Y002100D03*
X004850Y004100D03*
X005850Y004100D03*
X006850Y004100D03*
X007850Y004100D03*
X007850Y005100D03*
X006850Y005100D03*
X005850Y005100D03*
X004850Y005100D03*
X003850Y005100D03*
X002850Y005100D03*
X001850Y005100D03*
X001850Y004100D03*
X002850Y004100D03*
X003850Y004100D03*
X000850Y004100D03*
X000850Y005100D03*
X008850Y005100D03*
X009850Y005100D03*
X009850Y004100D03*
X008850Y004100D03*
X008850Y002100D03*
X009850Y002100D03*
X009850Y001100D03*
X008850Y001100D03*
X021600Y008850D03*
X022600Y008850D03*
X023600Y008850D03*
X024600Y008850D03*
X025600Y008850D03*
X026600Y008850D03*
X027600Y008850D03*
X028600Y008850D03*
X029600Y008850D03*
X030600Y008850D03*
X032600Y008850D03*
X033600Y008850D03*
X034600Y008850D03*
X035600Y008850D03*
X036600Y008850D03*
X037600Y008850D03*
X038600Y008850D03*
X039600Y008850D03*
X040600Y008850D03*
X041600Y008850D03*
X041600Y007850D03*
X040600Y007850D03*
X039600Y007850D03*
X038600Y007850D03*
X037600Y007850D03*
X036600Y007850D03*
X035600Y007850D03*
X034600Y007850D03*
X033600Y007850D03*
X032600Y007850D03*
X031600Y005100D03*
X030600Y005100D03*
X029600Y005100D03*
X028600Y005100D03*
X028600Y004100D03*
X029600Y004100D03*
X030600Y004100D03*
X031600Y004100D03*
X031600Y002100D03*
X030600Y002100D03*
X029600Y002100D03*
X028600Y002100D03*
X028600Y001100D03*
X029600Y001100D03*
X030600Y001100D03*
X031600Y001100D03*
X027600Y001100D03*
X026600Y001100D03*
X025600Y001100D03*
X025600Y002100D03*
X026600Y002100D03*
X027600Y002100D03*
X024600Y002100D03*
X023600Y002100D03*
X022600Y002100D03*
X022600Y001100D03*
X023600Y001100D03*
X024600Y001100D03*
X024600Y004100D03*
X023600Y004100D03*
X022600Y004100D03*
X022600Y005100D03*
X023600Y005100D03*
X024600Y005100D03*
X025600Y005100D03*
X026600Y005100D03*
X027600Y005100D03*
X027600Y004100D03*
X026600Y004100D03*
X025600Y004100D03*
X017850Y010350D03*
X016850Y010350D03*
X015850Y010350D03*
X014850Y010350D03*
X013850Y010350D03*
X012850Y010350D03*
X011850Y010350D03*
X010850Y010350D03*
X009850Y010350D03*
X008850Y010350D03*
X007850Y010350D03*
X006850Y010350D03*
X005850Y010350D03*
X004850Y010350D03*
X003850Y010350D03*
X002850Y010350D03*
X002850Y016350D03*
X003850Y016350D03*
X004850Y016350D03*
X005850Y016350D03*
X006850Y016350D03*
X007850Y016350D03*
X008850Y016350D03*
X009850Y016350D03*
X010850Y016350D03*
X011850Y016350D03*
X012850Y016350D03*
X013850Y016350D03*
X014850Y016350D03*
X015850Y016350D03*
X016850Y016350D03*
X017850Y016350D03*
X017850Y018100D03*
X016850Y018100D03*
X015850Y018100D03*
X014850Y018100D03*
X013850Y018100D03*
X012850Y018100D03*
X011850Y018100D03*
X010850Y018100D03*
X009850Y018100D03*
X008850Y018100D03*
X007850Y018100D03*
X006850Y018100D03*
X005850Y018100D03*
X004850Y018100D03*
X003850Y018100D03*
X002850Y018100D03*
X002850Y024100D03*
X003850Y024100D03*
X004850Y024100D03*
X005850Y024100D03*
X006850Y024100D03*
X007850Y024100D03*
X008850Y024100D03*
X009850Y024100D03*
X010850Y024100D03*
X011850Y024100D03*
X012850Y024100D03*
X013850Y024100D03*
X014850Y024100D03*
X015850Y024100D03*
X016850Y024100D03*
X017850Y024100D03*
X023100Y024350D03*
X024100Y024350D03*
X025100Y024350D03*
X026100Y024350D03*
X027100Y024350D03*
X028100Y024350D03*
X029100Y024350D03*
X032600Y024350D03*
X033600Y024350D03*
X034600Y024350D03*
X035600Y024350D03*
X036600Y024350D03*
X037600Y024350D03*
X038600Y024350D03*
X039600Y024350D03*
X040600Y024350D03*
X041600Y024350D03*
X041600Y021350D03*
X040600Y021350D03*
X039600Y021350D03*
X038600Y021350D03*
X037600Y021350D03*
X036600Y021350D03*
X035600Y021350D03*
X034600Y021350D03*
X033600Y021350D03*
X032600Y021350D03*
X032600Y020100D03*
X033600Y020100D03*
X034600Y020100D03*
X035600Y020100D03*
X036600Y020100D03*
X037600Y020100D03*
X038600Y020100D03*
X039600Y020100D03*
X040600Y020100D03*
X041600Y020100D03*
X041600Y017100D03*
X040600Y017100D03*
X039600Y017100D03*
X038600Y017100D03*
X037600Y017100D03*
X036600Y017100D03*
X035600Y017100D03*
X034600Y017100D03*
X033600Y017100D03*
X032600Y017100D03*
X029100Y021350D03*
X028100Y021350D03*
X027100Y021350D03*
X026100Y021350D03*
X025100Y021350D03*
X024100Y021350D03*
X023100Y021350D03*
X022600Y011850D03*
X021600Y011850D03*
X023600Y011850D03*
X024600Y011850D03*
X025600Y011850D03*
X026600Y011850D03*
X027600Y011850D03*
X028600Y011850D03*
X029600Y011850D03*
X030600Y011850D03*
X032600Y011850D03*
X033600Y011850D03*
X034600Y011850D03*
X035600Y011850D03*
X035600Y010850D03*
X034600Y010850D03*
X033600Y010850D03*
X032600Y010850D03*
X036600Y010850D03*
X037600Y010850D03*
X038600Y010850D03*
X038600Y011850D03*
X037600Y011850D03*
X036600Y011850D03*
X039600Y011850D03*
X040600Y011850D03*
X041600Y011850D03*
X041600Y010850D03*
X040600Y010850D03*
X039600Y010850D03*
D12*
X033600Y006100D03*
X032600Y006100D03*
X031600Y006100D03*
X019850Y001600D03*
X018850Y001600D03*
X016850Y001600D03*
X015850Y001600D03*
X014850Y001600D03*
X013850Y001600D03*
X012850Y001600D03*
X022600Y019350D03*
X023600Y019350D03*
X024600Y019350D03*
X025600Y019350D03*
X026600Y019350D03*
X026600Y020350D03*
X025600Y020350D03*
X024600Y020350D03*
X023600Y020350D03*
X022600Y020350D03*
D13*
X019850Y018100D03*
X018850Y018100D03*
X030100Y021350D03*
X030100Y022350D03*
X034100Y014850D03*
X035100Y014850D03*
X036100Y014850D03*
X037100Y014850D03*
X038100Y014850D03*
X039100Y014850D03*
X040100Y014850D03*
X041100Y014850D03*
X041100Y012850D03*
X040100Y012850D03*
X039100Y012850D03*
X038100Y012850D03*
X037100Y012850D03*
X036100Y012850D03*
X035100Y012850D03*
X034100Y012850D03*
X031600Y008850D03*
X031600Y007850D03*
X019850Y010350D03*
X018850Y010350D03*
X018850Y004600D03*
X019850Y004600D03*
X019850Y002600D03*
X018850Y002600D03*
X016850Y002600D03*
X015850Y002600D03*
X014850Y002600D03*
X013850Y002600D03*
X012850Y002600D03*
X012850Y004600D03*
X013850Y004600D03*
X014850Y004600D03*
X015850Y004600D03*
X016850Y004600D03*
X042600Y017100D03*
X042600Y018100D03*
X042600Y021350D03*
X042600Y022350D03*
D14*
X041600Y021600D02*
X041600Y021350D01*
X041600Y021600D02*
X041350Y021850D01*
X031850Y021850D01*
X031350Y021350D01*
X030100Y021350D01*
X032600Y024350D02*
X032600Y026350D01*
X002850Y026350D01*
X002850Y024100D01*
X000850Y026100D02*
X001100Y026350D01*
X002850Y026350D01*
X000850Y026100D02*
X000850Y016350D01*
X002850Y016350D01*
X000850Y016350D02*
X000850Y005100D01*
X000850Y004100D01*
X009350Y003350D02*
X009850Y002850D01*
X009850Y002100D01*
X009850Y001100D01*
X009350Y003350D02*
X009350Y009100D01*
X009850Y009600D01*
X017600Y009600D01*
X017850Y009850D01*
X017850Y010350D01*
X022600Y005100D02*
X022600Y004100D01*
X031600Y002100D02*
X031600Y001100D01*
X041600Y007850D02*
X041600Y008850D01*
X032600Y010850D02*
X032600Y011850D01*
X017850Y018100D02*
X017850Y018600D01*
X017600Y018850D01*
X016100Y018850D01*
X015850Y018600D01*
X015850Y018100D01*
X032600Y026350D02*
X041350Y026350D01*
X041600Y026100D01*
X041600Y024350D01*
D15*
X040600Y008850D02*
X040600Y007850D01*
X038600Y007850D02*
X038600Y008850D01*
X036600Y008850D02*
X036600Y007850D01*
X034600Y007850D02*
X034600Y008850D01*
X032600Y008850D02*
X032600Y007850D01*
X030600Y002100D02*
X030600Y001100D01*
X029600Y001100D02*
X029600Y002100D01*
X028600Y002100D02*
X028600Y001100D01*
X027600Y001100D02*
X027600Y002100D01*
X026600Y002100D02*
X026600Y001100D01*
X025600Y001100D02*
X025600Y002100D01*
X024600Y002100D02*
X024600Y001100D01*
X023600Y001100D02*
X023600Y002100D01*
X022600Y002100D02*
X022600Y001100D01*
X008850Y001100D02*
X008850Y002100D01*
X007850Y002100D02*
X007850Y001100D01*
X006850Y001100D02*
X006850Y002100D01*
X005850Y002100D02*
X005850Y001100D01*
X004850Y001100D02*
X004850Y002100D01*
X003850Y002100D02*
X003850Y001100D01*
X002850Y001100D02*
X002850Y002100D01*
X001850Y002100D02*
X001850Y001100D01*
X000850Y001100D02*
X000850Y002100D01*
D16*
X001850Y004100D02*
X001850Y005100D01*
X002850Y005100D02*
X002850Y004100D01*
X003850Y004100D02*
X003850Y005100D01*
X004850Y005100D02*
X004850Y004100D01*
X005850Y004100D02*
X005850Y005100D01*
X006850Y005100D02*
X006850Y007100D01*
X006350Y007600D01*
X006350Y019850D01*
X003850Y022350D01*
X003850Y024100D01*
X004850Y024100D02*
X004850Y022350D01*
X007350Y019850D01*
X007350Y007600D01*
X007850Y007100D01*
X007850Y005100D01*
X007850Y004100D01*
X006850Y004100D02*
X006850Y005100D01*
X008850Y005100D02*
X008850Y004100D01*
X009850Y004100D02*
X009850Y005100D01*
X008850Y005100D02*
X008850Y007100D01*
X008350Y007600D01*
X008350Y019850D01*
X005850Y022350D01*
X005850Y024100D01*
X008350Y025100D02*
X008350Y021350D01*
X008850Y020850D01*
X008850Y018100D01*
X010350Y017350D02*
X010850Y017850D01*
X010850Y018100D01*
X010350Y017350D02*
X010350Y015850D01*
X010600Y015600D01*
X019100Y015600D01*
X019600Y016100D01*
X034350Y016100D01*
X034600Y015850D01*
X037350Y015850D01*
X037600Y016100D01*
X037600Y017100D01*
X038100Y016850D02*
X038100Y018100D01*
X037850Y018350D01*
X021600Y018350D01*
X021350Y018600D01*
X021350Y024850D01*
X021100Y025100D01*
X011600Y025100D01*
X011350Y024850D01*
X011350Y021350D01*
X011850Y020850D01*
X011850Y018100D01*
X012850Y018100D02*
X012850Y020850D01*
X012350Y021350D01*
X012350Y024600D01*
X012600Y024850D01*
X020850Y024850D01*
X021100Y024600D01*
X021100Y018350D01*
X021350Y018100D01*
X036850Y018100D01*
X037100Y017850D01*
X037100Y016600D01*
X036850Y016350D01*
X036600Y016350D01*
X036600Y017100D02*
X036600Y017600D01*
X036350Y017850D01*
X021100Y017850D01*
X020850Y018100D01*
X020850Y024350D01*
X020600Y024600D01*
X015100Y024600D01*
X014850Y024350D01*
X014850Y024100D01*
X008600Y025350D02*
X008350Y025100D01*
X008600Y025350D02*
X021350Y025350D01*
X021600Y025100D01*
X021600Y018850D01*
X021850Y018600D01*
X038350Y018600D01*
X038600Y018350D01*
X038600Y017100D01*
X038350Y016600D02*
X038100Y016850D01*
X038350Y016600D02*
X039350Y016600D01*
X039600Y016850D01*
X039600Y017100D01*
X035600Y017100D02*
X035600Y016600D01*
X035350Y016350D01*
X019350Y016350D01*
X018850Y015850D01*
X013600Y015850D01*
X013350Y016100D01*
X013350Y017350D01*
X013850Y017850D01*
X013850Y018100D01*
X015850Y016600D02*
X015850Y016350D01*
X015850Y016600D02*
X016100Y016850D01*
X019100Y016850D01*
X019350Y016600D01*
X034350Y016600D01*
X034600Y016850D01*
X034600Y017100D01*
X033600Y017100D02*
X033600Y017350D01*
X033350Y017600D01*
X017100Y017600D01*
X016850Y017850D01*
X016850Y018100D01*
X024600Y020350D02*
X024600Y022100D01*
X024100Y022600D01*
X024100Y024350D01*
X024100Y024600D01*
X024350Y024850D01*
X028350Y024850D01*
X028600Y024600D01*
X028600Y023350D01*
X027100Y021850D01*
X027100Y021350D01*
X026600Y022100D02*
X026600Y020350D01*
X025600Y020350D02*
X025600Y022100D01*
X025100Y022600D01*
X025100Y024350D01*
X026600Y022100D02*
X028100Y023600D01*
X028100Y024350D01*
X028350Y015600D02*
X033600Y015600D01*
X033100Y015100D02*
X029350Y015100D01*
X029100Y014850D01*
X029100Y010600D01*
X029600Y010100D01*
X029600Y008850D01*
X028600Y008850D02*
X028600Y010100D01*
X028100Y010600D01*
X028100Y015350D01*
X028350Y015600D01*
X027350Y015600D02*
X026350Y015600D01*
X026100Y015350D01*
X026100Y007100D01*
X025600Y006600D01*
X019100Y006600D01*
X018850Y006350D01*
X018850Y004600D01*
X019850Y004600D02*
X019850Y006100D01*
X020100Y006350D01*
X026850Y006350D01*
X027100Y006600D01*
X027100Y010600D01*
X027600Y010600D02*
X027600Y011850D01*
X028600Y011850D02*
X028600Y010600D01*
X029100Y010100D01*
X029100Y003350D01*
X029350Y003100D01*
X030350Y003100D01*
X030600Y002850D01*
X030600Y002100D01*
X028100Y000850D02*
X027850Y000600D01*
X009100Y000600D01*
X008850Y000850D01*
X008850Y001100D01*
X013850Y004600D02*
X013850Y007350D01*
X014100Y007600D01*
X021850Y007600D01*
X022100Y007850D01*
X022100Y010100D01*
X022600Y010600D01*
X022600Y011850D01*
X023600Y011850D02*
X023600Y010600D01*
X023100Y010100D01*
X023100Y007600D01*
X022850Y007350D01*
X015100Y007350D01*
X014850Y007100D01*
X014850Y004600D01*
X015850Y004600D02*
X015850Y006850D01*
X016100Y007100D01*
X023850Y007100D01*
X024100Y007350D01*
X024100Y010100D01*
X024600Y010600D01*
X024600Y011850D01*
X025600Y011850D02*
X025600Y010600D01*
X025100Y010100D01*
X025100Y007100D01*
X024850Y006850D01*
X017100Y006850D01*
X016850Y006600D01*
X016850Y004600D01*
X023600Y005100D02*
X023600Y004100D01*
X024600Y004100D02*
X024600Y005100D01*
X025600Y005100D02*
X025600Y004100D01*
X026600Y004100D02*
X026600Y005100D01*
X027600Y005100D02*
X027600Y004100D01*
X028600Y004100D02*
X028600Y005100D01*
X029600Y005100D02*
X029600Y004100D01*
X030600Y004100D02*
X030600Y005100D01*
X031600Y005100D02*
X031600Y006100D01*
X032600Y006100D02*
X032600Y006850D01*
X032350Y007100D01*
X030350Y007100D01*
X030100Y007350D01*
X030100Y010100D01*
X029600Y010600D01*
X029600Y011850D01*
X028100Y010100D02*
X027600Y010600D01*
X028100Y010100D02*
X028100Y000850D01*
X031600Y004100D02*
X031600Y005100D01*
X033600Y007850D02*
X033600Y008850D01*
X035600Y008850D02*
X035600Y007850D01*
X037600Y007850D02*
X037600Y008850D01*
X039600Y008850D02*
X039600Y007850D01*
X039600Y010850D02*
X039600Y011850D01*
X040600Y011850D02*
X040600Y010850D01*
X041600Y010850D02*
X041600Y011850D01*
X038600Y011850D02*
X038600Y010850D01*
X037600Y010850D02*
X037600Y011850D01*
X036600Y011850D02*
X036600Y010850D01*
X035600Y010850D02*
X035600Y011850D01*
X034600Y011850D02*
X034600Y010850D01*
X033600Y010850D02*
X033600Y011850D01*
D17*
X027350Y015600D03*
X027100Y010600D03*
X036600Y016350D03*
D18*
X033600Y015600D03*
X033100Y015100D03*
M02*
