G75*
%MOIN*%
%OFA0B0*%
%FSLAX24Y24*%
%IPPOS*%
%LPD*%
%AMOC8*
5,1,8,0,0,1.08239X$1,22.5*
%
%ADD10C,0.0480*%
%ADD11OC8,0.0600*%
%ADD12OC8,0.0480*%
%ADD13C,0.0240*%
%ADD14C,0.0120*%
%ADD15C,0.0354*%
%ADD16C,0.0472*%
D10*
X000850Y001100D03*
X000850Y002100D03*
X001850Y002100D03*
X002850Y002100D03*
X003850Y002100D03*
X003850Y001100D03*
X002850Y001100D03*
X001850Y001100D03*
X004850Y001100D03*
X005850Y001100D03*
X006850Y001100D03*
X007850Y001100D03*
X007850Y002100D03*
X006850Y002100D03*
X005850Y002100D03*
X004850Y002100D03*
X004850Y004100D03*
X005850Y004100D03*
X006850Y004100D03*
X007850Y004100D03*
X007850Y005100D03*
X006850Y005100D03*
X005850Y005100D03*
X004850Y005100D03*
X003850Y005100D03*
X002850Y005100D03*
X001850Y005100D03*
X001850Y004100D03*
X002850Y004100D03*
X003850Y004100D03*
X000850Y004100D03*
X000850Y005100D03*
X008850Y005100D03*
X009850Y005100D03*
X009850Y004100D03*
X008850Y004100D03*
X008850Y002100D03*
X009850Y002100D03*
X009850Y001100D03*
X008850Y001100D03*
X021600Y008850D03*
X022600Y008850D03*
X023600Y008850D03*
X024600Y008850D03*
X025600Y008850D03*
X026600Y008850D03*
X027600Y008850D03*
X028600Y008850D03*
X029600Y008850D03*
X030600Y008850D03*
X032600Y008850D03*
X033600Y008850D03*
X034600Y008850D03*
X035600Y008850D03*
X036600Y008850D03*
X037600Y008850D03*
X038600Y008850D03*
X039600Y008850D03*
X040600Y008850D03*
X041600Y008850D03*
X041600Y007850D03*
X040600Y007850D03*
X039600Y007850D03*
X038600Y007850D03*
X037600Y007850D03*
X036600Y007850D03*
X035600Y007850D03*
X034600Y007850D03*
X033600Y007850D03*
X032600Y007850D03*
X031600Y005100D03*
X030600Y005100D03*
X029600Y005100D03*
X028600Y005100D03*
X028600Y004100D03*
X029600Y004100D03*
X030600Y004100D03*
X031600Y004100D03*
X031600Y002100D03*
X030600Y002100D03*
X029600Y002100D03*
X028600Y002100D03*
X028600Y001100D03*
X029600Y001100D03*
X030600Y001100D03*
X031600Y001100D03*
X027600Y001100D03*
X026600Y001100D03*
X025600Y001100D03*
X025600Y002100D03*
X026600Y002100D03*
X027600Y002100D03*
X024600Y002100D03*
X023600Y002100D03*
X022600Y002100D03*
X022600Y001100D03*
X023600Y001100D03*
X024600Y001100D03*
X024600Y004100D03*
X023600Y004100D03*
X022600Y004100D03*
X022600Y005100D03*
X023600Y005100D03*
X024600Y005100D03*
X025600Y005100D03*
X026600Y005100D03*
X027600Y005100D03*
X027600Y004100D03*
X026600Y004100D03*
X025600Y004100D03*
X017850Y010350D03*
X016850Y010350D03*
X015850Y010350D03*
X014850Y010350D03*
X013850Y010350D03*
X012850Y010350D03*
X011850Y010350D03*
X010850Y010350D03*
X009850Y010350D03*
X008850Y010350D03*
X007850Y010350D03*
X006850Y010350D03*
X005850Y010350D03*
X004850Y010350D03*
X003850Y010350D03*
X002850Y010350D03*
X002850Y016350D03*
X003850Y016350D03*
X004850Y016350D03*
X005850Y016350D03*
X006850Y016350D03*
X007850Y016350D03*
X008850Y016350D03*
X009850Y016350D03*
X010850Y016350D03*
X011850Y016350D03*
X012850Y016350D03*
X013850Y016350D03*
X014850Y016350D03*
X015850Y016350D03*
X016850Y016350D03*
X017850Y016350D03*
X017850Y018100D03*
X016850Y018100D03*
X015850Y018100D03*
X014850Y018100D03*
X013850Y018100D03*
X012850Y018100D03*
X011850Y018100D03*
X010850Y018100D03*
X009850Y018100D03*
X008850Y018100D03*
X007850Y018100D03*
X006850Y018100D03*
X005850Y018100D03*
X004850Y018100D03*
X003850Y018100D03*
X002850Y018100D03*
X002850Y024100D03*
X003850Y024100D03*
X004850Y024100D03*
X005850Y024100D03*
X006850Y024100D03*
X007850Y024100D03*
X008850Y024100D03*
X009850Y024100D03*
X010850Y024100D03*
X011850Y024100D03*
X012850Y024100D03*
X013850Y024100D03*
X014850Y024100D03*
X015850Y024100D03*
X016850Y024100D03*
X017850Y024100D03*
X023100Y024350D03*
X024100Y024350D03*
X025100Y024350D03*
X026100Y024350D03*
X027100Y024350D03*
X028100Y024350D03*
X029100Y024350D03*
X032600Y024350D03*
X033600Y024350D03*
X034600Y024350D03*
X035600Y024350D03*
X036600Y024350D03*
X037600Y024350D03*
X038600Y024350D03*
X039600Y024350D03*
X040600Y024350D03*
X041600Y024350D03*
X041600Y021350D03*
X040600Y021350D03*
X039600Y021350D03*
X038600Y021350D03*
X037600Y021350D03*
X036600Y021350D03*
X035600Y021350D03*
X034600Y021350D03*
X033600Y021350D03*
X032600Y021350D03*
X032600Y020100D03*
X033600Y020100D03*
X034600Y020100D03*
X035600Y020100D03*
X036600Y020100D03*
X037600Y020100D03*
X038600Y020100D03*
X039600Y020100D03*
X040600Y020100D03*
X041600Y020100D03*
X041600Y017100D03*
X040600Y017100D03*
X039600Y017100D03*
X038600Y017100D03*
X037600Y017100D03*
X036600Y017100D03*
X035600Y017100D03*
X034600Y017100D03*
X033600Y017100D03*
X032600Y017100D03*
X029100Y021350D03*
X028100Y021350D03*
X027100Y021350D03*
X026100Y021350D03*
X025100Y021350D03*
X024100Y021350D03*
X023100Y021350D03*
X022600Y011850D03*
X021600Y011850D03*
X023600Y011850D03*
X024600Y011850D03*
X025600Y011850D03*
X026600Y011850D03*
X027600Y011850D03*
X028600Y011850D03*
X029600Y011850D03*
X030600Y011850D03*
X032600Y011850D03*
X033600Y011850D03*
X034600Y011850D03*
X035600Y011850D03*
X035600Y010850D03*
X034600Y010850D03*
X033600Y010850D03*
X032600Y010850D03*
X036600Y010850D03*
X037600Y010850D03*
X038600Y010850D03*
X038600Y011850D03*
X037600Y011850D03*
X036600Y011850D03*
X039600Y011850D03*
X040600Y011850D03*
X041600Y011850D03*
X041600Y010850D03*
X040600Y010850D03*
X039600Y010850D03*
D11*
X033600Y006100D03*
X032600Y006100D03*
X031600Y006100D03*
X019850Y001600D03*
X018850Y001600D03*
X016850Y001600D03*
X015850Y001600D03*
X014850Y001600D03*
X013850Y001600D03*
X012850Y001600D03*
X022600Y019350D03*
X023600Y019350D03*
X024600Y019350D03*
X025600Y019350D03*
X026600Y019350D03*
X026600Y020350D03*
X025600Y020350D03*
X024600Y020350D03*
X023600Y020350D03*
X022600Y020350D03*
D12*
X019850Y018100D03*
X018850Y018100D03*
X030100Y021350D03*
X030100Y022350D03*
X034100Y014850D03*
X035100Y014850D03*
X036100Y014850D03*
X037100Y014850D03*
X038100Y014850D03*
X039100Y014850D03*
X040100Y014850D03*
X041100Y014850D03*
X041100Y012850D03*
X040100Y012850D03*
X039100Y012850D03*
X038100Y012850D03*
X037100Y012850D03*
X036100Y012850D03*
X035100Y012850D03*
X034100Y012850D03*
X031600Y008850D03*
X031600Y007850D03*
X019850Y010350D03*
X018850Y010350D03*
X018850Y004600D03*
X019850Y004600D03*
X019850Y002600D03*
X018850Y002600D03*
X016850Y002600D03*
X015850Y002600D03*
X014850Y002600D03*
X013850Y002600D03*
X012850Y002600D03*
X012850Y004600D03*
X013850Y004600D03*
X014850Y004600D03*
X015850Y004600D03*
X016850Y004600D03*
X042600Y017100D03*
X042600Y018100D03*
X042600Y021350D03*
X042600Y022350D03*
D13*
X042600Y024100D01*
X042350Y024350D01*
X041600Y024350D01*
X041600Y023100D01*
X041100Y022600D01*
X041100Y021100D01*
X041600Y020600D01*
X041600Y020100D01*
X041600Y018350D01*
X041850Y018100D01*
X042600Y018100D01*
X043100Y017850D02*
X043100Y020100D01*
X042600Y020600D01*
X042600Y021350D01*
X041600Y021350D01*
X043100Y017850D02*
X042600Y017350D01*
X042600Y017100D01*
X041600Y017100D01*
X041600Y015350D01*
X042100Y014850D01*
X042100Y010100D01*
X041600Y009600D01*
X041600Y008850D01*
X041600Y007850D01*
X041600Y007100D01*
X031850Y007100D01*
X031600Y007350D01*
X031600Y007850D01*
X030600Y008850D01*
X031600Y008850D02*
X031600Y011350D01*
X032100Y011850D01*
X032350Y011850D01*
X032600Y012100D01*
X032600Y011850D01*
X032600Y010850D01*
X032600Y012100D02*
X032600Y015100D01*
X032100Y015600D01*
X032100Y017600D01*
X032600Y018100D01*
X032600Y020100D01*
X032600Y020600D01*
X032100Y021100D01*
X032100Y022600D01*
X032600Y023100D01*
X032600Y023600D01*
X032600Y024350D01*
X032600Y023600D02*
X030100Y023600D01*
X030100Y022350D01*
X030100Y021350D02*
X029100Y021350D01*
X030100Y023600D02*
X023100Y023600D01*
X023100Y024350D01*
X023100Y023600D02*
X020100Y023600D01*
X019850Y023350D01*
X019850Y018100D01*
X019850Y011850D01*
X021600Y011850D01*
X019850Y011850D02*
X019850Y010350D01*
X018850Y010350D02*
X017850Y010350D01*
X018850Y010350D02*
X018850Y016350D01*
X017850Y016350D01*
X018850Y016350D02*
X018850Y018100D01*
X018850Y023850D01*
X018600Y024100D01*
X017850Y024100D01*
X017850Y018100D02*
X018850Y018100D01*
X015850Y018100D02*
X015850Y017850D01*
X015350Y017350D01*
X015350Y013600D01*
X015850Y013100D01*
X015850Y010350D01*
X010350Y002100D02*
X009850Y002100D01*
X010350Y002100D02*
X011850Y000600D01*
X041350Y000600D01*
X041600Y000850D01*
X041600Y007100D01*
D14*
X039600Y007850D02*
X039600Y008850D01*
X039600Y009100D01*
X039850Y009350D01*
X040850Y009350D01*
X041100Y009600D01*
X041100Y012850D01*
X040100Y012850D02*
X040100Y009850D01*
X039850Y009600D01*
X037850Y009600D01*
X037600Y009350D01*
X037600Y008850D01*
X037600Y007850D01*
X035600Y007850D02*
X035600Y008850D01*
X035600Y009600D01*
X035850Y009850D01*
X038850Y009850D01*
X039100Y010100D01*
X039100Y012850D01*
X038100Y012850D02*
X038100Y010350D01*
X037850Y010100D01*
X033850Y010100D01*
X033600Y009850D01*
X033600Y008850D01*
X033600Y007850D01*
X033600Y006100D02*
X033600Y003350D01*
X033350Y003100D01*
X013100Y003100D01*
X012850Y003350D01*
X012850Y004600D01*
X012850Y002600D02*
X012850Y001600D01*
X013850Y001600D02*
X013850Y002600D01*
X014850Y002600D02*
X014850Y001600D01*
X015850Y001600D02*
X015850Y002600D01*
X016850Y002600D02*
X016850Y001600D01*
X018850Y001600D02*
X018850Y002600D01*
X019850Y002600D02*
X019850Y001600D01*
X023600Y004100D02*
X023600Y005100D01*
X023600Y005350D01*
X023350Y005600D01*
X007350Y005600D01*
X005850Y007100D01*
X002100Y007100D01*
X001850Y007350D01*
X001850Y017100D01*
X002100Y017350D01*
X005600Y017350D01*
X005850Y017100D01*
X005850Y016350D01*
X004850Y016350D02*
X004850Y016850D01*
X004600Y017100D01*
X002350Y017100D01*
X002100Y016850D01*
X002100Y007600D01*
X002350Y007350D01*
X006100Y007350D01*
X007600Y005850D01*
X024350Y005850D01*
X024600Y005600D01*
X024600Y005100D01*
X024600Y004100D01*
X025600Y004100D02*
X025600Y005100D01*
X025600Y005850D01*
X025350Y006100D01*
X007850Y006100D01*
X006350Y007600D01*
X002600Y007600D01*
X002350Y007850D01*
X002350Y016600D01*
X002600Y016850D01*
X003600Y016850D01*
X003850Y016600D01*
X003850Y016350D01*
X001850Y018100D02*
X001600Y017850D01*
X001600Y007100D01*
X001850Y006850D01*
X005600Y006850D01*
X005850Y006600D01*
X005850Y005100D01*
X005850Y004100D01*
X004850Y004100D02*
X004850Y005100D01*
X004850Y006350D01*
X004600Y006600D01*
X001600Y006600D01*
X001350Y006850D01*
X001350Y018350D01*
X001600Y018600D01*
X003600Y018600D01*
X003850Y018350D01*
X003850Y018100D01*
X002850Y018100D02*
X001850Y018100D01*
X001100Y018600D02*
X001350Y018850D01*
X004600Y018850D01*
X004850Y018600D01*
X004850Y018100D01*
X005850Y018100D02*
X005850Y018850D01*
X005600Y019100D01*
X001100Y019100D01*
X000850Y018850D01*
X000850Y006350D01*
X001100Y006100D01*
X002600Y006100D01*
X002850Y005850D01*
X002850Y005100D01*
X002850Y004100D01*
X001850Y004100D02*
X001850Y005100D01*
X001850Y005600D01*
X001600Y005850D01*
X000850Y005850D01*
X000600Y006100D01*
X000600Y019100D01*
X000850Y019350D01*
X006600Y019350D01*
X006850Y019100D01*
X006850Y018100D01*
X007350Y017850D02*
X006850Y017350D01*
X006850Y016350D01*
X007850Y016350D02*
X007850Y017350D01*
X008350Y017850D01*
X008350Y020850D01*
X007850Y021350D01*
X007850Y024100D01*
X007850Y026100D01*
X008100Y026350D01*
X039850Y026350D01*
X040100Y026100D01*
X040100Y023100D01*
X039600Y022600D01*
X039600Y021350D01*
X040100Y021100D02*
X040600Y020600D01*
X040600Y020100D01*
X040600Y018850D01*
X041100Y018350D01*
X041100Y014850D01*
X040600Y014600D02*
X040350Y014350D01*
X036850Y014350D01*
X036600Y014600D01*
X036600Y016350D01*
X036100Y014850D02*
X036100Y018350D01*
X035600Y018850D01*
X035600Y020100D01*
X035600Y020600D01*
X035100Y021100D01*
X035100Y022600D01*
X035600Y023100D01*
X035600Y024350D01*
X035100Y024850D02*
X034850Y025100D01*
X013100Y025100D01*
X012850Y024850D01*
X012850Y024100D01*
X012850Y021350D01*
X013350Y020850D01*
X013350Y017850D01*
X012850Y017350D01*
X012850Y016350D01*
X013850Y016350D02*
X013850Y017350D01*
X014350Y017850D01*
X014350Y020850D01*
X013850Y021350D01*
X013850Y024100D01*
X013850Y024600D01*
X014100Y024850D01*
X033850Y024850D01*
X034100Y024600D01*
X034100Y023100D01*
X033600Y022600D01*
X033600Y021350D01*
X033100Y021100D02*
X033600Y020600D01*
X033600Y020100D01*
X033600Y018850D01*
X034100Y018350D01*
X034100Y014850D01*
X035100Y014850D02*
X035100Y018350D01*
X034600Y018850D01*
X034600Y020100D01*
X034600Y020600D01*
X034100Y021100D01*
X034100Y022600D01*
X034600Y023100D01*
X034600Y024350D01*
X035100Y024850D02*
X035100Y023100D01*
X034600Y022600D01*
X034600Y021350D01*
X035600Y021350D02*
X035600Y022600D01*
X036100Y023100D01*
X036100Y025100D01*
X035850Y025350D01*
X012100Y025350D01*
X011850Y025100D01*
X011850Y024100D01*
X011850Y021350D01*
X012350Y020850D01*
X012350Y017850D01*
X011850Y017350D01*
X011850Y016350D01*
X010850Y016350D02*
X010850Y017350D01*
X011350Y017850D01*
X011350Y020850D01*
X010850Y021350D01*
X010850Y024100D01*
X010850Y025350D01*
X011100Y025600D01*
X036850Y025600D01*
X037100Y025350D01*
X037100Y023100D01*
X036600Y022600D01*
X036600Y021350D01*
X036100Y021100D02*
X036600Y020600D01*
X036600Y020100D01*
X036600Y018850D01*
X037100Y018350D01*
X037100Y014850D01*
X038100Y014850D02*
X038100Y018350D01*
X037600Y018850D01*
X037600Y020100D01*
X037600Y020600D01*
X037100Y021100D01*
X037100Y022600D01*
X037600Y023100D01*
X037600Y024350D01*
X036600Y024350D02*
X036600Y023100D01*
X036100Y022600D01*
X036100Y021100D01*
X037600Y021350D02*
X037600Y022600D01*
X038100Y023100D01*
X038100Y025600D01*
X037850Y025850D01*
X010100Y025850D01*
X009850Y025600D01*
X009850Y024100D01*
X009850Y021350D01*
X010350Y020850D01*
X010350Y017850D01*
X009850Y017350D01*
X009850Y016350D01*
X008850Y016350D02*
X008850Y017350D01*
X009350Y017850D01*
X009350Y020850D01*
X008850Y021350D01*
X008850Y024100D01*
X008850Y025850D01*
X009100Y026100D01*
X038850Y026100D01*
X039100Y025850D01*
X039100Y023100D01*
X038600Y022600D01*
X038600Y021350D01*
X038100Y021100D02*
X038600Y020600D01*
X038600Y020100D01*
X038600Y018850D01*
X039100Y018350D01*
X039100Y014850D01*
X040100Y014850D02*
X040100Y018350D01*
X039600Y018850D01*
X039600Y020100D01*
X039600Y020600D01*
X039100Y021100D01*
X039100Y022600D01*
X039600Y023100D01*
X039600Y024350D01*
X040600Y024350D02*
X040600Y023100D01*
X040100Y022600D01*
X040100Y021100D01*
X040600Y021350D02*
X040600Y022600D01*
X041100Y023100D01*
X041100Y026350D01*
X040850Y026600D01*
X007100Y026600D01*
X006850Y026350D01*
X006850Y024100D01*
X006850Y021350D01*
X007350Y020850D01*
X007350Y017850D01*
X007350Y017350D02*
X007350Y011850D01*
X008350Y010850D01*
X008350Y009100D01*
X009600Y007850D01*
X025350Y007850D01*
X025600Y008100D01*
X025600Y008850D01*
X026600Y008850D02*
X026600Y007850D01*
X026350Y007600D01*
X009350Y007600D01*
X007850Y009100D01*
X007850Y010350D01*
X006850Y010350D02*
X006850Y009100D01*
X007100Y008850D01*
X007600Y008850D01*
X009100Y007350D01*
X030350Y007350D01*
X030600Y007100D01*
X030600Y005100D01*
X030600Y004100D01*
X029600Y004100D02*
X029600Y005100D01*
X029600Y006850D01*
X029350Y007100D01*
X008850Y007100D01*
X007350Y008600D01*
X006100Y008600D01*
X005850Y008850D01*
X005850Y010350D01*
X004850Y010350D02*
X004850Y008600D01*
X005100Y008350D01*
X007100Y008350D01*
X008600Y006850D01*
X028350Y006850D01*
X028600Y006600D01*
X028600Y005100D01*
X028600Y004100D01*
X027600Y004100D02*
X027600Y005100D01*
X027600Y006350D01*
X027350Y006600D01*
X008350Y006600D01*
X006850Y008100D01*
X004100Y008100D01*
X003850Y008350D01*
X003850Y010350D01*
X002850Y010350D02*
X002850Y008100D01*
X003100Y007850D01*
X006600Y007850D01*
X008100Y006350D01*
X026350Y006350D01*
X026600Y006100D01*
X026600Y005100D01*
X026600Y004100D01*
X024350Y008100D02*
X024600Y008350D01*
X024600Y008850D01*
X023600Y008850D02*
X023600Y009350D01*
X023350Y009600D01*
X021100Y009600D01*
X020350Y008850D01*
X015100Y008850D01*
X014850Y009100D01*
X014850Y010350D01*
X013850Y010350D02*
X013850Y013350D01*
X013350Y013850D01*
X013350Y017350D01*
X013850Y017850D01*
X013850Y018100D01*
X014350Y017350D02*
X014850Y017850D01*
X014850Y018100D01*
X015350Y017850D02*
X014850Y017350D01*
X014850Y016350D01*
X015850Y016350D02*
X015850Y017350D01*
X016350Y017850D01*
X016350Y020850D01*
X015850Y021350D01*
X015850Y024100D01*
X016850Y024100D02*
X016850Y021600D01*
X017350Y021100D01*
X017350Y017850D01*
X016850Y017350D01*
X016850Y016350D01*
X016850Y013600D01*
X017350Y013100D01*
X017350Y010100D01*
X017600Y009850D01*
X027350Y009850D01*
X027600Y009600D01*
X027600Y008850D01*
X027100Y010600D02*
X030350Y010600D01*
X030600Y010850D01*
X030600Y011850D01*
X033600Y011850D02*
X033600Y010850D01*
X033600Y011850D02*
X033600Y012100D01*
X033850Y012350D01*
X034350Y012350D01*
X034600Y012600D01*
X034600Y013350D01*
X034850Y013600D01*
X036850Y013600D01*
X037100Y013350D01*
X037100Y012850D01*
X036600Y012600D02*
X036850Y012350D01*
X037350Y012350D01*
X037600Y012100D01*
X037600Y011850D01*
X036600Y012600D02*
X036600Y013100D01*
X036350Y013350D01*
X035350Y013350D01*
X035100Y013100D01*
X035100Y012850D01*
X034100Y012850D02*
X034100Y013600D01*
X034350Y013850D01*
X039350Y013850D01*
X039600Y013600D01*
X039600Y011850D01*
X036100Y012600D02*
X036100Y012850D01*
X036100Y012600D02*
X035600Y012100D01*
X035600Y011850D01*
X035600Y010850D01*
X040600Y014600D02*
X040600Y017100D01*
X038100Y021100D02*
X038100Y022600D01*
X038600Y023100D01*
X038600Y024350D01*
X033600Y024350D02*
X033600Y023100D01*
X033100Y022600D01*
X033100Y021100D01*
X032600Y021100D02*
X032600Y021350D01*
X032600Y021100D02*
X033100Y020600D01*
X033100Y016350D01*
X033600Y015850D01*
X033600Y015600D01*
X033100Y015350D02*
X032600Y015850D01*
X032600Y017100D01*
X033100Y015350D02*
X033100Y015100D01*
X027350Y015600D02*
X027350Y020100D01*
X027100Y020350D01*
X026600Y020350D01*
X026100Y021350D02*
X025100Y021350D01*
X024100Y021350D01*
X024100Y021100D01*
X023600Y020600D01*
X023600Y020350D01*
X023100Y021100D02*
X023100Y021350D01*
X023100Y021100D02*
X022600Y020600D01*
X022600Y020350D01*
X022600Y019350D02*
X023600Y019350D01*
X024600Y019350D01*
X025600Y019350D01*
X026600Y019350D01*
X026600Y011850D01*
X022600Y009100D02*
X022600Y008850D01*
X022600Y009100D02*
X022350Y009350D01*
X021350Y009350D01*
X020600Y008600D01*
X014600Y008600D01*
X014350Y008850D01*
X014350Y017350D01*
X015350Y017850D02*
X015350Y020850D01*
X014850Y021350D01*
X014850Y024100D01*
X012850Y018100D02*
X012850Y017850D01*
X012350Y017350D01*
X012350Y013600D01*
X012850Y013100D01*
X012850Y010350D01*
X011850Y010350D02*
X011850Y013100D01*
X011350Y013600D01*
X011350Y017350D01*
X011850Y017850D01*
X011850Y018100D01*
X010850Y018100D02*
X010850Y017850D01*
X010350Y017350D01*
X010350Y013600D01*
X010850Y013100D01*
X010850Y010350D01*
X009850Y010350D02*
X009850Y008350D01*
X010100Y008100D01*
X024350Y008100D01*
X016850Y010350D02*
X016850Y013100D01*
X016350Y013600D01*
X016350Y017350D01*
X016850Y017850D01*
X016850Y018100D01*
X009850Y018100D02*
X009850Y017850D01*
X009350Y017350D01*
X009350Y013600D01*
X009850Y013100D01*
X009850Y010350D01*
X008850Y010350D02*
X008850Y013100D01*
X008350Y013600D01*
X008350Y017350D01*
X008850Y017850D01*
X008850Y018100D01*
X007850Y018100D02*
X007850Y017850D01*
X007350Y017350D01*
X001100Y018600D02*
X001100Y006600D01*
X001350Y006350D01*
X003600Y006350D01*
X003850Y006100D01*
X003850Y005100D01*
X003850Y004100D01*
X027100Y021350D02*
X028100Y021350D01*
X028100Y024350D02*
X029100Y024350D01*
X027100Y024350D02*
X026100Y024350D01*
X025100Y024350D01*
D15*
X036600Y016350D03*
X027350Y015600D03*
X027100Y010600D03*
D16*
X033100Y015100D03*
X033600Y015600D03*
M02*
