G75*
%MOIN*%
%OFA0B0*%
%FSLAX24Y24*%
%IPPOS*%
%LPD*%
%AMOC8*
5,1,8,0,0,1.08239X$1,22.5*
%
%ADD10C,0.0480*%
%ADD11OC8,0.0480*%
%ADD12C,0.0240*%
%ADD13C,0.0120*%
D10*
X001100Y001783D03*
X001100Y002783D03*
X001100Y003783D03*
X001100Y004783D03*
X001100Y005783D03*
X001100Y006783D03*
X001100Y007783D03*
X001100Y008783D03*
X001100Y009783D03*
X001100Y010783D03*
X001100Y011783D03*
X001100Y014783D03*
X001100Y015783D03*
X001100Y016783D03*
X001100Y017783D03*
X001100Y018783D03*
X001100Y019783D03*
X001100Y020783D03*
X001100Y021783D03*
X001100Y022783D03*
X001100Y023783D03*
X001100Y024783D03*
X005100Y024783D03*
X005100Y023783D03*
X005100Y022783D03*
X005100Y021783D03*
X005100Y020783D03*
X005100Y019783D03*
X005100Y018783D03*
X005100Y017783D03*
X005100Y016783D03*
X005100Y015783D03*
X005100Y014783D03*
X006350Y017283D03*
X006350Y018283D03*
X006350Y019283D03*
X006350Y020283D03*
X006350Y021283D03*
X006350Y022283D03*
X006350Y023283D03*
X006350Y024283D03*
X006350Y025283D03*
X006350Y026283D03*
X009350Y026283D03*
X009350Y025283D03*
X009350Y024283D03*
X009350Y023283D03*
X009350Y022283D03*
X009350Y021283D03*
X009350Y020283D03*
X009350Y019283D03*
X009350Y018283D03*
X009350Y017283D03*
X010600Y017283D03*
X010600Y018283D03*
X010600Y019283D03*
X010600Y020283D03*
X010600Y021283D03*
X010600Y022283D03*
X010600Y023283D03*
X010600Y024283D03*
X010600Y025283D03*
X010600Y026283D03*
X013600Y026283D03*
X013600Y025283D03*
X013600Y024283D03*
X013600Y023283D03*
X013600Y022283D03*
X013600Y021283D03*
X013600Y020283D03*
X013600Y019283D03*
X013600Y018283D03*
X013600Y017283D03*
X012850Y014533D03*
X012850Y014533D03*
X012850Y013533D03*
X012850Y013533D03*
X012850Y012533D03*
X012850Y012533D03*
X012850Y011533D03*
X012850Y011533D03*
X012850Y010533D03*
X012850Y010533D03*
X012850Y009533D03*
X012850Y009533D03*
X012850Y008533D03*
X012850Y008533D03*
X012850Y007533D03*
X012850Y007533D03*
X012850Y006533D03*
X012850Y006533D03*
X012850Y005533D03*
X012850Y005533D03*
X012850Y004533D03*
X012850Y004533D03*
X012850Y003533D03*
X012850Y003533D03*
X012850Y002533D03*
X012850Y002533D03*
X012850Y001533D03*
X012850Y001533D03*
X009850Y001533D03*
X009850Y002533D03*
X009850Y003533D03*
X009850Y004533D03*
X009850Y005533D03*
X009850Y006533D03*
X009850Y007533D03*
X009850Y008533D03*
X009850Y009533D03*
X009850Y010533D03*
X009850Y011533D03*
X009850Y012533D03*
X009850Y013533D03*
X009850Y014533D03*
X006850Y014533D03*
X006850Y013533D03*
X006850Y012533D03*
X006850Y011533D03*
X006850Y010533D03*
X006850Y009533D03*
X006850Y008533D03*
X006850Y007533D03*
X006850Y006533D03*
X006850Y005533D03*
X006850Y004533D03*
X006850Y003533D03*
X006850Y002533D03*
X006850Y001533D03*
X005100Y001783D03*
X005100Y002783D03*
X005100Y003783D03*
X005100Y004783D03*
X005100Y005783D03*
X005100Y006783D03*
X005100Y007783D03*
X005100Y008783D03*
X005100Y009783D03*
X005100Y010783D03*
X005100Y011783D03*
D11*
X009350Y016283D03*
X010350Y016283D03*
X012600Y016283D03*
X013600Y016283D03*
X013600Y002033D03*
X013600Y001033D03*
D12*
X011850Y001033D01*
X011350Y001533D01*
X009850Y001533D01*
X006850Y001533D01*
X005600Y001533D01*
X005350Y001283D01*
X003850Y001283D01*
X003350Y001783D01*
X001100Y001783D01*
X005100Y008783D02*
X005350Y008783D01*
X005600Y008533D01*
X006850Y008533D01*
X009850Y008533D01*
X010350Y008533D01*
X010600Y008283D01*
X010600Y006783D01*
X010350Y006533D01*
X009850Y006533D01*
X006850Y006533D01*
X006850Y005533D01*
X009850Y005533D01*
X009850Y004533D02*
X006850Y004533D01*
X006850Y005533D01*
X006850Y003533D02*
X009850Y003533D01*
X012850Y002533D02*
X012850Y002033D01*
X013600Y002033D01*
X012850Y002033D02*
X012850Y001533D01*
X009850Y009533D02*
X006850Y009533D01*
X010600Y015783D02*
X010350Y016033D01*
X010350Y016283D01*
X010600Y015783D02*
X013600Y015783D01*
X013600Y014783D01*
X013350Y014533D01*
X012850Y014533D01*
X013600Y015783D02*
X013600Y016283D01*
X013600Y017283D01*
X012600Y017033D02*
X012600Y016283D01*
X012600Y017033D02*
X012350Y017283D01*
X010600Y017283D01*
X009350Y017283D01*
X009350Y016283D01*
X010100Y025783D02*
X011600Y025783D01*
X012100Y026283D01*
X013600Y026283D01*
X010100Y025783D02*
X009600Y026283D01*
X009350Y026283D01*
D13*
X009600Y025783D02*
X010100Y025283D01*
X010600Y025283D01*
X010100Y024783D02*
X011850Y024783D01*
X012350Y025283D01*
X013600Y025283D01*
X013600Y024283D02*
X012350Y024283D01*
X011850Y023783D01*
X010100Y023783D01*
X009600Y024283D01*
X009350Y024283D01*
X009600Y023783D02*
X010100Y023283D01*
X010600Y023283D01*
X010100Y022783D02*
X011850Y022783D01*
X012350Y023283D01*
X013600Y023283D01*
X014600Y023283D01*
X014850Y023033D01*
X014850Y011283D01*
X014600Y011033D01*
X010850Y011033D01*
X010350Y010533D01*
X009850Y010533D01*
X006850Y010533D01*
X006350Y010033D02*
X006350Y015033D01*
X006600Y015283D01*
X008100Y015283D01*
X008350Y015533D01*
X008350Y019533D01*
X008600Y019783D01*
X009600Y019783D01*
X010100Y019283D01*
X010600Y019283D01*
X010100Y018783D02*
X011850Y018783D01*
X012350Y019283D01*
X013600Y019283D01*
X013600Y018283D02*
X013850Y018283D01*
X014100Y018033D01*
X014100Y014283D01*
X013850Y014033D01*
X012600Y014033D01*
X012350Y013783D01*
X012350Y011783D01*
X012600Y011533D01*
X012850Y011533D01*
X012850Y012533D02*
X014350Y012533D01*
X014600Y012783D01*
X014600Y021033D01*
X014350Y021283D01*
X013600Y021283D01*
X012350Y021283D01*
X011850Y020783D01*
X010100Y020783D01*
X009600Y021283D01*
X009350Y021283D01*
X009600Y020783D02*
X010100Y020283D01*
X010600Y020283D01*
X010100Y019783D02*
X011850Y019783D01*
X012350Y020283D01*
X013600Y020283D01*
X014100Y020283D01*
X014350Y020033D01*
X014350Y013783D01*
X014100Y013533D01*
X012850Y013533D01*
X012850Y010533D02*
X011850Y010533D01*
X010350Y009033D01*
X005600Y009033D01*
X005350Y009283D01*
X004850Y009283D01*
X004600Y009033D01*
X004600Y005033D01*
X004850Y004783D01*
X005100Y004783D01*
X005350Y004283D02*
X005600Y004533D01*
X005600Y007283D01*
X005850Y007533D01*
X006850Y007533D01*
X009850Y007533D01*
X011600Y009283D02*
X011600Y004283D01*
X011350Y004033D01*
X005600Y004033D01*
X005350Y003783D01*
X005100Y003783D01*
X005350Y004283D02*
X004600Y004283D01*
X004350Y004533D01*
X004350Y005783D01*
X004350Y011033D01*
X004600Y011283D01*
X005600Y011283D01*
X005850Y011533D01*
X005850Y015533D01*
X006100Y015783D01*
X007600Y015783D01*
X007850Y016033D01*
X007850Y018033D01*
X007600Y018283D01*
X006350Y018283D01*
X006350Y019283D02*
X007850Y019283D01*
X008100Y019033D01*
X008100Y015783D01*
X007850Y015533D01*
X006350Y015533D01*
X006100Y015283D01*
X006100Y011033D01*
X005850Y010783D01*
X005100Y010783D01*
X005100Y009783D02*
X006100Y009783D01*
X006350Y010033D01*
X006850Y011533D02*
X009850Y011533D01*
X009850Y012533D02*
X006850Y012533D01*
X006850Y013533D02*
X009850Y013533D01*
X009850Y014533D02*
X006850Y014533D01*
X005350Y018283D02*
X005600Y018533D01*
X005600Y019033D01*
X005850Y019283D01*
X005850Y019533D01*
X006100Y019783D01*
X007600Y019783D01*
X008600Y020783D01*
X009600Y020783D01*
X009600Y020283D02*
X009350Y020283D01*
X009600Y020283D02*
X010100Y019783D01*
X009600Y019283D02*
X010100Y018783D01*
X009600Y018283D02*
X010100Y017783D01*
X011600Y017783D01*
X012100Y018283D01*
X013600Y018283D01*
X011850Y021783D02*
X012350Y022283D01*
X013600Y022283D01*
X011850Y021783D02*
X010100Y021783D01*
X009600Y022283D01*
X009350Y022283D01*
X009600Y021783D02*
X010100Y021283D01*
X010600Y021283D01*
X010100Y022783D02*
X009600Y023283D01*
X009350Y023283D01*
X009600Y023783D02*
X008100Y023783D01*
X007100Y022783D01*
X005100Y022783D01*
X005100Y023783D02*
X005600Y023783D01*
X006100Y023283D01*
X006350Y023283D01*
X006350Y022283D02*
X003600Y022283D01*
X003350Y022033D01*
X003350Y020783D01*
X003100Y020533D01*
X002100Y020533D01*
X001850Y020283D01*
X001850Y012033D01*
X001600Y011783D01*
X001100Y011783D01*
X001100Y010783D02*
X001850Y010783D01*
X002100Y011033D01*
X002100Y020033D01*
X002350Y020283D01*
X003350Y020283D01*
X003600Y020533D01*
X003600Y021033D01*
X003850Y021283D01*
X005350Y021283D01*
X005850Y021783D01*
X009600Y021783D01*
X009600Y019283D02*
X009350Y019283D01*
X009350Y018283D02*
X009600Y018283D01*
X006350Y020283D02*
X005850Y020283D01*
X005600Y020033D01*
X005600Y019533D01*
X005350Y019283D01*
X002850Y019283D01*
X002600Y019033D01*
X002600Y008033D01*
X002350Y007783D01*
X001100Y007783D01*
X000850Y007283D02*
X002600Y007283D01*
X002850Y007533D01*
X002850Y018033D01*
X003100Y018283D01*
X005350Y018283D01*
X005350Y020283D02*
X005600Y020533D01*
X005600Y021033D01*
X005850Y021283D01*
X006350Y021283D01*
X005350Y020283D02*
X003850Y020283D01*
X003600Y020033D01*
X002600Y020033D01*
X002350Y019783D01*
X002350Y010033D01*
X002100Y009783D01*
X001100Y009783D01*
X001100Y008783D02*
X000850Y008783D01*
X000600Y008533D01*
X000600Y007533D01*
X000850Y007283D01*
X001100Y005783D02*
X004350Y005783D01*
X005600Y003033D02*
X011600Y003033D01*
X011850Y003283D01*
X011850Y008283D01*
X012100Y008533D01*
X012850Y008533D01*
X012850Y009533D02*
X011850Y009533D01*
X011600Y009283D01*
X012350Y007533D02*
X012850Y007533D01*
X012350Y007533D02*
X012100Y007283D01*
X012100Y002283D01*
X011850Y002033D01*
X005600Y002033D01*
X005350Y001783D01*
X005100Y001783D01*
X005100Y002783D02*
X005350Y002783D01*
X005600Y003033D01*
X006850Y002533D02*
X009850Y002533D01*
X002850Y020783D02*
X001100Y020783D01*
X000850Y021283D02*
X002600Y021283D01*
X002850Y021533D01*
X002850Y024533D01*
X003100Y024783D01*
X005100Y024783D01*
X005350Y025283D02*
X005850Y024783D01*
X009600Y024783D01*
X010100Y024283D01*
X010600Y024283D01*
X010100Y024783D02*
X009600Y025283D01*
X009350Y025283D01*
X009600Y025783D02*
X002350Y025783D01*
X002100Y025533D01*
X002100Y024033D01*
X001850Y023783D01*
X001100Y023783D01*
X001100Y024783D02*
X001600Y024783D01*
X001850Y025033D01*
X001850Y026033D01*
X002100Y026283D01*
X006350Y026283D01*
X006350Y025283D02*
X005850Y025283D01*
X005600Y025533D01*
X002600Y025533D01*
X002350Y025283D01*
X002350Y023033D01*
X002100Y022783D01*
X001100Y022783D01*
X001100Y021783D02*
X002350Y021783D01*
X002600Y022033D01*
X002600Y025033D01*
X002850Y025283D01*
X005350Y025283D01*
X006350Y024283D02*
X003350Y024283D01*
X003100Y024033D01*
X003100Y021033D01*
X002850Y020783D01*
X000850Y021283D02*
X000600Y021533D01*
X000600Y026533D01*
X000850Y026783D01*
X009850Y026783D01*
X010350Y026283D01*
X010600Y026283D01*
M02*
