G75*
%MOIN*%
%OFA0B0*%
%FSLAX24Y24*%
%IPPOS*%
%LPD*%
%AMOC8*
5,1,8,0,0,1.08239X$1,22.5*
%
%ADD10C,0.0080*%
%ADD11C,0.0060*%
%ADD12C,0.0100*%
D10*
X001140Y000573D02*
X001280Y000573D01*
X001210Y000573D02*
X001210Y000994D01*
X001140Y000994D02*
X001280Y000994D01*
X001447Y000924D02*
X001447Y000854D01*
X001517Y000784D01*
X001657Y000784D01*
X001727Y000713D01*
X001727Y000643D01*
X001657Y000573D01*
X001517Y000573D01*
X001447Y000643D01*
X001447Y000713D01*
X001517Y000784D01*
X001657Y000784D02*
X001727Y000854D01*
X001727Y000924D01*
X001657Y000994D01*
X001517Y000994D01*
X001447Y000924D01*
X002140Y002073D02*
X002140Y002284D01*
X002210Y002354D01*
X002490Y002354D01*
X002560Y002284D01*
X002560Y002073D01*
X002140Y002073D01*
X002280Y002534D02*
X002560Y002534D01*
X002420Y002534D02*
X002280Y002674D01*
X002280Y002744D01*
X002280Y002987D02*
X002280Y003128D01*
X002350Y003198D01*
X002560Y003198D01*
X002560Y002987D01*
X002490Y002917D01*
X002420Y002987D01*
X002420Y003198D01*
X002350Y003378D02*
X002490Y003378D01*
X002560Y003448D01*
X002560Y003658D01*
X002630Y003658D02*
X002280Y003658D01*
X002280Y003448D01*
X002350Y003378D01*
X002700Y003518D02*
X002700Y003588D01*
X002630Y003658D01*
X002490Y003838D02*
X002560Y003908D01*
X002560Y004048D01*
X002490Y004118D01*
X002350Y004118D01*
X002280Y004048D01*
X002280Y003908D01*
X002350Y003838D01*
X002490Y003838D01*
X002560Y004299D02*
X002280Y004299D01*
X002280Y004509D01*
X002350Y004579D01*
X002560Y004579D01*
X002890Y004599D02*
X002890Y004739D01*
X002960Y004809D01*
X003240Y004529D01*
X003310Y004599D01*
X003310Y004739D01*
X003240Y004809D01*
X002960Y004809D01*
X002890Y004599D02*
X002960Y004529D01*
X003240Y004529D01*
X003310Y004349D02*
X003310Y004068D01*
X003310Y004208D02*
X002890Y004208D01*
X003030Y004068D01*
X003240Y003908D02*
X003310Y003908D01*
X003310Y003838D01*
X003240Y003838D01*
X003240Y003908D01*
X003310Y003658D02*
X003310Y003378D01*
X003310Y003518D02*
X002890Y003518D01*
X003030Y003378D01*
X003030Y002744D02*
X003170Y002534D01*
X003310Y002744D01*
X003310Y002534D02*
X002890Y002534D01*
X002890Y002354D02*
X003310Y002354D01*
X003310Y002073D02*
X002890Y002073D01*
X003030Y002213D01*
X002890Y002354D01*
X003640Y002284D02*
X003640Y002073D01*
X004060Y002073D01*
X003920Y002073D02*
X003920Y002284D01*
X003850Y002354D01*
X003710Y002354D01*
X003640Y002284D01*
X003780Y002604D02*
X003780Y002744D01*
X003850Y002814D01*
X004060Y002814D01*
X004060Y002604D01*
X003990Y002534D01*
X003920Y002604D01*
X003920Y002814D01*
X004060Y002994D02*
X003780Y002994D01*
X003780Y003064D01*
X003850Y003134D01*
X003780Y003204D01*
X003850Y003274D01*
X004060Y003274D01*
X004060Y003134D02*
X003850Y003134D01*
X003850Y003455D02*
X003780Y003525D01*
X003780Y003665D01*
X003850Y003735D01*
X003990Y003735D01*
X004060Y003665D01*
X004060Y003525D01*
X003990Y003455D01*
X003850Y003455D01*
X003780Y003915D02*
X003780Y004055D01*
X003710Y003985D02*
X003990Y003985D01*
X004060Y004055D01*
X004060Y004222D02*
X003640Y004222D01*
X003780Y004292D02*
X003780Y004432D01*
X003850Y004502D01*
X004060Y004502D01*
X003850Y004222D02*
X003780Y004292D01*
X003310Y005450D02*
X003030Y005730D01*
X002960Y005730D01*
X002890Y005660D01*
X002890Y005520D01*
X002960Y005450D01*
X003310Y005450D02*
X003310Y005730D01*
X003240Y005910D02*
X002960Y006190D01*
X003240Y006190D01*
X003310Y006120D01*
X003310Y005980D01*
X003240Y005910D01*
X002960Y005910D01*
X002890Y005980D01*
X002890Y006120D01*
X002960Y006190D01*
X002960Y006370D02*
X002890Y006440D01*
X002890Y006581D01*
X002960Y006651D01*
X003030Y006651D01*
X003310Y006370D01*
X003310Y006651D01*
X003310Y006831D02*
X003030Y007111D01*
X002960Y007111D01*
X002890Y007041D01*
X002890Y006901D01*
X002960Y006831D01*
X003100Y007291D02*
X003100Y007571D01*
X003240Y007752D02*
X002960Y007752D01*
X002890Y007822D01*
X002890Y007962D01*
X002960Y008032D01*
X003240Y007752D01*
X003310Y007822D01*
X003310Y007962D01*
X003240Y008032D01*
X002960Y008032D01*
X003100Y008212D02*
X002890Y008422D01*
X003310Y008422D01*
X003100Y008492D02*
X003100Y008212D01*
X003100Y008672D02*
X003100Y008953D01*
X003240Y009133D02*
X002960Y009133D01*
X002890Y009203D01*
X002890Y009343D01*
X002960Y009413D01*
X003240Y009133D01*
X003310Y009203D01*
X003310Y009343D01*
X003240Y009413D01*
X002960Y009413D01*
X002960Y009593D02*
X002890Y009663D01*
X002890Y009803D01*
X002960Y009873D01*
X003030Y009873D01*
X003100Y009803D01*
X003170Y009873D01*
X003240Y009873D01*
X003310Y009803D01*
X003310Y009663D01*
X003240Y009593D01*
X003100Y009733D02*
X003100Y009803D01*
X002700Y010053D02*
X002280Y010053D01*
X002280Y010264D01*
X002350Y010334D01*
X002490Y010334D01*
X002560Y010264D01*
X002560Y010053D01*
X002420Y009873D02*
X002420Y009593D01*
X002490Y009593D02*
X002350Y009593D01*
X002280Y009663D01*
X002280Y009803D01*
X002350Y009873D01*
X002420Y009873D01*
X002560Y009803D02*
X002560Y009663D01*
X002490Y009593D01*
X002280Y009420D02*
X002280Y009350D01*
X002420Y009209D01*
X002560Y009209D02*
X002280Y009209D01*
X002140Y008569D02*
X002140Y008289D01*
X002140Y008429D02*
X002560Y008429D01*
X002560Y008108D02*
X002280Y008108D01*
X002140Y007968D01*
X002280Y007828D01*
X002560Y007828D01*
X002490Y007648D02*
X002210Y007648D01*
X002140Y007578D01*
X002140Y007368D01*
X002560Y007368D01*
X002560Y007578D01*
X002490Y007648D01*
X002350Y007828D02*
X002350Y008108D01*
X002350Y006727D02*
X002560Y006727D01*
X002560Y006517D01*
X002490Y006447D01*
X002420Y006517D01*
X002420Y006727D01*
X002350Y006727D02*
X002280Y006657D01*
X002280Y006517D01*
X002280Y006280D02*
X002280Y006140D01*
X002210Y006210D02*
X002490Y006210D01*
X002560Y006280D01*
X002420Y005960D02*
X002420Y005680D01*
X002490Y005680D02*
X002350Y005680D01*
X002280Y005750D01*
X002280Y005890D01*
X002350Y005960D01*
X002420Y005960D01*
X002560Y005890D02*
X002560Y005750D01*
X002490Y005680D01*
X002490Y005500D02*
X002560Y005430D01*
X002560Y005219D01*
X002140Y005219D01*
X002140Y005430D01*
X002210Y005500D01*
X002280Y005500D01*
X002350Y005430D01*
X002350Y005219D01*
X002350Y005430D02*
X002420Y005500D01*
X002490Y005500D01*
X003310Y006831D02*
X003310Y007111D01*
X002560Y010514D02*
X002560Y010654D01*
X002560Y010584D02*
X002140Y010584D01*
X002140Y010514D01*
X002280Y010891D02*
X002280Y011031D01*
X002350Y011101D01*
X002560Y011101D01*
X002560Y010891D01*
X002490Y010821D01*
X002420Y010891D01*
X002420Y011101D01*
X002350Y011281D02*
X002490Y011281D01*
X002560Y011351D01*
X002560Y011561D01*
X002490Y011742D02*
X002350Y011742D01*
X002280Y011812D01*
X002280Y011952D01*
X002350Y012022D01*
X002420Y012022D01*
X002420Y011742D01*
X002490Y011742D02*
X002560Y011812D01*
X002560Y011952D01*
X002280Y011561D02*
X002280Y011351D01*
X002350Y011281D01*
X004060Y002354D02*
X003920Y002213D01*
X003749Y000994D02*
X003749Y000573D01*
X003749Y000713D02*
X003959Y000854D01*
X004133Y000784D02*
X004203Y000854D01*
X004343Y000854D01*
X004413Y000784D01*
X004413Y000713D01*
X004133Y000713D01*
X004133Y000643D02*
X004133Y000784D01*
X004133Y000643D02*
X004203Y000573D01*
X004343Y000573D01*
X004663Y000643D02*
X004733Y000573D01*
X004663Y000643D02*
X004663Y000924D01*
X004593Y000854D02*
X004733Y000854D01*
X003959Y000573D02*
X003749Y000713D01*
X003569Y000573D02*
X003359Y000573D01*
X003288Y000643D01*
X003288Y000784D01*
X003359Y000854D01*
X003569Y000854D01*
X003108Y000784D02*
X003038Y000854D01*
X002898Y000854D01*
X002828Y000784D01*
X002828Y000643D01*
X002898Y000573D01*
X003038Y000573D01*
X003108Y000643D01*
X003108Y000784D01*
X002648Y000854D02*
X002438Y000854D01*
X002368Y000784D01*
X002438Y000713D01*
X002578Y000713D01*
X002648Y000643D01*
X002578Y000573D01*
X002368Y000573D01*
X010890Y003442D02*
X011030Y003582D01*
X010890Y003722D01*
X011310Y003722D01*
X011240Y003903D02*
X011310Y003973D01*
X011310Y004113D01*
X011240Y004183D01*
X010890Y004183D01*
X010960Y004363D02*
X010890Y004433D01*
X010890Y004573D01*
X010960Y004643D01*
X011100Y004573D02*
X011170Y004643D01*
X011240Y004643D01*
X011310Y004573D01*
X011310Y004433D01*
X011240Y004363D01*
X011100Y004433D02*
X011100Y004573D01*
X011100Y004433D02*
X011030Y004363D01*
X010960Y004363D01*
X010890Y004823D02*
X010890Y005104D01*
X010890Y004963D02*
X011310Y004963D01*
X011640Y005119D02*
X011640Y005259D01*
X011710Y005329D01*
X011780Y005329D01*
X011850Y005259D01*
X011850Y005119D01*
X011780Y005049D01*
X011710Y005049D01*
X011640Y005119D01*
X011850Y005119D02*
X011920Y005049D01*
X011990Y005049D01*
X012060Y005119D01*
X012060Y005259D01*
X011990Y005329D01*
X011920Y005329D01*
X011850Y005259D01*
X011920Y005509D02*
X011640Y005789D01*
X011640Y005509D02*
X012060Y005509D01*
X011850Y005579D02*
X012060Y005789D01*
X011850Y005969D02*
X011850Y006250D01*
X011990Y006430D02*
X012060Y006500D01*
X012060Y006640D01*
X011990Y006710D01*
X011920Y006710D01*
X011850Y006640D01*
X011850Y006570D01*
X011850Y006640D02*
X011780Y006710D01*
X011710Y006710D01*
X011640Y006640D01*
X011640Y006500D01*
X011710Y006430D01*
X011710Y006890D02*
X011640Y006960D01*
X011640Y007100D01*
X011710Y007170D01*
X011780Y007170D01*
X012060Y006890D01*
X012060Y007170D01*
X012060Y007351D02*
X011640Y007351D01*
X011920Y007351D02*
X011640Y007631D01*
X011850Y007421D02*
X012060Y007631D01*
X011990Y008271D02*
X012060Y008341D01*
X012060Y008482D01*
X011990Y008552D01*
X011920Y008552D01*
X011850Y008482D01*
X011850Y008341D01*
X011780Y008271D01*
X011710Y008271D01*
X011640Y008341D01*
X011640Y008482D01*
X011710Y008552D01*
X011640Y008732D02*
X011640Y008942D01*
X011710Y009012D01*
X011850Y009012D01*
X011920Y008942D01*
X011920Y008732D01*
X011920Y008872D02*
X012060Y009012D01*
X012060Y009192D02*
X011780Y009192D01*
X011640Y009332D01*
X011780Y009472D01*
X012060Y009472D01*
X012060Y009653D02*
X011640Y009653D01*
X011780Y009793D01*
X011640Y009933D01*
X012060Y009933D01*
X011850Y009472D02*
X011850Y009192D01*
X012060Y008732D02*
X011640Y008732D01*
X011310Y008717D02*
X011240Y008787D01*
X011170Y008717D01*
X011170Y008577D01*
X011100Y008507D01*
X011030Y008577D01*
X011030Y008787D01*
X011310Y008717D02*
X011310Y008507D01*
X011310Y008326D02*
X011100Y008326D01*
X011030Y008256D01*
X011030Y008046D01*
X011310Y008046D01*
X011240Y007866D02*
X011310Y007796D01*
X011310Y007656D01*
X011240Y007586D01*
X010960Y007866D01*
X011240Y007866D01*
X011240Y007586D02*
X010960Y007586D01*
X010890Y007656D01*
X010890Y007796D01*
X010960Y007866D01*
X010960Y007406D02*
X010890Y007406D01*
X010890Y007125D01*
X010960Y007406D02*
X011240Y007125D01*
X011310Y007125D01*
X011170Y006485D02*
X011170Y006205D01*
X011240Y006205D02*
X011100Y006205D01*
X011030Y006275D01*
X011030Y006415D01*
X011100Y006485D01*
X011170Y006485D01*
X011310Y006415D02*
X011310Y006275D01*
X011240Y006205D01*
X011240Y006024D02*
X011100Y006024D01*
X011030Y005954D01*
X011030Y005744D01*
X010890Y005744D02*
X011310Y005744D01*
X011310Y005954D01*
X011240Y006024D01*
X011240Y003903D02*
X010890Y003903D01*
X010890Y003442D02*
X011310Y003442D01*
X011240Y009427D02*
X011310Y009497D01*
X011310Y009637D01*
X011240Y009708D01*
X011100Y009708D01*
X011030Y009637D01*
X011030Y009497D01*
X011100Y009427D01*
X011240Y009427D01*
X011310Y009888D02*
X011030Y009888D01*
X011030Y010028D02*
X011030Y010098D01*
X011030Y010028D02*
X011170Y009888D01*
X011310Y010732D02*
X010890Y010732D01*
X010890Y011192D02*
X011310Y011192D01*
X011310Y011472D01*
X011240Y011653D02*
X011310Y011723D01*
X011310Y011863D01*
X011240Y011933D01*
X011170Y011933D01*
X011100Y011863D01*
X011100Y011723D01*
X011030Y011653D01*
X010960Y011653D01*
X010890Y011723D01*
X010890Y011863D01*
X010960Y011933D01*
X010960Y012113D02*
X010890Y012183D01*
X010890Y012323D01*
X010960Y012393D01*
X011100Y012323D02*
X011100Y012183D01*
X011030Y012113D01*
X010960Y012113D01*
X011100Y012323D02*
X011170Y012393D01*
X011240Y012393D01*
X011310Y012323D01*
X011310Y012183D01*
X011240Y012113D01*
X010890Y011472D02*
X010890Y011192D01*
X011100Y011192D02*
X011100Y011332D01*
X011310Y011012D02*
X011310Y010732D01*
X011890Y019851D02*
X011890Y020131D01*
X011960Y020131D01*
X012240Y019851D01*
X012310Y019851D01*
X012100Y020311D02*
X012100Y020591D01*
X012310Y020521D02*
X011890Y020521D01*
X012100Y020311D01*
X011890Y020771D02*
X012310Y020771D01*
X012310Y021052D01*
X012240Y021232D02*
X012310Y021302D01*
X012310Y021442D01*
X012240Y021512D01*
X012170Y021512D01*
X012100Y021442D01*
X012100Y021302D01*
X012030Y021232D01*
X011960Y021232D01*
X011890Y021302D01*
X011890Y021442D01*
X011960Y021512D01*
X011960Y021692D02*
X011890Y021762D01*
X011890Y021902D01*
X011960Y021972D01*
X012030Y021972D01*
X012310Y021692D01*
X012310Y021972D01*
X012100Y022153D02*
X012100Y022433D01*
X012100Y022613D02*
X012030Y022753D01*
X012030Y022823D01*
X012100Y022893D01*
X012240Y022893D01*
X012310Y022823D01*
X012310Y022683D01*
X012240Y022613D01*
X012100Y022613D02*
X011890Y022613D01*
X011890Y022893D01*
X011890Y022363D02*
X012100Y022153D01*
X012310Y022363D02*
X011890Y022363D01*
X008060Y022363D02*
X007640Y022363D01*
X007850Y022153D01*
X007850Y022433D01*
X007850Y022613D02*
X007780Y022753D01*
X007780Y022823D01*
X007850Y022893D01*
X007990Y022893D01*
X008060Y022823D01*
X008060Y022683D01*
X007990Y022613D01*
X007850Y022613D02*
X007640Y022613D01*
X007640Y022893D01*
X007710Y021972D02*
X007640Y021902D01*
X007640Y021762D01*
X007710Y021692D01*
X007710Y021512D02*
X007640Y021442D01*
X007640Y021302D01*
X007710Y021232D01*
X007780Y021232D01*
X007850Y021302D01*
X007850Y021442D01*
X007920Y021512D01*
X007990Y021512D01*
X008060Y021442D01*
X008060Y021302D01*
X007990Y021232D01*
X008060Y021052D02*
X008060Y020771D01*
X007640Y020771D01*
X007640Y020521D02*
X007850Y020311D01*
X007850Y020591D01*
X008060Y020521D02*
X007640Y020521D01*
X007640Y020131D02*
X007710Y020131D01*
X007990Y019851D01*
X008060Y019851D01*
X007640Y019851D02*
X007640Y020131D01*
X008060Y021692D02*
X007780Y021972D01*
X007710Y021972D01*
X008060Y021972D02*
X008060Y021692D01*
X004733Y025823D02*
X004663Y025893D01*
X004663Y026174D01*
X004593Y026104D02*
X004733Y026104D01*
X004413Y026034D02*
X004413Y025963D01*
X004133Y025963D01*
X004133Y025893D02*
X004133Y026034D01*
X004203Y026104D01*
X004343Y026104D01*
X004413Y026034D01*
X004343Y025823D02*
X004203Y025823D01*
X004133Y025893D01*
X003959Y025823D02*
X003749Y025963D01*
X003959Y026104D01*
X003749Y026244D02*
X003749Y025823D01*
X003569Y025823D02*
X003359Y025823D01*
X003288Y025893D01*
X003288Y026034D01*
X003359Y026104D01*
X003569Y026104D01*
X003108Y026034D02*
X003038Y026104D01*
X002898Y026104D01*
X002828Y026034D01*
X002828Y025893D01*
X002898Y025823D01*
X003038Y025823D01*
X003108Y025893D01*
X003108Y026034D01*
X002648Y026104D02*
X002438Y026104D01*
X002368Y026034D01*
X002438Y025963D01*
X002578Y025963D01*
X002648Y025893D01*
X002578Y025823D01*
X002368Y025823D01*
X001727Y026174D02*
X001447Y025893D01*
X001447Y025823D01*
X001280Y025823D02*
X001140Y025823D01*
X001210Y025823D02*
X001210Y026244D01*
X001140Y026244D02*
X001280Y026244D01*
X001447Y026244D02*
X001727Y026244D01*
X001727Y026174D01*
D11*
X001500Y025383D02*
X001500Y014183D01*
X002850Y014183D01*
X002852Y014213D01*
X002857Y014243D01*
X002866Y014272D01*
X002879Y014299D01*
X002894Y014325D01*
X002913Y014349D01*
X002934Y014370D01*
X002958Y014389D01*
X002984Y014404D01*
X003011Y014417D01*
X003040Y014426D01*
X003070Y014431D01*
X003100Y014433D01*
X003130Y014431D01*
X003160Y014426D01*
X003189Y014417D01*
X003216Y014404D01*
X003242Y014389D01*
X003266Y014370D01*
X003287Y014349D01*
X003306Y014325D01*
X003321Y014299D01*
X003334Y014272D01*
X003343Y014243D01*
X003348Y014213D01*
X003350Y014183D01*
X004700Y014183D01*
X004700Y025383D01*
X001500Y025383D01*
X006700Y026783D02*
X006700Y016783D01*
X007450Y016783D01*
X007452Y016822D01*
X007458Y016861D01*
X007467Y016899D01*
X007480Y016936D01*
X007497Y016972D01*
X007517Y017005D01*
X007541Y017037D01*
X007567Y017066D01*
X007596Y017092D01*
X007628Y017116D01*
X007661Y017136D01*
X007697Y017153D01*
X007734Y017166D01*
X007772Y017175D01*
X007811Y017181D01*
X007850Y017183D01*
X007889Y017181D01*
X007928Y017175D01*
X007966Y017166D01*
X008003Y017153D01*
X008039Y017136D01*
X008072Y017116D01*
X008104Y017092D01*
X008133Y017066D01*
X008159Y017037D01*
X008183Y017005D01*
X008203Y016972D01*
X008220Y016936D01*
X008233Y016899D01*
X008242Y016861D01*
X008248Y016822D01*
X008250Y016783D01*
X009000Y016783D01*
X009000Y026783D01*
X006700Y026783D01*
X010950Y026783D02*
X013250Y026783D01*
X013250Y016783D01*
X012500Y016783D01*
X012250Y016783D02*
X013950Y016783D01*
X013967Y016781D01*
X013984Y016777D01*
X014000Y016770D01*
X014014Y016760D01*
X014027Y016747D01*
X014037Y016733D01*
X014044Y016717D01*
X014048Y016700D01*
X014050Y016683D01*
X014050Y015883D01*
X014048Y015866D01*
X014044Y015849D01*
X014037Y015833D01*
X014027Y015819D01*
X014014Y015806D01*
X014000Y015796D01*
X013984Y015789D01*
X013967Y015785D01*
X013950Y015783D01*
X012250Y015783D01*
X012233Y015785D01*
X012216Y015789D01*
X012200Y015796D01*
X012186Y015806D01*
X012173Y015819D01*
X012163Y015833D01*
X012156Y015849D01*
X012152Y015866D01*
X012150Y015883D01*
X012150Y016683D01*
X012152Y016700D01*
X012156Y016717D01*
X012163Y016733D01*
X012173Y016747D01*
X012186Y016760D01*
X012200Y016770D01*
X012216Y016777D01*
X012233Y016781D01*
X012250Y016783D01*
X012500Y016783D02*
X012498Y016822D01*
X012492Y016861D01*
X012483Y016899D01*
X012470Y016936D01*
X012453Y016972D01*
X012433Y017005D01*
X012409Y017037D01*
X012383Y017066D01*
X012354Y017092D01*
X012322Y017116D01*
X012289Y017136D01*
X012253Y017153D01*
X012216Y017166D01*
X012178Y017175D01*
X012139Y017181D01*
X012100Y017183D01*
X012061Y017181D01*
X012022Y017175D01*
X011984Y017166D01*
X011947Y017153D01*
X011911Y017136D01*
X011878Y017116D01*
X011846Y017092D01*
X011817Y017066D01*
X011791Y017037D01*
X011767Y017005D01*
X011747Y016972D01*
X011730Y016936D01*
X011717Y016899D01*
X011708Y016861D01*
X011702Y016822D01*
X011700Y016783D01*
X010950Y016783D01*
X010950Y026783D01*
X010700Y016783D02*
X009000Y016783D01*
X008983Y016781D01*
X008966Y016777D01*
X008950Y016770D01*
X008936Y016760D01*
X008923Y016747D01*
X008913Y016733D01*
X008906Y016717D01*
X008902Y016700D01*
X008900Y016683D01*
X008900Y015883D01*
X008902Y015866D01*
X008906Y015849D01*
X008913Y015833D01*
X008923Y015819D01*
X008936Y015806D01*
X008950Y015796D01*
X008966Y015789D01*
X008983Y015785D01*
X009000Y015783D01*
X010700Y015783D01*
X010717Y015785D01*
X010734Y015789D01*
X010750Y015796D01*
X010764Y015806D01*
X010777Y015819D01*
X010787Y015833D01*
X010794Y015849D01*
X010798Y015866D01*
X010800Y015883D01*
X010800Y016683D01*
X010798Y016700D01*
X010794Y016717D01*
X010787Y016733D01*
X010777Y016747D01*
X010764Y016760D01*
X010750Y016770D01*
X010734Y016777D01*
X010717Y016781D01*
X010700Y016783D01*
X010000Y016283D02*
X009950Y016283D01*
X009750Y016283D02*
X009700Y016283D01*
X010200Y015033D02*
X012500Y015033D01*
X012500Y001033D01*
X011750Y001033D01*
X011748Y001072D01*
X011742Y001111D01*
X011733Y001149D01*
X011720Y001186D01*
X011703Y001222D01*
X011683Y001255D01*
X011659Y001287D01*
X011633Y001316D01*
X011604Y001342D01*
X011572Y001366D01*
X011539Y001386D01*
X011503Y001403D01*
X011466Y001416D01*
X011428Y001425D01*
X011389Y001431D01*
X011350Y001433D01*
X011311Y001431D01*
X011272Y001425D01*
X011234Y001416D01*
X011197Y001403D01*
X011161Y001386D01*
X011128Y001366D01*
X011096Y001342D01*
X011067Y001316D01*
X011041Y001287D01*
X011017Y001255D01*
X010997Y001222D01*
X010980Y001186D01*
X010967Y001149D01*
X010958Y001111D01*
X010952Y001072D01*
X010950Y001033D01*
X010200Y001033D01*
X010200Y015033D01*
X012450Y014983D02*
X012450Y001083D01*
X010350Y001083D01*
X010348Y001127D01*
X010342Y001170D01*
X010333Y001212D01*
X010320Y001254D01*
X010303Y001294D01*
X010283Y001333D01*
X010260Y001370D01*
X010233Y001404D01*
X010204Y001437D01*
X010171Y001466D01*
X010137Y001493D01*
X010100Y001516D01*
X010061Y001536D01*
X010021Y001553D01*
X009979Y001566D01*
X009937Y001575D01*
X009894Y001581D01*
X009850Y001583D01*
X009806Y001581D01*
X009763Y001575D01*
X009721Y001566D01*
X009679Y001553D01*
X009639Y001536D01*
X009600Y001516D01*
X009563Y001493D01*
X009529Y001466D01*
X009496Y001437D01*
X009467Y001404D01*
X009440Y001370D01*
X009417Y001333D01*
X009397Y001294D01*
X009380Y001254D01*
X009367Y001212D01*
X009358Y001170D01*
X009352Y001127D01*
X009350Y001083D01*
X007250Y001083D01*
X007250Y014983D01*
X012450Y014983D01*
X012950Y016283D02*
X013000Y016283D01*
X013200Y016283D02*
X013250Y016283D01*
X013200Y002483D02*
X014000Y002483D01*
X014017Y002481D01*
X014034Y002477D01*
X014050Y002470D01*
X014064Y002460D01*
X014077Y002447D01*
X014087Y002433D01*
X014094Y002417D01*
X014098Y002400D01*
X014100Y002383D01*
X014100Y000683D01*
X014098Y000666D01*
X014094Y000649D01*
X014087Y000633D01*
X014077Y000619D01*
X014064Y000606D01*
X014050Y000596D01*
X014034Y000589D01*
X014017Y000585D01*
X014000Y000583D01*
X013200Y000583D01*
X013183Y000585D01*
X013166Y000589D01*
X013150Y000596D01*
X013136Y000606D01*
X013123Y000619D01*
X013113Y000633D01*
X013106Y000649D01*
X013102Y000666D01*
X013100Y000683D01*
X013100Y002383D01*
X013102Y002400D01*
X013106Y002417D01*
X013113Y002433D01*
X013123Y002447D01*
X013136Y002460D01*
X013150Y002470D01*
X013166Y002477D01*
X013183Y002481D01*
X013200Y002483D01*
X013600Y001683D02*
X013600Y001633D01*
X013600Y001433D02*
X013600Y001383D01*
X004700Y001183D02*
X004700Y012383D01*
X001500Y012383D01*
X001500Y001183D01*
X002850Y001183D01*
X002852Y001213D01*
X002857Y001243D01*
X002866Y001272D01*
X002879Y001299D01*
X002894Y001325D01*
X002913Y001349D01*
X002934Y001370D01*
X002958Y001389D01*
X002984Y001404D01*
X003011Y001417D01*
X003040Y001426D01*
X003070Y001431D01*
X003100Y001433D01*
X003130Y001431D01*
X003160Y001426D01*
X003189Y001417D01*
X003216Y001404D01*
X003242Y001389D01*
X003266Y001370D01*
X003287Y001349D01*
X003306Y001325D01*
X003321Y001299D01*
X003334Y001272D01*
X003343Y001243D01*
X003348Y001213D01*
X003350Y001183D01*
X004700Y001183D01*
D12*
X009750Y015983D02*
X009750Y016283D01*
X009750Y016583D01*
X009950Y016583D02*
X009950Y016283D01*
X009950Y015983D01*
X013000Y015983D02*
X013000Y016283D01*
X013000Y016583D01*
X013200Y016583D02*
X013200Y016283D01*
X013200Y015983D01*
X013300Y001633D02*
X013600Y001633D01*
X013900Y001633D01*
X013900Y001433D02*
X013600Y001433D01*
X013300Y001433D01*
M02*
