%
M48
M72
T01C0.0320
%
T01
X1100Y1783
X1100Y2783
X1100Y3783
X1100Y4783
X1100Y5783
X1100Y6783
X1100Y7783
X1100Y8783
X1100Y9783
X1100Y10783
X1100Y11783
X1100Y14783
X1100Y15783
X1100Y16783
X1100Y17783
X1100Y18783
X1100Y19783
X1100Y20783
X1100Y21783
X1100Y22783
X1100Y23783
X1100Y24783
X5100Y24783
X5100Y23783
X5100Y22783
X5100Y21783
X5100Y20783
X5100Y19783
X5100Y18783
X5100Y17783
X5100Y16783
X5100Y15783
X5100Y14783
X6350Y17283
X6350Y18283
X6350Y19283
X6350Y20283
X6350Y21283
X6350Y22283
X6350Y23283
X6350Y24283
X6350Y25283
X6350Y26283
X9350Y26283
X9350Y25283
X9350Y24283
X9350Y23283
X9350Y22283
X9350Y21283
X9350Y20283
X9350Y19283
X9350Y18283
X9350Y17283
X9350Y16283
X9850Y14533
X9850Y13533
X9850Y12533
X9850Y11533
X9850Y10533
X9850Y9533
X9850Y8533
X9850Y7533
X9850Y6533
X9850Y5533
X9850Y4533
X9850Y3533
X9850Y2533
X9850Y1533
X6850Y1533
X6850Y2533
X6850Y3533
X6850Y4533
X6850Y5533
X6850Y6533
X6850Y7533
X6850Y8533
X6850Y9533
X6850Y10533
X6850Y11533
X6850Y12533
X6850Y13533
X6850Y14533
X5100Y11783
X5100Y10783
X5100Y9783
X5100Y8783
X5100Y7783
X5100Y6783
X5100Y5783
X5100Y4783
X5100Y3783
X5100Y2783
X5100Y1783
X12850Y1533
X12850Y1533
X12850Y2533
X12850Y2533
X12850Y3533
X12850Y3533
X12850Y4533
X12850Y4533
X12850Y5533
X12850Y5533
X12850Y6533
X12850Y6533
X12850Y7533
X12850Y7533
X12850Y8533
X12850Y8533
X12850Y9533
X12850Y9533
X12850Y10533
X12850Y10533
X12850Y11533
X12850Y11533
X12850Y12533
X12850Y12533
X12850Y13533
X12850Y13533
X12850Y14533
X12850Y14533
X12600Y16283
X13600Y16283
X13600Y17283
X13600Y18283
X13600Y19283
X13600Y20283
X13600Y21283
X13600Y22283
X13600Y23283
X13600Y24283
X13600Y25283
X13600Y26283
X10600Y26283
X10600Y25283
X10600Y24283
X10600Y23283
X10600Y22283
X10600Y21283
X10600Y20283
X10600Y19283
X10600Y18283
X10600Y17283
X10350Y16283
X13600Y2033
X13600Y1033
M30
