G75*
%MOIN*%
%OFA0B0*%
%FSLAX24Y24*%
%IPPOS*%
%LPD*%
%AMOC8*
5,1,8,0,0,1.08239X$1,22.5*
%
%ADD10C,0.0530*%
%ADD11OC8,0.0530*%
D10*
X001100Y001783D03*
X001100Y002783D03*
X001100Y003783D03*
X001100Y004783D03*
X001100Y005783D03*
X001100Y006783D03*
X001100Y007783D03*
X001100Y008783D03*
X001100Y009783D03*
X001100Y010783D03*
X001100Y011783D03*
X001100Y014783D03*
X001100Y015783D03*
X001100Y016783D03*
X001100Y017783D03*
X001100Y018783D03*
X001100Y019783D03*
X001100Y020783D03*
X001100Y021783D03*
X001100Y022783D03*
X001100Y023783D03*
X001100Y024783D03*
X005100Y024783D03*
X005100Y023783D03*
X005100Y022783D03*
X005100Y021783D03*
X005100Y020783D03*
X005100Y019783D03*
X005100Y018783D03*
X005100Y017783D03*
X005100Y016783D03*
X005100Y015783D03*
X005100Y014783D03*
X006350Y017283D03*
X006350Y018283D03*
X006350Y019283D03*
X006350Y020283D03*
X006350Y021283D03*
X006350Y022283D03*
X006350Y023283D03*
X006350Y024283D03*
X006350Y025283D03*
X006350Y026283D03*
X009350Y026283D03*
X009350Y025283D03*
X009350Y024283D03*
X009350Y023283D03*
X009350Y022283D03*
X009350Y021283D03*
X009350Y020283D03*
X009350Y019283D03*
X009350Y018283D03*
X009350Y017283D03*
X010600Y017283D03*
X010600Y018283D03*
X010600Y019283D03*
X010600Y020283D03*
X010600Y021283D03*
X010600Y022283D03*
X010600Y023283D03*
X010600Y024283D03*
X010600Y025283D03*
X010600Y026283D03*
X013600Y026283D03*
X013600Y025283D03*
X013600Y024283D03*
X013600Y023283D03*
X013600Y022283D03*
X013600Y021283D03*
X013600Y020283D03*
X013600Y019283D03*
X013600Y018283D03*
X013600Y017283D03*
X012850Y014533D03*
X012850Y014533D03*
X012850Y013533D03*
X012850Y013533D03*
X012850Y012533D03*
X012850Y012533D03*
X012850Y011533D03*
X012850Y011533D03*
X012850Y010533D03*
X012850Y010533D03*
X012850Y009533D03*
X012850Y009533D03*
X012850Y008533D03*
X012850Y008533D03*
X012850Y007533D03*
X012850Y007533D03*
X012850Y006533D03*
X012850Y006533D03*
X012850Y005533D03*
X012850Y005533D03*
X012850Y004533D03*
X012850Y004533D03*
X012850Y003533D03*
X012850Y003533D03*
X012850Y002533D03*
X012850Y002533D03*
X012850Y001533D03*
X012850Y001533D03*
X009850Y001533D03*
X009850Y002533D03*
X009850Y003533D03*
X009850Y004533D03*
X009850Y005533D03*
X009850Y006533D03*
X009850Y007533D03*
X009850Y008533D03*
X009850Y009533D03*
X009850Y010533D03*
X009850Y011533D03*
X009850Y012533D03*
X009850Y013533D03*
X009850Y014533D03*
X006850Y014533D03*
X006850Y013533D03*
X006850Y012533D03*
X006850Y011533D03*
X006850Y010533D03*
X006850Y009533D03*
X006850Y008533D03*
X006850Y007533D03*
X006850Y006533D03*
X006850Y005533D03*
X006850Y004533D03*
X006850Y003533D03*
X006850Y002533D03*
X006850Y001533D03*
X005100Y001783D03*
X005100Y002783D03*
X005100Y003783D03*
X005100Y004783D03*
X005100Y005783D03*
X005100Y006783D03*
X005100Y007783D03*
X005100Y008783D03*
X005100Y009783D03*
X005100Y010783D03*
X005100Y011783D03*
D11*
X009350Y016283D03*
X010350Y016283D03*
X012600Y016283D03*
X013600Y016283D03*
X013600Y002033D03*
X013600Y001033D03*
M02*
