G75*
%MOIN*%
%OFA0B0*%
%FSLAX24Y24*%
%IPPOS*%
%LPD*%
%AMOC8*
5,1,8,0,0,1.08239X$1,22.5*
%
%ADD10OC8,0.0522*%
%ADD11C,0.0641*%
%ADD12OC8,0.0650*%
%ADD13C,0.0610*%
%ADD14R,0.0326X0.0818*%
%ADD15OC8,0.0530*%
%ADD16C,0.1350*%
%ADD17C,0.0611*%
%ADD18C,0.1356*%
%ADD19R,0.0522X0.1231*%
%ADD20R,0.0601X0.0601*%
%ADD21C,0.0719*%
%ADD22R,0.0404X0.0404*%
D10*
X003162Y012803D03*
X003162Y013803D03*
X003162Y014803D03*
X003162Y015803D03*
X003162Y016803D03*
X003162Y017803D03*
X003162Y018803D03*
X003162Y019803D03*
X003162Y020803D03*
X003162Y021803D03*
X003162Y022803D03*
X003162Y023803D03*
X003162Y024803D03*
X003162Y025803D03*
X003162Y026803D03*
X003162Y027803D03*
X003162Y028803D03*
X003162Y029803D03*
X003162Y030803D03*
X003162Y031803D03*
X010162Y031803D03*
X010162Y030803D03*
X010162Y029803D03*
X010162Y028803D03*
X010162Y027803D03*
X010162Y026803D03*
X010162Y025803D03*
X010162Y024803D03*
X010162Y023803D03*
X010162Y022803D03*
X010162Y021803D03*
X010162Y020803D03*
X010162Y019803D03*
X010162Y018803D03*
X010162Y017803D03*
X010162Y016803D03*
X010162Y015803D03*
X010162Y014803D03*
X010162Y013803D03*
X010162Y012803D03*
X014185Y012803D03*
X014185Y013803D03*
X014185Y014803D03*
X014185Y015803D03*
X014185Y016803D03*
X014185Y017803D03*
X014185Y018803D03*
X014185Y019803D03*
X014185Y020803D03*
X014185Y021803D03*
X014185Y022803D03*
X014185Y023803D03*
X014185Y024803D03*
X014185Y025803D03*
X014185Y026803D03*
X014185Y027803D03*
X014185Y028803D03*
X014185Y029803D03*
X014185Y030803D03*
X014185Y031803D03*
X021185Y031803D03*
X021185Y030803D03*
X021185Y029803D03*
X021185Y028803D03*
X021185Y027803D03*
X021185Y026803D03*
X021185Y025803D03*
X021185Y024803D03*
X021185Y023803D03*
X021185Y022803D03*
X021185Y021803D03*
X021185Y020803D03*
X021185Y019803D03*
X021185Y018803D03*
X021185Y017803D03*
X021185Y016803D03*
X021185Y015803D03*
X021185Y014803D03*
X021185Y013803D03*
X021185Y012803D03*
D11*
X019924Y011000D03*
X018924Y011000D03*
X017924Y011000D03*
X016924Y011000D03*
X015924Y011000D03*
X014924Y011000D03*
X014924Y007000D03*
X015924Y007000D03*
X016924Y007000D03*
X017924Y007000D03*
X018924Y007000D03*
X019924Y007000D03*
D12*
X019685Y005500D03*
X019685Y004500D03*
X018685Y004500D03*
X018685Y005500D03*
X017685Y005500D03*
X017685Y004500D03*
X016685Y004500D03*
X016685Y005500D03*
X015685Y005500D03*
X015685Y004500D03*
X012650Y004553D03*
X011650Y004553D03*
X011650Y007553D03*
X011650Y008553D03*
X011650Y009553D03*
X011650Y010553D03*
X012650Y010553D03*
X012650Y009553D03*
X012650Y008553D03*
X012650Y007553D03*
X008662Y005500D03*
X008662Y004500D03*
X007662Y004500D03*
X007662Y005500D03*
X006662Y005500D03*
X006662Y004500D03*
X005662Y004500D03*
X005662Y005500D03*
X004662Y005500D03*
X004662Y004500D03*
X002160Y009413D03*
X002160Y011193D03*
X005376Y012750D03*
X005376Y013750D03*
X011650Y015803D03*
X011650Y016803D03*
X011650Y017803D03*
X011650Y018803D03*
X012650Y018803D03*
X012650Y017803D03*
X012650Y016803D03*
X012650Y015803D03*
X017185Y027750D03*
X018185Y027750D03*
X012900Y030803D03*
X012900Y031803D03*
X007162Y027750D03*
X006162Y027750D03*
X001900Y030803D03*
X001900Y031803D03*
X022140Y011193D03*
X022140Y009413D03*
D13*
X021160Y008923D03*
X021160Y011683D03*
X003140Y011683D03*
X003140Y008923D03*
D14*
X004376Y007140D03*
X004876Y007140D03*
X005376Y007140D03*
X005876Y007140D03*
X006376Y007140D03*
X006876Y007140D03*
X007376Y007140D03*
X007876Y007140D03*
X008376Y007140D03*
X008876Y007140D03*
X008876Y010860D03*
X008376Y010860D03*
X007876Y010860D03*
X007376Y010860D03*
X006876Y010860D03*
X006376Y010860D03*
X005876Y010860D03*
X005376Y010860D03*
X004876Y010860D03*
X004376Y010860D03*
D15*
X004400Y011803D03*
X004400Y012803D03*
D16*
X002725Y004990D03*
X012174Y033730D03*
X021622Y004990D03*
D17*
X019063Y032761D02*
X019063Y033322D01*
X018079Y033322D02*
X018079Y032761D01*
X017292Y032761D02*
X017292Y033322D01*
X016307Y033322D02*
X016307Y032761D01*
X008040Y032761D02*
X008040Y033322D01*
X007056Y033322D02*
X007056Y032761D01*
X006268Y032761D02*
X006268Y033322D01*
X005284Y033322D02*
X005284Y032761D01*
D18*
X004075Y034108D03*
X004075Y034108D03*
X009248Y034108D03*
X009248Y034108D03*
X015099Y034108D03*
X015099Y034108D03*
X020272Y034108D03*
X020272Y034108D03*
D19*
X019063Y032156D03*
X018079Y032156D03*
X017292Y032156D03*
X016307Y032156D03*
X008040Y032156D03*
X007056Y032156D03*
X006268Y032156D03*
X005284Y032156D03*
D20*
X008900Y029551D03*
X008900Y028055D03*
X011400Y028055D03*
X011400Y029551D03*
D21*
X011400Y030303D03*
X011400Y027303D03*
X008900Y027303D03*
X008900Y030303D03*
D22*
X004400Y011833D03*
M02*
