G75*
%MOIN*%
%OFA0B0*%
%FSLAX24Y24*%
%IPPOS*%
%LPD*%
%AMOC8*
5,1,8,0,0,1.08239X$1,22.5*
%
%ADD10C,0.0000*%
%ADD11OC8,0.0472*%
%ADD12C,0.0591*%
%ADD13OC8,0.0600*%
%ADD14C,0.0560*%
%ADD15R,0.0276X0.0768*%
%ADD16OC8,0.0480*%
%ADD17C,0.0100*%
%ADD18C,0.0561*%
%ADD19C,0.1306*%
%ADD20R,0.0472X0.1181*%
%ADD21R,0.0551X0.0551*%
%ADD22C,0.0669*%
%ADD23C,0.0240*%
%ADD24R,0.0354X0.0354*%
%ADD25C,0.0120*%
D10*
X001150Y001053D02*
X001150Y035305D01*
X023197Y035305D01*
X023197Y001053D01*
X001150Y001053D01*
X002075Y004990D02*
X002077Y005040D01*
X002083Y005090D01*
X002093Y005140D01*
X002106Y005188D01*
X002123Y005236D01*
X002144Y005282D01*
X002168Y005326D01*
X002196Y005368D01*
X002227Y005408D01*
X002261Y005445D01*
X002298Y005480D01*
X002337Y005511D01*
X002378Y005540D01*
X002422Y005565D01*
X002468Y005587D01*
X002515Y005605D01*
X002563Y005619D01*
X002612Y005630D01*
X002662Y005637D01*
X002712Y005640D01*
X002763Y005639D01*
X002813Y005634D01*
X002863Y005625D01*
X002911Y005613D01*
X002959Y005596D01*
X003005Y005576D01*
X003050Y005553D01*
X003093Y005526D01*
X003133Y005496D01*
X003171Y005463D01*
X003206Y005427D01*
X003239Y005388D01*
X003268Y005347D01*
X003294Y005304D01*
X003317Y005259D01*
X003336Y005212D01*
X003351Y005164D01*
X003363Y005115D01*
X003371Y005065D01*
X003375Y005015D01*
X003375Y004965D01*
X003371Y004915D01*
X003363Y004865D01*
X003351Y004816D01*
X003336Y004768D01*
X003317Y004721D01*
X003294Y004676D01*
X003268Y004633D01*
X003239Y004592D01*
X003206Y004553D01*
X003171Y004517D01*
X003133Y004484D01*
X003093Y004454D01*
X003050Y004427D01*
X003005Y004404D01*
X002959Y004384D01*
X002911Y004367D01*
X002863Y004355D01*
X002813Y004346D01*
X002763Y004341D01*
X002712Y004340D01*
X002662Y004343D01*
X002612Y004350D01*
X002563Y004361D01*
X002515Y004375D01*
X002468Y004393D01*
X002422Y004415D01*
X002378Y004440D01*
X002337Y004469D01*
X002298Y004500D01*
X002261Y004535D01*
X002227Y004572D01*
X002196Y004612D01*
X002168Y004654D01*
X002144Y004698D01*
X002123Y004744D01*
X002106Y004792D01*
X002093Y004840D01*
X002083Y004890D01*
X002077Y004940D01*
X002075Y004990D01*
X011524Y033730D02*
X011526Y033780D01*
X011532Y033830D01*
X011542Y033880D01*
X011555Y033928D01*
X011572Y033976D01*
X011593Y034022D01*
X011617Y034066D01*
X011645Y034108D01*
X011676Y034148D01*
X011710Y034185D01*
X011747Y034220D01*
X011786Y034251D01*
X011827Y034280D01*
X011871Y034305D01*
X011917Y034327D01*
X011964Y034345D01*
X012012Y034359D01*
X012061Y034370D01*
X012111Y034377D01*
X012161Y034380D01*
X012212Y034379D01*
X012262Y034374D01*
X012312Y034365D01*
X012360Y034353D01*
X012408Y034336D01*
X012454Y034316D01*
X012499Y034293D01*
X012542Y034266D01*
X012582Y034236D01*
X012620Y034203D01*
X012655Y034167D01*
X012688Y034128D01*
X012717Y034087D01*
X012743Y034044D01*
X012766Y033999D01*
X012785Y033952D01*
X012800Y033904D01*
X012812Y033855D01*
X012820Y033805D01*
X012824Y033755D01*
X012824Y033705D01*
X012820Y033655D01*
X012812Y033605D01*
X012800Y033556D01*
X012785Y033508D01*
X012766Y033461D01*
X012743Y033416D01*
X012717Y033373D01*
X012688Y033332D01*
X012655Y033293D01*
X012620Y033257D01*
X012582Y033224D01*
X012542Y033194D01*
X012499Y033167D01*
X012454Y033144D01*
X012408Y033124D01*
X012360Y033107D01*
X012312Y033095D01*
X012262Y033086D01*
X012212Y033081D01*
X012161Y033080D01*
X012111Y033083D01*
X012061Y033090D01*
X012012Y033101D01*
X011964Y033115D01*
X011917Y033133D01*
X011871Y033155D01*
X011827Y033180D01*
X011786Y033209D01*
X011747Y033240D01*
X011710Y033275D01*
X011676Y033312D01*
X011645Y033352D01*
X011617Y033394D01*
X011593Y033438D01*
X011572Y033484D01*
X011555Y033532D01*
X011542Y033580D01*
X011532Y033630D01*
X011526Y033680D01*
X011524Y033730D01*
X020972Y004990D02*
X020974Y005040D01*
X020980Y005090D01*
X020990Y005140D01*
X021003Y005188D01*
X021020Y005236D01*
X021041Y005282D01*
X021065Y005326D01*
X021093Y005368D01*
X021124Y005408D01*
X021158Y005445D01*
X021195Y005480D01*
X021234Y005511D01*
X021275Y005540D01*
X021319Y005565D01*
X021365Y005587D01*
X021412Y005605D01*
X021460Y005619D01*
X021509Y005630D01*
X021559Y005637D01*
X021609Y005640D01*
X021660Y005639D01*
X021710Y005634D01*
X021760Y005625D01*
X021808Y005613D01*
X021856Y005596D01*
X021902Y005576D01*
X021947Y005553D01*
X021990Y005526D01*
X022030Y005496D01*
X022068Y005463D01*
X022103Y005427D01*
X022136Y005388D01*
X022165Y005347D01*
X022191Y005304D01*
X022214Y005259D01*
X022233Y005212D01*
X022248Y005164D01*
X022260Y005115D01*
X022268Y005065D01*
X022272Y005015D01*
X022272Y004965D01*
X022268Y004915D01*
X022260Y004865D01*
X022248Y004816D01*
X022233Y004768D01*
X022214Y004721D01*
X022191Y004676D01*
X022165Y004633D01*
X022136Y004592D01*
X022103Y004553D01*
X022068Y004517D01*
X022030Y004484D01*
X021990Y004454D01*
X021947Y004427D01*
X021902Y004404D01*
X021856Y004384D01*
X021808Y004367D01*
X021760Y004355D01*
X021710Y004346D01*
X021660Y004341D01*
X021609Y004340D01*
X021559Y004343D01*
X021509Y004350D01*
X021460Y004361D01*
X021412Y004375D01*
X021365Y004393D01*
X021319Y004415D01*
X021275Y004440D01*
X021234Y004469D01*
X021195Y004500D01*
X021158Y004535D01*
X021124Y004572D01*
X021093Y004612D01*
X021065Y004654D01*
X021041Y004698D01*
X021020Y004744D01*
X021003Y004792D01*
X020990Y004840D01*
X020980Y004890D01*
X020974Y004940D01*
X020972Y004990D01*
D11*
X021185Y012803D03*
X021185Y013803D03*
X021185Y014803D03*
X021185Y015803D03*
X021185Y016803D03*
X021185Y017803D03*
X021185Y018803D03*
X021185Y019803D03*
X021185Y020803D03*
X021185Y021803D03*
X021185Y022803D03*
X021185Y023803D03*
X021185Y024803D03*
X021185Y025803D03*
X021185Y026803D03*
X021185Y027803D03*
X021185Y028803D03*
X021185Y029803D03*
X021185Y030803D03*
X021185Y031803D03*
X014185Y031803D03*
X014185Y030803D03*
X014185Y029803D03*
X014185Y028803D03*
X014185Y027803D03*
X014185Y026803D03*
X014185Y025803D03*
X014185Y024803D03*
X014185Y023803D03*
X014185Y022803D03*
X014185Y021803D03*
X014185Y020803D03*
X014185Y019803D03*
X014185Y018803D03*
X014185Y017803D03*
X014185Y016803D03*
X014185Y015803D03*
X014185Y014803D03*
X014185Y013803D03*
X014185Y012803D03*
X010162Y012803D03*
X010162Y013803D03*
X010162Y014803D03*
X010162Y015803D03*
X010162Y016803D03*
X010162Y017803D03*
X010162Y018803D03*
X010162Y019803D03*
X010162Y020803D03*
X010162Y021803D03*
X010162Y022803D03*
X010162Y023803D03*
X010162Y024803D03*
X010162Y025803D03*
X010162Y026803D03*
X010162Y027803D03*
X010162Y028803D03*
X010162Y029803D03*
X010162Y030803D03*
X010162Y031803D03*
X003162Y031803D03*
X003162Y030803D03*
X003162Y029803D03*
X003162Y028803D03*
X003162Y027803D03*
X003162Y026803D03*
X003162Y025803D03*
X003162Y024803D03*
X003162Y023803D03*
X003162Y022803D03*
X003162Y021803D03*
X003162Y020803D03*
X003162Y019803D03*
X003162Y018803D03*
X003162Y017803D03*
X003162Y016803D03*
X003162Y015803D03*
X003162Y014803D03*
X003162Y013803D03*
X003162Y012803D03*
D12*
X014924Y011000D03*
X015924Y011000D03*
X016924Y011000D03*
X017924Y011000D03*
X018924Y011000D03*
X019924Y011000D03*
X019924Y007000D03*
X018924Y007000D03*
X017924Y007000D03*
X016924Y007000D03*
X015924Y007000D03*
X014924Y007000D03*
D13*
X015685Y005500D03*
X015685Y004500D03*
X016685Y004500D03*
X016685Y005500D03*
X017685Y005500D03*
X017685Y004500D03*
X018685Y004500D03*
X018685Y005500D03*
X019685Y005500D03*
X019685Y004500D03*
X022140Y009413D03*
X022140Y011193D03*
X012650Y010553D03*
X012650Y009553D03*
X012650Y008553D03*
X012650Y007553D03*
X011650Y007553D03*
X011650Y008553D03*
X011650Y009553D03*
X011650Y010553D03*
X008662Y005500D03*
X008662Y004500D03*
X007662Y004500D03*
X007662Y005500D03*
X006662Y005500D03*
X006662Y004500D03*
X005662Y004500D03*
X005662Y005500D03*
X004662Y005500D03*
X004662Y004500D03*
X002160Y009413D03*
X002160Y011193D03*
X005376Y012750D03*
X005376Y013750D03*
X011650Y015803D03*
X011650Y016803D03*
X011650Y017803D03*
X011650Y018803D03*
X012650Y018803D03*
X012650Y017803D03*
X012650Y016803D03*
X012650Y015803D03*
X012650Y004553D03*
X011650Y004553D03*
X007162Y027750D03*
X006162Y027750D03*
X001900Y030803D03*
X001900Y031803D03*
X012900Y031803D03*
X012900Y030803D03*
X017185Y027750D03*
X018185Y027750D03*
D14*
X021160Y011683D03*
X021160Y008923D03*
X003140Y008923D03*
X003140Y011683D03*
D15*
X004376Y010860D03*
X004876Y010860D03*
X005376Y010860D03*
X005876Y010860D03*
X006376Y010860D03*
X006876Y010860D03*
X007376Y010860D03*
X007876Y010860D03*
X008376Y010860D03*
X008876Y010860D03*
X008876Y007140D03*
X008376Y007140D03*
X007876Y007140D03*
X007376Y007140D03*
X006876Y007140D03*
X006376Y007140D03*
X005876Y007140D03*
X005376Y007140D03*
X004876Y007140D03*
X004376Y007140D03*
D16*
X004400Y011803D03*
X004400Y012803D03*
D17*
X002575Y004990D02*
X002577Y005014D01*
X002583Y005038D01*
X002592Y005060D01*
X002605Y005080D01*
X002621Y005098D01*
X002640Y005113D01*
X002661Y005126D01*
X002683Y005134D01*
X002707Y005139D01*
X002731Y005140D01*
X002755Y005137D01*
X002778Y005130D01*
X002800Y005120D01*
X002820Y005106D01*
X002837Y005089D01*
X002852Y005070D01*
X002863Y005049D01*
X002871Y005026D01*
X002875Y005002D01*
X002875Y004978D01*
X002871Y004954D01*
X002863Y004931D01*
X002852Y004910D01*
X002837Y004891D01*
X002820Y004874D01*
X002800Y004860D01*
X002778Y004850D01*
X002755Y004843D01*
X002731Y004840D01*
X002707Y004841D01*
X002683Y004846D01*
X002661Y004854D01*
X002640Y004867D01*
X002621Y004882D01*
X002605Y004900D01*
X002592Y004920D01*
X002583Y004942D01*
X002577Y004966D01*
X002575Y004990D01*
X012024Y033730D02*
X012026Y033754D01*
X012032Y033778D01*
X012041Y033800D01*
X012054Y033820D01*
X012070Y033838D01*
X012089Y033853D01*
X012110Y033866D01*
X012132Y033874D01*
X012156Y033879D01*
X012180Y033880D01*
X012204Y033877D01*
X012227Y033870D01*
X012249Y033860D01*
X012269Y033846D01*
X012286Y033829D01*
X012301Y033810D01*
X012312Y033789D01*
X012320Y033766D01*
X012324Y033742D01*
X012324Y033718D01*
X012320Y033694D01*
X012312Y033671D01*
X012301Y033650D01*
X012286Y033631D01*
X012269Y033614D01*
X012249Y033600D01*
X012227Y033590D01*
X012204Y033583D01*
X012180Y033580D01*
X012156Y033581D01*
X012132Y033586D01*
X012110Y033594D01*
X012089Y033607D01*
X012070Y033622D01*
X012054Y033640D01*
X012041Y033660D01*
X012032Y033682D01*
X012026Y033706D01*
X012024Y033730D01*
X021472Y004990D02*
X021474Y005014D01*
X021480Y005038D01*
X021489Y005060D01*
X021502Y005080D01*
X021518Y005098D01*
X021537Y005113D01*
X021558Y005126D01*
X021580Y005134D01*
X021604Y005139D01*
X021628Y005140D01*
X021652Y005137D01*
X021675Y005130D01*
X021697Y005120D01*
X021717Y005106D01*
X021734Y005089D01*
X021749Y005070D01*
X021760Y005049D01*
X021768Y005026D01*
X021772Y005002D01*
X021772Y004978D01*
X021768Y004954D01*
X021760Y004931D01*
X021749Y004910D01*
X021734Y004891D01*
X021717Y004874D01*
X021697Y004860D01*
X021675Y004850D01*
X021652Y004843D01*
X021628Y004840D01*
X021604Y004841D01*
X021580Y004846D01*
X021558Y004854D01*
X021537Y004867D01*
X021518Y004882D01*
X021502Y004900D01*
X021489Y004920D01*
X021480Y004942D01*
X021474Y004966D01*
X021472Y004990D01*
D18*
X019063Y032761D02*
X019063Y033322D01*
X018079Y033322D02*
X018079Y032761D01*
X017292Y032761D02*
X017292Y033322D01*
X016307Y033322D02*
X016307Y032761D01*
X008040Y032761D02*
X008040Y033322D01*
X007056Y033322D02*
X007056Y032761D01*
X006268Y032761D02*
X006268Y033322D01*
X005284Y033322D02*
X005284Y032761D01*
D19*
X004075Y034108D03*
X004075Y034108D03*
X009248Y034108D03*
X009248Y034108D03*
X015099Y034108D03*
X015099Y034108D03*
X020272Y034108D03*
X020272Y034108D03*
D20*
X019063Y032156D03*
X018079Y032156D03*
X017292Y032156D03*
X016307Y032156D03*
X008040Y032156D03*
X007056Y032156D03*
X006268Y032156D03*
X005284Y032156D03*
D21*
X008900Y029551D03*
X008900Y028055D03*
X011400Y028055D03*
X011400Y029551D03*
D22*
X011400Y030303D03*
X011400Y027303D03*
X008900Y027303D03*
X008900Y030303D03*
D23*
X008900Y029551D01*
X008900Y028055D02*
X008900Y027303D01*
X007162Y027750D02*
X007162Y032049D01*
X007056Y032156D01*
X007056Y033041D01*
X006268Y033041D02*
X006268Y032156D01*
X006162Y032049D01*
X006162Y027750D01*
X005150Y029803D02*
X003162Y029803D01*
X002900Y029803D01*
X002650Y029553D01*
X002650Y024803D01*
X003162Y024803D01*
X010162Y024803D01*
X012650Y024803D01*
X012650Y029553D01*
X012900Y029803D01*
X014185Y029803D01*
X015400Y029803D01*
X015424Y029780D01*
X015400Y029803D02*
X016150Y029803D01*
X016307Y029961D01*
X016307Y032156D01*
X016307Y033041D01*
X016307Y033992D01*
X016424Y034108D01*
X020272Y034108D01*
X019063Y033041D02*
X019063Y032156D01*
X018185Y032049D02*
X018079Y032156D01*
X018079Y032406D01*
X018174Y032500D01*
X018174Y032947D01*
X018079Y033041D01*
X017292Y033041D02*
X017292Y032156D01*
X017185Y032049D01*
X017185Y027750D01*
X018185Y027750D02*
X018185Y032049D01*
X016424Y034108D02*
X015099Y034108D01*
X011400Y030303D02*
X011400Y029551D01*
X011400Y028055D02*
X011400Y027303D01*
X012650Y024803D02*
X014185Y024803D01*
X012650Y024803D02*
X012650Y019803D01*
X014185Y019803D01*
X012650Y019803D02*
X012650Y018803D01*
X012650Y017803D01*
X012650Y016803D01*
X012650Y015803D01*
X012650Y014803D01*
X014185Y014803D01*
X016650Y014803D01*
X016924Y014530D01*
X016924Y011000D01*
X017924Y011000D02*
X017924Y025577D01*
X020150Y027803D01*
X021185Y027803D01*
X021900Y029553D02*
X021650Y029803D01*
X021185Y029803D01*
X021900Y029553D02*
X021900Y024803D01*
X021185Y024803D01*
X021900Y024803D02*
X021900Y019803D01*
X021185Y019803D01*
X021900Y019803D02*
X021900Y015053D01*
X021650Y014803D01*
X021185Y014803D01*
X012650Y014803D02*
X012650Y012303D01*
X011650Y011303D01*
X011650Y010553D01*
X011650Y009553D01*
X011650Y008553D01*
X011650Y007553D01*
X011650Y004553D01*
X009150Y004053D02*
X009150Y006053D01*
X008900Y006303D01*
X008900Y007116D01*
X008876Y007140D01*
X008876Y009500D01*
X011097Y009500D01*
X011150Y009553D01*
X011650Y009553D01*
X008876Y009500D02*
X004876Y009500D01*
X003626Y009500D01*
X002247Y009500D01*
X002160Y009413D01*
X003626Y009500D02*
X003626Y007250D01*
X003737Y007140D01*
X004376Y007140D01*
X004876Y009500D02*
X004876Y010860D01*
X004876Y012327D01*
X004400Y012803D01*
X004400Y011833D02*
X004400Y011803D01*
X004400Y010803D01*
X004376Y010827D01*
X004376Y010860D01*
X003162Y014803D02*
X002900Y014803D01*
X002650Y015053D01*
X002650Y019803D01*
X003162Y019803D01*
X002650Y019803D02*
X002650Y024803D01*
X005150Y029803D02*
X005284Y029937D01*
X005284Y032156D01*
X005284Y033041D01*
X005284Y034016D01*
X005376Y034108D01*
X009248Y034108D01*
X008040Y033041D02*
X008040Y032156D01*
X005376Y034108D02*
X004075Y034108D01*
X010162Y019803D02*
X012650Y019803D01*
X012650Y014803D02*
X010162Y014803D01*
X007662Y004500D02*
X007662Y004041D01*
X007900Y003803D01*
X008900Y003803D01*
X009150Y004053D01*
D24*
X004400Y011833D03*
D25*
X005376Y012750D02*
X005376Y010860D01*
X005876Y010860D02*
X005876Y013000D01*
X005376Y013500D01*
X005376Y013750D01*
X006376Y016500D02*
X006376Y010860D01*
X006876Y010860D02*
X006876Y017500D01*
X006573Y017803D01*
X003162Y017803D01*
X003162Y018803D02*
X007073Y018803D01*
X007376Y018500D01*
X007376Y010860D01*
X007876Y010860D02*
X007876Y020500D01*
X007573Y020803D01*
X003162Y020803D01*
X003162Y021803D02*
X008073Y021803D01*
X008376Y021500D01*
X008376Y010860D01*
X008876Y010860D02*
X008876Y022500D01*
X008573Y022803D01*
X003162Y022803D01*
X003162Y016803D02*
X006073Y016803D01*
X006376Y016500D01*
X006376Y007140D02*
X006376Y006250D01*
X006126Y006000D01*
X006126Y005250D01*
X006662Y004715D01*
X006662Y004500D01*
X006662Y005500D02*
X006662Y006035D01*
X006876Y006250D01*
X006876Y007140D01*
X007376Y007140D02*
X007376Y006250D01*
X007662Y005965D01*
X007662Y005500D01*
X008126Y005250D02*
X008126Y006000D01*
X007876Y006250D01*
X007876Y007140D01*
X008376Y007140D02*
X008376Y006250D01*
X008662Y005965D01*
X008662Y005500D01*
X008126Y005250D02*
X008662Y004715D01*
X008662Y004500D01*
X005876Y006250D02*
X005876Y007140D01*
X005376Y007140D02*
X005376Y006250D01*
X005126Y006000D01*
X005126Y005250D01*
X004626Y004750D01*
X004662Y004715D01*
X004662Y004500D01*
X004662Y005500D02*
X004662Y006035D01*
X004876Y006250D01*
X004876Y007140D01*
X005876Y006250D02*
X005662Y006035D01*
X005662Y005500D01*
X012650Y007553D02*
X020400Y007553D01*
X020650Y007803D01*
X020650Y015553D01*
X020900Y015803D01*
X021185Y015803D01*
X021185Y016803D02*
X020650Y016803D01*
X020400Y016553D01*
X020400Y008803D01*
X020150Y008553D01*
X012650Y008553D01*
X012650Y009553D02*
X019150Y009553D01*
X019400Y009803D01*
X019400Y017553D01*
X019650Y017803D01*
X021185Y017803D01*
X021185Y018803D02*
X018650Y018803D01*
X018400Y018553D01*
X018400Y010553D01*
X018150Y010303D01*
X014400Y010303D01*
X014150Y010553D01*
X012650Y010553D01*
M02*
