G75*
%MOIN*%
%OFA0B0*%
%FSLAX24Y24*%
%IPPOS*%
%LPD*%
%AMOC8*
5,1,8,0,0,1.08239X$1,22.5*
%
%ADD10OC8,0.0472*%
%ADD11C,0.0591*%
%ADD12OC8,0.0600*%
%ADD13C,0.0560*%
%ADD14OC8,0.0480*%
%ADD15C,0.0561*%
%ADD16C,0.1306*%
%ADD17C,0.0669*%
%ADD18C,0.0240*%
%ADD19C,0.0220*%
%ADD20C,0.0120*%
%ADD21R,0.0354X0.0354*%
D10*
X003162Y012803D03*
X003162Y013803D03*
X003162Y014803D03*
X003162Y015803D03*
X003162Y016803D03*
X003162Y017803D03*
X003162Y018803D03*
X003162Y019803D03*
X003162Y020803D03*
X003162Y021803D03*
X003162Y022803D03*
X003162Y023803D03*
X003162Y024803D03*
X003162Y025803D03*
X003162Y026803D03*
X003162Y027803D03*
X003162Y028803D03*
X003162Y029803D03*
X003162Y030803D03*
X003162Y031803D03*
X010162Y031803D03*
X010162Y030803D03*
X010162Y029803D03*
X010162Y028803D03*
X010162Y027803D03*
X010162Y026803D03*
X010162Y025803D03*
X010162Y024803D03*
X010162Y023803D03*
X010162Y022803D03*
X010162Y021803D03*
X010162Y020803D03*
X010162Y019803D03*
X010162Y018803D03*
X010162Y017803D03*
X010162Y016803D03*
X010162Y015803D03*
X010162Y014803D03*
X010162Y013803D03*
X010162Y012803D03*
X014185Y012803D03*
X014185Y013803D03*
X014185Y014803D03*
X014185Y015803D03*
X014185Y016803D03*
X014185Y017803D03*
X014185Y018803D03*
X014185Y019803D03*
X014185Y020803D03*
X014185Y021803D03*
X014185Y022803D03*
X014185Y023803D03*
X014185Y024803D03*
X014185Y025803D03*
X014185Y026803D03*
X014185Y027803D03*
X014185Y028803D03*
X014185Y029803D03*
X014185Y030803D03*
X014185Y031803D03*
X021185Y031803D03*
X021185Y030803D03*
X021185Y029803D03*
X021185Y028803D03*
X021185Y027803D03*
X021185Y026803D03*
X021185Y025803D03*
X021185Y024803D03*
X021185Y023803D03*
X021185Y022803D03*
X021185Y021803D03*
X021185Y020803D03*
X021185Y019803D03*
X021185Y018803D03*
X021185Y017803D03*
X021185Y016803D03*
X021185Y015803D03*
X021185Y014803D03*
X021185Y013803D03*
X021185Y012803D03*
D11*
X019924Y011000D03*
X018924Y011000D03*
X017924Y011000D03*
X016924Y011000D03*
X015924Y011000D03*
X014924Y011000D03*
X014924Y007000D03*
X015924Y007000D03*
X016924Y007000D03*
X017924Y007000D03*
X018924Y007000D03*
X019924Y007000D03*
D12*
X004662Y004500D03*
X004662Y005500D03*
X005662Y005500D03*
X005662Y004500D03*
X006662Y004500D03*
X006662Y005500D03*
X007662Y005500D03*
X007662Y004500D03*
X008662Y004500D03*
X008662Y005500D03*
X011650Y004553D03*
X012650Y004553D03*
X012650Y007553D03*
X012650Y008553D03*
X012650Y009553D03*
X012650Y010553D03*
X011650Y010553D03*
X011650Y009553D03*
X011650Y008553D03*
X011650Y007553D03*
X015685Y005500D03*
X015685Y004500D03*
X016685Y004500D03*
X016685Y005500D03*
X017685Y005500D03*
X017685Y004500D03*
X018685Y004500D03*
X018685Y005500D03*
X019685Y005500D03*
X019685Y004500D03*
X022140Y009413D03*
X022140Y011193D03*
X012650Y015803D03*
X012650Y016803D03*
X012650Y017803D03*
X012650Y018803D03*
X011650Y018803D03*
X011650Y017803D03*
X011650Y016803D03*
X011650Y015803D03*
X005376Y013750D03*
X005376Y012750D03*
X002160Y011193D03*
X002160Y009413D03*
X006162Y027750D03*
X007162Y027750D03*
X001900Y030803D03*
X001900Y031803D03*
X012900Y031803D03*
X012900Y030803D03*
X017185Y027750D03*
X018185Y027750D03*
D13*
X021160Y011683D03*
X021160Y008923D03*
X003140Y008923D03*
X003140Y011683D03*
D14*
X004400Y011803D03*
X004400Y012803D03*
D15*
X005284Y032761D02*
X005284Y033322D01*
X006268Y033322D02*
X006268Y032761D01*
X007056Y032761D02*
X007056Y033322D01*
X008040Y033322D02*
X008040Y032761D01*
X016307Y032761D02*
X016307Y033322D01*
X017292Y033322D02*
X017292Y032761D01*
X018079Y032761D02*
X018079Y033322D01*
X019063Y033322D02*
X019063Y032761D01*
D16*
X020272Y034108D03*
X020272Y034108D03*
X015099Y034108D03*
X015099Y034108D03*
X009248Y034108D03*
X009248Y034108D03*
X004075Y034108D03*
X004075Y034108D03*
D17*
X008900Y030303D03*
X008900Y027303D03*
X011400Y027303D03*
X011400Y030303D03*
D18*
X010900Y030303D01*
X010400Y030803D01*
X010162Y030803D01*
X010162Y029803D02*
X009650Y029803D01*
X009400Y029553D01*
X008400Y029553D01*
X008150Y029803D01*
X003162Y029803D01*
X008040Y031553D02*
X008040Y033041D01*
X008040Y031553D02*
X008290Y031303D01*
X008900Y031303D01*
X008892Y031295D01*
X008892Y031303D01*
X008900Y030303D01*
X008900Y031303D02*
X018961Y031303D01*
X019063Y031406D01*
X019063Y033041D01*
X020650Y030803D02*
X021185Y030803D01*
X021185Y030839D01*
X020650Y030803D02*
X020150Y030303D01*
X011400Y030303D01*
X010162Y027803D02*
X009650Y027803D01*
X009400Y028053D01*
X008400Y028053D01*
X008150Y027803D01*
X008150Y012053D01*
X007930Y011833D01*
X004400Y011833D01*
X012650Y004553D02*
X013400Y004553D01*
X013400Y027053D01*
X013150Y027303D01*
X011400Y027303D01*
X008900Y027303D01*
X014185Y029803D02*
X021185Y029803D01*
X016924Y011000D02*
X016924Y009803D01*
X021900Y009803D01*
X022140Y009563D01*
X022140Y009413D01*
X018703Y005500D02*
X019213Y005053D01*
X018685Y004738D02*
X018685Y004500D01*
X018685Y004738D02*
X018652Y004738D01*
X018213Y005178D01*
X018650Y005535D02*
X018685Y005500D01*
X018703Y005500D01*
X018650Y005535D02*
X018650Y006303D01*
X017953Y007000D01*
X017924Y007000D01*
X017703Y006500D02*
X018213Y005991D01*
X017703Y006500D02*
X017174Y006500D01*
X016924Y006750D01*
X016924Y007000D01*
X016924Y009803D01*
X013400Y004553D02*
X013400Y003303D01*
X013650Y003053D01*
X018900Y003053D01*
X019213Y003366D01*
D19*
X019213Y005053D01*
X018213Y005178D02*
X018213Y005991D01*
D20*
X017685Y005988D02*
X017685Y005500D01*
X017685Y005988D02*
X017424Y006250D01*
X016174Y006250D01*
X015900Y006553D01*
X015924Y006577D01*
X015924Y007000D01*
X015174Y006000D02*
X014924Y006250D01*
X014924Y007000D01*
X015174Y006000D02*
X016924Y006000D01*
X017174Y005750D01*
X017174Y005000D01*
X017674Y004500D01*
X017685Y004500D01*
X019650Y006053D02*
X018924Y006780D01*
X018924Y007000D01*
X019650Y006053D02*
X019650Y005535D01*
X019685Y005500D01*
X020150Y005303D02*
X019650Y004803D01*
X019650Y004535D01*
X019685Y004500D01*
X020150Y005303D02*
X020150Y006053D01*
X019924Y006280D01*
X019924Y007000D01*
X019924Y011000D02*
X019924Y018530D01*
X019650Y018803D01*
X014185Y018803D01*
X014185Y017803D02*
X018650Y017803D01*
X018900Y017553D01*
X018900Y011024D01*
X018924Y011000D01*
X015924Y011000D02*
X015924Y016530D01*
X015650Y016803D01*
X014185Y016803D01*
X014185Y015803D02*
X014650Y015803D01*
X014924Y015530D01*
X014924Y011000D01*
X011650Y015803D02*
X010162Y015803D01*
X010162Y016803D02*
X011650Y016803D01*
X011650Y017803D02*
X010162Y017803D01*
X010162Y018803D02*
X011650Y018803D01*
X010162Y021803D02*
X008900Y021803D01*
X008650Y021553D01*
X008650Y010803D01*
X008400Y010553D01*
X003150Y010553D01*
X002510Y011193D01*
X002160Y011193D01*
X001900Y030803D02*
X003162Y030803D01*
X003162Y031803D02*
X001900Y031803D01*
X012900Y031803D02*
X014185Y031803D01*
X014185Y030803D02*
X012900Y030803D01*
X021185Y021803D02*
X021900Y021803D01*
X022140Y021563D01*
X022140Y011193D01*
D21*
X004400Y011833D03*
M02*
