G75*
%MOIN*%
%OFA0B0*%
%FSLAX24Y24*%
%IPPOS*%
%LPD*%
%AMOC8*
5,1,8,0,0,1.08239X$1,22.5*
%
%ADD10C,0.0110*%
%ADD11C,0.0060*%
%ADD12C,0.0120*%
%ADD13C,0.0050*%
%ADD14C,0.0240*%
%ADD15C,0.0040*%
%ADD16C,0.0300*%
%ADD17R,0.0300X0.0200*%
%ADD18R,0.0300X0.0400*%
%ADD19R,0.0300X0.0300*%
%ADD20C,0.0079*%
%ADD21C,0.0100*%
%ADD22R,0.0736X0.0200*%
%ADD23R,0.0335X0.0250*%
D10*
X010004Y003858D02*
X010201Y004055D01*
X010004Y004252D01*
X010595Y004252D01*
X010497Y004503D02*
X010595Y004601D01*
X010595Y004798D01*
X010497Y004896D01*
X010300Y004896D01*
X010201Y004798D01*
X010201Y004601D01*
X010300Y004503D01*
X010497Y004503D01*
X010595Y003858D02*
X010004Y003858D01*
X010201Y005147D02*
X010497Y005147D01*
X010595Y005246D01*
X010595Y005541D01*
X010201Y005541D01*
X010300Y005792D02*
X010201Y005890D01*
X010201Y006185D01*
X010398Y006087D02*
X010398Y005890D01*
X010300Y005792D01*
X010595Y005792D02*
X010595Y006087D01*
X010497Y006185D01*
X010398Y006087D01*
X010398Y006436D02*
X010398Y006830D01*
X010300Y006830D01*
X010201Y006732D01*
X010201Y006535D01*
X010300Y006436D01*
X010497Y006436D01*
X010595Y006535D01*
X010595Y006732D01*
X013504Y005792D02*
X014095Y005792D01*
X014095Y006087D01*
X013997Y006185D01*
X013800Y006185D01*
X013701Y006087D01*
X013701Y005792D01*
X013701Y005541D02*
X014193Y005541D01*
X014292Y005443D01*
X014292Y005344D01*
X014095Y005246D02*
X014095Y005541D01*
X014095Y005246D02*
X013997Y005147D01*
X013701Y005147D01*
X013800Y004896D02*
X013898Y004896D01*
X013898Y004503D01*
X013800Y004503D02*
X013997Y004503D01*
X014095Y004601D01*
X014095Y004798D01*
X014095Y004252D02*
X013800Y003957D01*
X013898Y003858D02*
X013504Y004252D01*
X013800Y004503D02*
X013701Y004601D01*
X013701Y004798D01*
X013800Y004896D01*
X013504Y003858D02*
X014095Y003858D01*
X013997Y006436D02*
X013800Y006436D01*
X013701Y006535D01*
X013701Y006732D01*
X013800Y006830D01*
X013997Y006830D01*
X014095Y006732D01*
X014095Y006535D01*
X013997Y006436D01*
X013997Y007081D02*
X013898Y007179D01*
X013898Y007475D01*
X013800Y007475D02*
X014095Y007475D01*
X014095Y007179D01*
X013997Y007081D01*
X013701Y007179D02*
X013701Y007376D01*
X013800Y007475D01*
X013898Y007725D02*
X013701Y007922D01*
X013701Y008021D01*
X013800Y008263D02*
X013701Y008361D01*
X013701Y008656D01*
X013504Y008656D02*
X014095Y008656D01*
X014095Y008361D01*
X013997Y008263D01*
X013800Y008263D01*
X013701Y007725D02*
X014095Y007725D01*
X014728Y013555D02*
X014728Y013850D01*
X014827Y013949D01*
X015220Y013949D01*
X015319Y013850D01*
X015319Y013555D01*
X014728Y013555D01*
X014925Y014200D02*
X015319Y014200D01*
X015122Y014200D02*
X014925Y014396D01*
X014925Y014495D01*
X014925Y014835D02*
X014925Y015032D01*
X015023Y015130D01*
X015319Y015130D01*
X015319Y014835D01*
X015220Y014737D01*
X015122Y014835D01*
X015122Y015130D01*
X015023Y015381D02*
X015220Y015381D01*
X015319Y015480D01*
X015319Y015775D01*
X015417Y015775D02*
X014925Y015775D01*
X014925Y015480D01*
X015023Y015381D01*
X015023Y016026D02*
X015220Y016026D01*
X015319Y016124D01*
X015319Y016321D01*
X015220Y016419D01*
X015023Y016419D01*
X014925Y016321D01*
X014925Y016124D01*
X015023Y016026D01*
X015417Y015775D02*
X015515Y015676D01*
X015515Y015578D01*
X015778Y015238D02*
X016369Y015238D01*
X016369Y014943D01*
X016270Y014844D01*
X016073Y014844D01*
X015975Y014943D01*
X015975Y015238D01*
X016073Y014593D02*
X015975Y014495D01*
X015975Y014200D01*
X016369Y014200D01*
X016369Y013949D02*
X016369Y013653D01*
X016270Y013555D01*
X016172Y013653D01*
X016172Y013949D01*
X016073Y013949D02*
X016369Y013949D01*
X016073Y013949D02*
X015975Y013850D01*
X015975Y013653D01*
X016073Y014593D02*
X016369Y014593D01*
X016270Y016133D02*
X015778Y016133D01*
X015778Y016527D02*
X016270Y016527D01*
X016369Y016428D01*
X016369Y016232D01*
X016270Y016133D01*
X016270Y016778D02*
X016369Y016876D01*
X016369Y017073D01*
X016270Y017171D01*
X016172Y017171D01*
X016073Y017073D01*
X016073Y016876D01*
X015975Y016778D01*
X015877Y016778D01*
X015778Y016876D01*
X015778Y017073D01*
X015877Y017171D01*
X015778Y017422D02*
X015778Y017718D01*
X015877Y017816D01*
X015975Y017816D01*
X016073Y017718D01*
X016073Y017422D01*
X015778Y017422D02*
X016369Y017422D01*
X016369Y017718D01*
X016270Y017816D01*
X016172Y017816D01*
X016073Y017718D01*
X015778Y018711D02*
X015975Y018908D01*
X015778Y019105D01*
X016369Y019105D01*
X016270Y019356D02*
X016369Y019454D01*
X016369Y019651D01*
X016270Y019750D01*
X016073Y019750D01*
X015975Y019651D01*
X015975Y019454D01*
X016073Y019356D01*
X016270Y019356D01*
X016270Y020000D02*
X015975Y020000D01*
X016270Y020000D02*
X016369Y020099D01*
X016369Y020394D01*
X015975Y020394D01*
X016073Y020645D02*
X015975Y020743D01*
X015975Y021039D01*
X016172Y020940D02*
X016172Y020743D01*
X016073Y020645D01*
X016369Y020645D02*
X016369Y020940D01*
X016270Y021039D01*
X016172Y020940D01*
X016172Y021290D02*
X016172Y021683D01*
X016073Y021683D01*
X015975Y021585D01*
X015975Y021388D01*
X016073Y021290D01*
X016270Y021290D01*
X016369Y021388D01*
X016369Y021585D01*
X015319Y021710D02*
X015220Y021612D01*
X015319Y021710D02*
X015319Y021907D01*
X015220Y022006D01*
X015122Y022006D01*
X015023Y021907D01*
X015023Y021710D01*
X014925Y021612D01*
X014827Y021612D01*
X014728Y021710D01*
X014728Y021907D01*
X014827Y022006D01*
X014728Y022256D02*
X014728Y022552D01*
X014827Y022650D01*
X014925Y022650D01*
X015023Y022552D01*
X015023Y022256D01*
X014728Y022256D02*
X015319Y022256D01*
X015319Y022552D01*
X015220Y022650D01*
X015122Y022650D01*
X015023Y022552D01*
X015122Y023546D02*
X014728Y023939D01*
X015023Y024190D02*
X014925Y024288D01*
X014925Y024485D01*
X015023Y024584D01*
X015122Y024584D01*
X015122Y024190D01*
X015220Y024190D02*
X015023Y024190D01*
X015220Y024190D02*
X015319Y024288D01*
X015319Y024485D01*
X015220Y024835D02*
X015319Y024933D01*
X015319Y025228D01*
X015417Y025228D02*
X015515Y025130D01*
X015515Y025031D01*
X015417Y025228D02*
X014925Y025228D01*
X014925Y025479D02*
X014925Y025774D01*
X015023Y025873D01*
X015220Y025873D01*
X015319Y025774D01*
X015319Y025479D01*
X014728Y025479D01*
X014925Y024835D02*
X015220Y024835D01*
X015319Y023939D02*
X015023Y023644D01*
X014728Y023546D02*
X015319Y023546D01*
X015220Y021361D02*
X014728Y021361D01*
X014728Y020967D02*
X015220Y020967D01*
X015319Y021066D01*
X015319Y021263D01*
X015220Y021361D01*
X015122Y020072D02*
X015122Y019777D01*
X015220Y019678D01*
X015319Y019777D01*
X015319Y020072D01*
X015023Y020072D01*
X014925Y019973D01*
X014925Y019777D01*
X014925Y019445D02*
X014925Y019249D01*
X014827Y019347D02*
X015220Y019347D01*
X015319Y019445D01*
X015122Y018998D02*
X015122Y018604D01*
X015220Y018604D02*
X015023Y018604D01*
X014925Y018702D01*
X014925Y018899D01*
X015023Y018998D01*
X015122Y018998D01*
X015319Y018899D02*
X015319Y018702D01*
X015220Y018604D01*
X015220Y018353D02*
X015319Y018255D01*
X015319Y017959D01*
X014728Y017959D01*
X014728Y018255D01*
X014827Y018353D01*
X014925Y018353D01*
X015023Y018255D01*
X015023Y017959D01*
X015023Y018255D02*
X015122Y018353D01*
X015220Y018353D01*
X015778Y018711D02*
X016369Y018711D01*
X015319Y017064D02*
X015023Y017064D01*
X014925Y016966D01*
X014925Y016670D01*
X015319Y016670D01*
X019528Y016643D02*
X019528Y016446D01*
X019627Y016348D01*
X019528Y016643D02*
X019627Y016742D01*
X019725Y016742D01*
X020119Y016348D01*
X020119Y016742D01*
X020020Y016993D02*
X019627Y017386D01*
X020020Y017386D01*
X020119Y017288D01*
X020119Y017091D01*
X020020Y016993D01*
X019627Y016993D01*
X019528Y017091D01*
X019528Y017288D01*
X019627Y017386D01*
X019627Y018282D02*
X019528Y018380D01*
X019528Y018577D01*
X019627Y018675D01*
X019725Y018675D01*
X020119Y018282D01*
X020119Y018675D01*
X020020Y018926D02*
X019627Y019320D01*
X020020Y019320D01*
X020119Y019221D01*
X020119Y019025D01*
X020020Y018926D01*
X019627Y018926D01*
X019528Y019025D01*
X019528Y019221D01*
X019627Y019320D01*
X019627Y019571D02*
X019528Y019669D01*
X019528Y019866D01*
X019627Y019964D01*
X019725Y019964D01*
X020119Y019571D01*
X020119Y019964D01*
X020119Y020215D02*
X019725Y020609D01*
X019627Y020609D01*
X019528Y020511D01*
X019528Y020314D01*
X019627Y020215D01*
X020119Y020215D02*
X020119Y020609D01*
X019823Y020860D02*
X019823Y021254D01*
X019627Y021504D02*
X019528Y021603D01*
X019528Y021800D01*
X019627Y021898D01*
X020020Y021504D01*
X020119Y021603D01*
X020119Y021800D01*
X020020Y021898D01*
X019627Y021898D01*
X019627Y022149D02*
X019725Y022149D01*
X019823Y022247D01*
X019823Y022543D01*
X019627Y022543D02*
X019528Y022444D01*
X019528Y022247D01*
X019627Y022149D01*
X019627Y022543D02*
X020020Y022543D01*
X020119Y022444D01*
X020119Y022247D01*
X020020Y022149D01*
X020020Y021504D02*
X019627Y021504D01*
X019823Y022794D02*
X019823Y023187D01*
X019627Y023438D02*
X019528Y023537D01*
X019528Y023733D01*
X019627Y023832D01*
X019725Y023832D01*
X020119Y023438D01*
X020119Y023832D01*
X020020Y024083D02*
X019922Y024083D01*
X019823Y024181D01*
X019823Y024378D01*
X019922Y024476D01*
X020020Y024476D01*
X020119Y024378D01*
X020119Y024181D01*
X020020Y024083D01*
X019823Y024181D02*
X019725Y024083D01*
X019627Y024083D01*
X019528Y024181D01*
X019528Y024378D01*
X019627Y024476D01*
X019725Y024476D01*
X019823Y024378D01*
X019922Y025372D02*
X019922Y025667D01*
X019823Y025765D01*
X019627Y025765D01*
X019528Y025667D01*
X019528Y025372D01*
X020119Y025372D01*
X019922Y025569D02*
X020119Y025765D01*
X020020Y026016D02*
X019922Y026115D01*
X019922Y026410D01*
X019823Y026410D02*
X020119Y026410D01*
X020119Y026115D01*
X020020Y026016D01*
X019725Y026115D02*
X019725Y026312D01*
X019823Y026410D01*
X019725Y026661D02*
X019725Y026759D01*
X019823Y026858D01*
X019725Y026956D01*
X019823Y027055D01*
X020119Y027055D01*
X020119Y026858D02*
X019823Y026858D01*
X019725Y026661D02*
X020119Y026661D01*
X020020Y027305D02*
X019823Y027305D01*
X019725Y027404D01*
X019725Y027601D01*
X019823Y027699D01*
X020020Y027699D01*
X020119Y027601D01*
X020119Y027404D01*
X020020Y027305D01*
X019725Y027950D02*
X019725Y028147D01*
X019627Y028048D02*
X020020Y028048D01*
X020119Y028147D01*
X020119Y028380D02*
X019528Y028380D01*
X019725Y028478D02*
X019725Y028675D01*
X019823Y028773D01*
X020119Y028773D01*
X019823Y028380D02*
X019725Y028478D01*
X015319Y028344D02*
X015319Y028048D01*
X015220Y027950D01*
X015023Y027950D01*
X014925Y028048D01*
X014925Y028344D01*
X014728Y028344D02*
X015319Y028344D01*
X014925Y027708D02*
X014925Y027610D01*
X015122Y027413D01*
X015319Y027413D02*
X014925Y027413D01*
X015023Y027162D02*
X015319Y027162D01*
X015319Y026867D01*
X015220Y026768D01*
X015122Y026867D01*
X015122Y027162D01*
X015023Y027162D02*
X014925Y027064D01*
X014925Y026867D01*
X015023Y026517D02*
X014925Y026419D01*
X014925Y026222D01*
X015023Y026124D01*
X015220Y026124D01*
X015319Y026222D01*
X015319Y026419D01*
X015220Y026517D01*
X015023Y026517D01*
X020020Y016124D02*
X020119Y016124D01*
X020119Y016026D01*
X020020Y016026D01*
X020020Y016124D01*
X020119Y015775D02*
X020119Y015381D01*
X020119Y015578D02*
X019528Y015578D01*
X019725Y015381D01*
X019725Y014495D02*
X019922Y014200D01*
X020119Y014495D01*
X020119Y014200D02*
X019528Y014200D01*
X019528Y013949D02*
X020119Y013949D01*
X020119Y013555D02*
X019528Y013555D01*
X019725Y013752D01*
X019528Y013949D01*
D11*
X005162Y002750D02*
X004162Y002750D01*
X004162Y003750D01*
X005162Y003750D01*
X005162Y002750D01*
X006162Y002750D01*
X007162Y002750D01*
X008162Y002750D01*
X009162Y002750D01*
X009162Y003750D01*
X008162Y003750D01*
X007162Y003750D01*
X006162Y003750D01*
X005162Y003750D01*
X006162Y003750D02*
X006162Y002750D01*
X007162Y002750D02*
X007162Y003750D01*
X008162Y003750D02*
X008162Y002750D01*
X011150Y002803D02*
X012150Y002803D01*
X013150Y002803D01*
X013150Y003803D01*
X012150Y003803D01*
X011150Y003803D01*
X011150Y002803D01*
X012150Y002803D02*
X012150Y003803D01*
X011813Y005083D02*
X011586Y005083D01*
X011530Y005140D01*
X011530Y005253D01*
X011586Y005310D01*
X011700Y005310D02*
X011700Y005197D01*
X011700Y005310D02*
X011813Y005310D01*
X011870Y005253D01*
X011870Y005140D01*
X011813Y005083D01*
X011870Y005451D02*
X011530Y005451D01*
X011870Y005678D01*
X011530Y005678D01*
X011530Y005820D02*
X011530Y005990D01*
X011586Y006047D01*
X011813Y006047D01*
X011870Y005990D01*
X011870Y005820D01*
X011530Y005820D01*
X011400Y007053D02*
X012900Y007053D01*
X013150Y007303D01*
X013150Y007803D01*
X012900Y008053D01*
X011400Y008053D01*
X011150Y007803D01*
X011150Y007303D01*
X011400Y007053D01*
X011400Y008053D02*
X011150Y008303D01*
X011150Y008803D01*
X011400Y009053D01*
X012900Y009053D01*
X013150Y008803D01*
X013150Y008303D01*
X012900Y008053D01*
X012900Y009053D02*
X013150Y009303D01*
X013150Y009803D01*
X012900Y010053D01*
X011400Y010053D01*
X011150Y009803D01*
X011150Y009303D01*
X011400Y009053D01*
X011400Y010053D02*
X011150Y010303D01*
X011150Y010803D01*
X011400Y011053D01*
X012900Y011053D01*
X013150Y010803D01*
X013150Y010303D01*
X012900Y010053D01*
X012587Y011833D02*
X012473Y011833D01*
X012417Y011890D01*
X012643Y012117D01*
X012643Y011890D01*
X012587Y011833D01*
X012417Y011890D02*
X012417Y012117D01*
X012473Y012173D01*
X012587Y012173D01*
X012643Y012117D01*
X012643Y012433D02*
X012417Y012433D01*
X012530Y012433D02*
X012530Y012773D01*
X012417Y012660D01*
X012275Y012773D02*
X012162Y012773D01*
X012218Y012773D02*
X012218Y012490D01*
X012162Y012433D01*
X012105Y012433D01*
X012048Y012490D01*
X011907Y012433D02*
X011737Y012603D01*
X011680Y012547D02*
X011907Y012773D01*
X011680Y012773D02*
X011680Y012433D01*
X011680Y012173D02*
X011680Y011833D01*
X011680Y011947D02*
X011907Y012173D01*
X011737Y012003D02*
X011907Y011833D01*
X012048Y011890D02*
X012105Y011833D01*
X012162Y011833D01*
X012218Y011890D01*
X012218Y012173D01*
X012162Y012173D02*
X012275Y012173D01*
X012162Y013033D02*
X012105Y013033D01*
X012048Y013090D01*
X012162Y013033D02*
X012218Y013090D01*
X012218Y013373D01*
X012162Y013373D02*
X012275Y013373D01*
X012417Y013317D02*
X012473Y013373D01*
X012587Y013373D01*
X012643Y013317D01*
X012643Y013260D01*
X012417Y013033D01*
X012643Y013033D01*
X012587Y013633D02*
X012473Y013633D01*
X012417Y013690D01*
X012530Y013803D02*
X012587Y013803D01*
X012643Y013747D01*
X012643Y013690D01*
X012587Y013633D01*
X012587Y013803D02*
X012643Y013860D01*
X012643Y013917D01*
X012587Y013973D01*
X012473Y013973D01*
X012417Y013917D01*
X012275Y013973D02*
X012162Y013973D01*
X012218Y013973D02*
X012218Y013690D01*
X012162Y013633D01*
X012105Y013633D01*
X012048Y013690D01*
X011907Y013633D02*
X011737Y013803D01*
X011680Y013747D02*
X011907Y013973D01*
X011680Y013973D02*
X011680Y013633D01*
X011680Y013373D02*
X011680Y013033D01*
X011680Y013147D02*
X011907Y013373D01*
X011737Y013203D02*
X011907Y013033D01*
X011400Y015303D02*
X012900Y015303D01*
X013150Y015553D01*
X013150Y016053D01*
X012900Y016303D01*
X011400Y016303D01*
X011150Y016053D01*
X011150Y015553D01*
X011400Y015303D01*
X011400Y016303D02*
X011150Y016553D01*
X011150Y017053D01*
X011400Y017303D01*
X012900Y017303D01*
X013150Y017053D01*
X013150Y016553D01*
X012900Y016303D01*
X012900Y017303D02*
X013150Y017553D01*
X013150Y018053D01*
X012900Y018303D01*
X011400Y018303D01*
X011150Y018053D01*
X011150Y017553D01*
X011400Y017303D01*
X011400Y018303D02*
X011150Y018553D01*
X011150Y019053D01*
X011400Y019303D01*
X012900Y019303D01*
X013150Y019053D01*
X013150Y018553D01*
X012900Y018303D01*
X012587Y020083D02*
X012473Y020083D01*
X012417Y020140D01*
X012643Y020367D01*
X012643Y020140D01*
X012587Y020083D01*
X012417Y020140D02*
X012417Y020367D01*
X012473Y020423D01*
X012587Y020423D01*
X012643Y020367D01*
X012643Y020683D02*
X012417Y020683D01*
X012530Y020683D02*
X012530Y021023D01*
X012417Y020910D01*
X012275Y021023D02*
X012162Y021023D01*
X012218Y021023D02*
X012218Y020740D01*
X012162Y020683D01*
X012105Y020683D01*
X012048Y020740D01*
X011907Y020683D02*
X011907Y021023D01*
X011793Y020910D01*
X011680Y021023D01*
X011680Y020683D01*
X011680Y020423D02*
X011793Y020310D01*
X011907Y020423D01*
X011907Y020083D01*
X012048Y020140D02*
X012105Y020083D01*
X012162Y020083D01*
X012218Y020140D01*
X012218Y020423D01*
X012162Y020423D02*
X012275Y020423D01*
X011680Y020423D02*
X011680Y020083D01*
X011680Y021283D02*
X011680Y021623D01*
X011793Y021510D01*
X011907Y021623D01*
X011907Y021283D01*
X012048Y021340D02*
X012105Y021283D01*
X012162Y021283D01*
X012218Y021340D01*
X012218Y021623D01*
X012162Y021623D02*
X012275Y021623D01*
X012417Y021567D02*
X012473Y021623D01*
X012587Y021623D01*
X012643Y021567D01*
X012643Y021510D01*
X012417Y021283D01*
X012643Y021283D01*
X012587Y021883D02*
X012473Y021883D01*
X012417Y021940D01*
X012530Y022053D02*
X012587Y022053D01*
X012643Y021997D01*
X012643Y021940D01*
X012587Y021883D01*
X012587Y022053D02*
X012643Y022110D01*
X012643Y022167D01*
X012587Y022223D01*
X012473Y022223D01*
X012417Y022167D01*
X012275Y022223D02*
X012162Y022223D01*
X012218Y022223D02*
X012218Y021940D01*
X012162Y021883D01*
X012105Y021883D01*
X012048Y021940D01*
X011907Y021883D02*
X011907Y022223D01*
X011793Y022110D01*
X011680Y022223D01*
X011680Y021883D01*
X011762Y027983D02*
X011038Y027983D01*
X011038Y029623D01*
X011762Y029623D01*
X011762Y027983D01*
X011650Y028403D02*
X011400Y028803D01*
X011150Y028803D01*
X011400Y028803D02*
X011150Y028403D01*
X011650Y028403D01*
X011400Y028203D02*
X011400Y028803D01*
X011650Y028803D01*
X011400Y028803D02*
X011400Y029053D01*
X012650Y030303D02*
X012400Y030553D01*
X012400Y031053D01*
X012650Y031303D01*
X012400Y031553D01*
X012400Y032053D01*
X012650Y032303D01*
X013150Y032303D01*
X013400Y032053D01*
X013400Y031553D01*
X013150Y031303D01*
X013400Y031053D01*
X013400Y030553D01*
X013150Y030303D01*
X012650Y030303D01*
X012650Y031303D02*
X013150Y031303D01*
X015685Y035238D02*
X016185Y037541D01*
X016685Y037541D01*
X017185Y035238D01*
X016685Y037541D01*
X016185Y037541D01*
X015685Y035238D01*
X018185Y035238D02*
X018685Y037541D01*
X019185Y037541D01*
X019685Y035238D01*
X019185Y037541D01*
X018685Y037541D01*
X018185Y035238D01*
X018167Y030476D02*
X018223Y030419D01*
X018280Y030476D01*
X018337Y030476D01*
X018394Y030419D01*
X018394Y030306D01*
X018337Y030249D01*
X018223Y030362D02*
X018223Y030419D01*
X018167Y030476D02*
X018110Y030476D01*
X018053Y030419D01*
X018053Y030306D01*
X018110Y030249D01*
X018110Y030107D02*
X018223Y030107D01*
X018280Y030051D01*
X018280Y029880D01*
X018394Y029880D02*
X018053Y029880D01*
X018053Y030051D01*
X018110Y030107D01*
X018053Y029739D02*
X018053Y029512D01*
X018053Y029626D02*
X018394Y029626D01*
X018337Y029002D02*
X018223Y029002D01*
X018167Y028946D01*
X018167Y028832D01*
X018223Y028776D01*
X018337Y028776D01*
X018394Y028832D01*
X018394Y028946D01*
X018337Y029002D01*
X018394Y028643D02*
X018337Y028587D01*
X018110Y028587D01*
X018167Y028643D02*
X018167Y028530D01*
X017935Y028250D02*
X018435Y028250D01*
X018685Y028000D01*
X018685Y027500D01*
X018435Y027250D01*
X017935Y027250D01*
X017685Y027500D01*
X017435Y027250D01*
X016935Y027250D01*
X016685Y027500D01*
X016685Y028000D01*
X016935Y028250D01*
X017435Y028250D01*
X017685Y028000D01*
X017935Y028250D01*
X017685Y028000D02*
X017685Y027500D01*
X017337Y028587D02*
X017110Y028587D01*
X017167Y028643D02*
X017167Y028530D01*
X017337Y028587D02*
X017394Y028643D01*
X017337Y028776D02*
X017394Y028832D01*
X017394Y028946D01*
X017337Y029002D01*
X017223Y029002D01*
X017167Y028946D01*
X017167Y028832D01*
X017223Y028776D01*
X017337Y028776D01*
X017053Y029512D02*
X017053Y029739D01*
X017053Y029626D02*
X017394Y029626D01*
X017394Y029880D02*
X017053Y029880D01*
X017053Y030051D01*
X017110Y030107D01*
X017223Y030107D01*
X017280Y030051D01*
X017280Y029880D01*
X017394Y030249D02*
X017167Y030476D01*
X017110Y030476D01*
X017053Y030419D01*
X017053Y030306D01*
X017110Y030249D01*
X017394Y030249D02*
X017394Y030476D01*
X021530Y033583D02*
X021870Y033583D01*
X021757Y033583D02*
X021530Y033810D01*
X021530Y033951D02*
X021530Y034122D01*
X021586Y034178D01*
X021643Y034178D01*
X021700Y034122D01*
X021700Y033951D01*
X021870Y033951D02*
X021530Y033951D01*
X021700Y034122D02*
X021757Y034178D01*
X021813Y034178D01*
X021870Y034122D01*
X021870Y033951D01*
X021870Y033810D02*
X021700Y033640D01*
X021530Y034320D02*
X021870Y034320D01*
X021870Y034490D01*
X021813Y034547D01*
X021586Y034547D01*
X021530Y034490D01*
X021530Y034320D01*
X009262Y029623D02*
X009262Y027983D01*
X008538Y027983D01*
X008538Y029623D01*
X009262Y029623D01*
X008900Y029053D02*
X008900Y028803D01*
X008650Y028803D01*
X008900Y028803D02*
X008650Y028403D01*
X009150Y028403D01*
X008900Y028803D01*
X009150Y028803D01*
X008900Y028803D02*
X008900Y028203D01*
X007662Y028000D02*
X007662Y027500D01*
X007412Y027250D01*
X006912Y027250D01*
X006662Y027500D01*
X006412Y027250D01*
X005912Y027250D01*
X005662Y027500D01*
X005662Y028000D01*
X005912Y028250D01*
X006412Y028250D01*
X006662Y028000D01*
X006912Y028250D01*
X007412Y028250D01*
X007662Y028000D01*
X007290Y028587D02*
X007346Y028643D01*
X007290Y028587D02*
X007063Y028587D01*
X007120Y028643D02*
X007120Y028530D01*
X007176Y028776D02*
X007290Y028776D01*
X007346Y028832D01*
X007346Y028946D01*
X007290Y029002D01*
X007176Y029002D01*
X007120Y028946D01*
X007120Y028832D01*
X007176Y028776D01*
X007006Y029512D02*
X007006Y029739D01*
X007006Y029626D02*
X007346Y029626D01*
X007346Y029880D02*
X007006Y029880D01*
X007006Y030051D01*
X007063Y030107D01*
X007176Y030107D01*
X007233Y030051D01*
X007233Y029880D01*
X007290Y030249D02*
X007346Y030306D01*
X007346Y030419D01*
X007290Y030476D01*
X007233Y030476D01*
X007176Y030419D01*
X007176Y030362D01*
X007176Y030419D02*
X007120Y030476D01*
X007063Y030476D01*
X007006Y030419D01*
X007006Y030306D01*
X007063Y030249D01*
X006346Y030249D02*
X006120Y030476D01*
X006063Y030476D01*
X006006Y030419D01*
X006006Y030306D01*
X006063Y030249D01*
X006063Y030107D02*
X006176Y030107D01*
X006233Y030051D01*
X006233Y029880D01*
X006346Y029880D02*
X006006Y029880D01*
X006006Y030051D01*
X006063Y030107D01*
X006006Y029739D02*
X006006Y029512D01*
X006006Y029626D02*
X006346Y029626D01*
X006346Y030249D02*
X006346Y030476D01*
X006290Y029002D02*
X006176Y029002D01*
X006120Y028946D01*
X006120Y028832D01*
X006176Y028776D01*
X006290Y028776D01*
X006346Y028832D01*
X006346Y028946D01*
X006290Y029002D01*
X006346Y028643D02*
X006290Y028587D01*
X006063Y028587D01*
X006120Y028643D02*
X006120Y028530D01*
X006662Y028000D02*
X006662Y027500D01*
X002870Y033333D02*
X002530Y033333D01*
X002643Y033447D01*
X002530Y033560D01*
X002870Y033560D01*
X002813Y033701D02*
X002870Y033758D01*
X002870Y033872D01*
X002813Y033928D01*
X002700Y033928D01*
X002643Y033872D01*
X002643Y033758D01*
X002700Y033701D01*
X002813Y033701D01*
X002813Y034070D02*
X002643Y034070D01*
X002813Y034070D02*
X002870Y034126D01*
X002870Y034297D01*
X002643Y034297D01*
X002700Y034438D02*
X002643Y034495D01*
X002643Y034665D01*
X002757Y034608D02*
X002757Y034495D01*
X002700Y034438D01*
X002870Y034438D02*
X002870Y034608D01*
X002813Y034665D01*
X002757Y034608D01*
X002757Y034806D02*
X002757Y035033D01*
X002700Y035033D01*
X002643Y034977D01*
X002643Y034863D01*
X002700Y034806D01*
X002813Y034806D01*
X002870Y034863D01*
X002870Y034977D01*
X002150Y032303D02*
X001650Y032303D01*
X001400Y032053D01*
X001400Y031553D01*
X001650Y031303D01*
X002150Y031303D01*
X002400Y031553D01*
X002400Y032053D01*
X002150Y032303D01*
X002150Y031303D02*
X002400Y031053D01*
X002400Y030553D01*
X002150Y030303D01*
X001650Y030303D01*
X001400Y030553D01*
X001400Y031053D01*
X001650Y031303D01*
X004662Y035238D02*
X005162Y037541D01*
X005662Y037541D01*
X006162Y035238D01*
X005662Y037541D01*
X005162Y037541D01*
X004662Y035238D01*
X007162Y035238D02*
X007662Y037541D01*
X008162Y037541D01*
X008662Y035238D01*
X008162Y037541D01*
X007662Y037541D01*
X007162Y035238D01*
X005626Y014250D02*
X005126Y014250D01*
X004876Y014000D01*
X004876Y013500D01*
X005126Y013250D01*
X005626Y013250D01*
X005876Y013500D01*
X005876Y014000D01*
X005626Y014250D01*
X005626Y013250D02*
X005876Y013000D01*
X005876Y012500D01*
X005626Y012250D01*
X005126Y012250D01*
X004876Y012500D01*
X004876Y013000D01*
X005126Y013250D01*
X004900Y013153D02*
X004900Y011453D01*
X004898Y011436D01*
X004894Y011419D01*
X004887Y011403D01*
X004877Y011389D01*
X004864Y011376D01*
X004850Y011366D01*
X004834Y011359D01*
X004817Y011355D01*
X004800Y011353D01*
X004000Y011353D01*
X003983Y011355D01*
X003966Y011359D01*
X003950Y011366D01*
X003936Y011376D01*
X003923Y011389D01*
X003913Y011403D01*
X003906Y011419D01*
X003902Y011436D01*
X003900Y011453D01*
X003900Y013153D01*
X003902Y013170D01*
X003906Y013187D01*
X003913Y013203D01*
X003923Y013217D01*
X003936Y013230D01*
X003950Y013240D01*
X003966Y013247D01*
X003983Y013251D01*
X004000Y013253D01*
X004800Y013253D01*
X004817Y013251D01*
X004834Y013247D01*
X004850Y013240D01*
X004864Y013230D01*
X004877Y013217D01*
X004887Y013203D01*
X004894Y013187D01*
X004898Y013170D01*
X004900Y013153D01*
X004400Y012453D02*
X004400Y012403D01*
X004400Y012203D02*
X004400Y012153D01*
X002750Y011353D02*
X002750Y011053D01*
X002650Y011053D01*
X002650Y010603D01*
X002550Y010603D01*
X002550Y010003D01*
X002650Y010003D01*
X002650Y009603D01*
X002750Y009603D01*
X002750Y009253D01*
X002650Y009253D01*
X002650Y008953D01*
X002450Y008953D01*
X002650Y008853D02*
X001250Y008853D01*
X001250Y009303D01*
X001250Y011753D01*
X002650Y011753D01*
X002650Y011653D02*
X002450Y011653D01*
X002650Y011653D02*
X002650Y011353D01*
X002750Y011353D01*
X001850Y011653D02*
X001350Y011653D01*
X001350Y010553D01*
X001350Y010053D01*
X001350Y008953D01*
X001850Y008953D01*
X001250Y009303D02*
X001150Y009303D01*
X001150Y009803D01*
X001000Y009803D01*
X001000Y010803D01*
X001150Y010803D01*
X001150Y009803D01*
X001350Y010053D02*
X001750Y010053D01*
X001750Y010553D01*
X001350Y010553D01*
X001150Y010803D02*
X001150Y011303D01*
X001250Y011303D01*
X001553Y012280D02*
X001667Y012393D01*
X001553Y012507D01*
X001894Y012507D01*
X001894Y012648D02*
X001553Y012648D01*
X001553Y012818D01*
X001610Y012875D01*
X001723Y012875D01*
X001780Y012818D01*
X001780Y012648D01*
X001780Y012762D02*
X001894Y012875D01*
X001837Y013017D02*
X001723Y013017D01*
X001667Y013073D01*
X001667Y013187D01*
X001723Y013243D01*
X001780Y013243D01*
X001780Y013017D01*
X001837Y013017D02*
X001894Y013073D01*
X001894Y013187D01*
X001894Y013385D02*
X001894Y013555D01*
X001837Y013612D01*
X001780Y013555D01*
X001780Y013442D01*
X001723Y013385D01*
X001667Y013442D01*
X001667Y013612D01*
X001723Y013753D02*
X001667Y013810D01*
X001667Y013923D01*
X001723Y013980D01*
X001780Y013980D01*
X001780Y013753D01*
X001837Y013753D02*
X001723Y013753D01*
X001837Y013753D02*
X001894Y013810D01*
X001894Y013923D01*
X001837Y014178D02*
X001894Y014235D01*
X001837Y014178D02*
X001610Y014178D01*
X001667Y014122D02*
X001667Y014235D01*
X001553Y012280D02*
X001894Y012280D01*
X012530Y005990D02*
X012530Y005876D01*
X012586Y005820D01*
X012813Y005820D01*
X012870Y005876D01*
X012870Y005990D01*
X012813Y006047D01*
X012586Y006047D02*
X012530Y005990D01*
X012586Y005678D02*
X012530Y005622D01*
X012530Y005508D01*
X012586Y005451D01*
X012813Y005451D01*
X012870Y005508D01*
X012870Y005622D01*
X012813Y005678D01*
X012757Y005310D02*
X012530Y005310D01*
X012757Y005310D02*
X012870Y005197D01*
X012757Y005083D01*
X012530Y005083D01*
X015185Y003750D02*
X015185Y002750D01*
X016185Y002750D01*
X017185Y002750D01*
X018185Y002750D01*
X019185Y002750D01*
X020185Y002750D01*
X020185Y003750D01*
X019185Y003750D01*
X018185Y003750D01*
X017185Y003750D01*
X016185Y003750D01*
X015185Y003750D01*
X016185Y003750D02*
X016185Y002750D01*
X017185Y002750D02*
X017185Y003750D01*
X018185Y003750D02*
X018185Y002750D01*
X019185Y002750D02*
X019185Y003750D01*
X021650Y008853D02*
X023050Y008853D01*
X023050Y011303D01*
X023150Y011303D01*
X023150Y010803D01*
X023300Y010803D01*
X023300Y009803D01*
X023150Y009803D01*
X023150Y010803D01*
X022950Y010553D02*
X022950Y011653D01*
X022450Y011653D01*
X022530Y012280D02*
X022303Y012507D01*
X022303Y012648D02*
X022303Y012818D01*
X022360Y012875D01*
X022473Y012875D01*
X022530Y012818D01*
X022530Y012648D01*
X022644Y012648D02*
X022303Y012648D01*
X022530Y012762D02*
X022644Y012875D01*
X022587Y013017D02*
X022644Y013073D01*
X022644Y013187D01*
X022530Y013243D02*
X022530Y013017D01*
X022473Y013017D02*
X022417Y013073D01*
X022417Y013187D01*
X022473Y013243D01*
X022530Y013243D01*
X022473Y013385D02*
X022417Y013442D01*
X022417Y013612D01*
X022530Y013555D02*
X022530Y013442D01*
X022473Y013385D01*
X022644Y013385D02*
X022644Y013555D01*
X022587Y013612D01*
X022530Y013555D01*
X022530Y013753D02*
X022530Y013980D01*
X022473Y013980D01*
X022417Y013923D01*
X022417Y013810D01*
X022473Y013753D01*
X022587Y013753D01*
X022644Y013810D01*
X022644Y013923D01*
X022587Y014178D02*
X022644Y014235D01*
X022587Y014178D02*
X022360Y014178D01*
X022417Y014122D02*
X022417Y014235D01*
X022473Y013017D02*
X022587Y013017D01*
X022644Y012507D02*
X022473Y012337D01*
X022303Y012280D02*
X022644Y012280D01*
X023050Y011753D02*
X023050Y011303D01*
X023050Y011753D02*
X021650Y011753D01*
X021650Y011653D02*
X021850Y011653D01*
X021650Y011653D02*
X021650Y011353D01*
X021550Y011353D01*
X021550Y011003D01*
X021650Y011003D01*
X021650Y010603D01*
X021750Y010603D01*
X021750Y010003D01*
X021650Y010003D01*
X021650Y009553D01*
X021550Y009553D01*
X021550Y009253D01*
X021650Y009253D01*
X021650Y008953D01*
X021850Y008953D01*
X022450Y008953D02*
X022950Y008953D01*
X022950Y010053D01*
X022950Y010553D01*
X022550Y010553D01*
X022550Y010053D01*
X022950Y010053D01*
X023150Y009803D02*
X023150Y009303D01*
X023050Y009303D01*
D12*
X012150Y006803D02*
X012150Y001053D01*
X012150Y022553D02*
X012150Y032553D01*
D13*
X013552Y032343D02*
X013552Y012264D01*
X021819Y012264D01*
X021819Y032343D01*
X013552Y032343D01*
X012855Y030078D02*
X012675Y030078D01*
X012855Y030078D01*
X012765Y030078D02*
X012765Y029808D01*
X012765Y030078D01*
X012970Y029988D02*
X013150Y029808D01*
X012970Y029988D01*
X012970Y029808D02*
X013150Y029988D01*
X012970Y029808D01*
X012810Y029598D02*
X012855Y029553D01*
X012855Y029463D01*
X012810Y029418D01*
X012675Y029418D01*
X012810Y029418D01*
X012855Y029463D01*
X012855Y029553D01*
X012810Y029598D01*
X012675Y029598D01*
X012675Y029328D01*
X012675Y029598D01*
X012810Y029598D01*
X012970Y029508D02*
X013150Y029328D01*
X012970Y029508D01*
X012970Y029328D02*
X013150Y029508D01*
X012970Y029328D01*
X012855Y029328D02*
X012765Y029418D01*
X012855Y029328D01*
X010796Y032343D02*
X010796Y012264D01*
X002528Y012264D01*
X002528Y032343D01*
X010796Y032343D01*
X007354Y027052D02*
X007204Y026977D01*
X007054Y026826D01*
X007279Y026826D01*
X007354Y026751D01*
X007354Y026676D01*
X007279Y026601D01*
X007129Y026601D01*
X007054Y026676D01*
X007054Y026826D01*
X006894Y026601D02*
X006894Y027052D01*
X006594Y027052D02*
X006594Y026601D01*
X006433Y026676D02*
X006358Y026601D01*
X006208Y026601D01*
X006133Y026676D01*
X006133Y026977D01*
X006208Y027052D01*
X006358Y027052D01*
X006433Y026977D01*
X006594Y027052D02*
X006894Y026601D01*
X002150Y029328D02*
X001970Y029508D01*
X001855Y029463D02*
X001810Y029418D01*
X001675Y029418D01*
X001675Y029328D02*
X001675Y029598D01*
X001810Y029598D01*
X001855Y029553D01*
X001855Y029463D01*
X001765Y029418D02*
X001855Y029328D01*
X001970Y029328D02*
X002150Y029508D01*
X002150Y029808D02*
X001970Y029988D01*
X001855Y030078D02*
X001675Y030078D01*
X001765Y030078D02*
X001765Y029808D01*
X001970Y029808D02*
X002150Y029988D01*
X014424Y011500D02*
X020424Y011500D01*
X020424Y006500D01*
X014424Y006500D01*
X014424Y011500D01*
X015090Y005602D02*
X015090Y005302D01*
X015090Y005452D02*
X014639Y005452D01*
X014789Y005302D01*
X014639Y005142D02*
X015090Y005142D01*
X014639Y004842D01*
X015090Y004842D01*
X015015Y004682D02*
X015090Y004606D01*
X015090Y004456D01*
X015015Y004381D01*
X014714Y004381D01*
X014639Y004456D01*
X014639Y004606D01*
X014714Y004682D01*
X009613Y004606D02*
X009538Y004682D01*
X009613Y004606D02*
X009613Y004456D01*
X009538Y004381D01*
X009238Y004381D01*
X009163Y004456D01*
X009163Y004606D01*
X009238Y004682D01*
X009163Y004842D02*
X009613Y005142D01*
X009163Y005142D01*
X009388Y005302D02*
X009163Y005527D01*
X009613Y005527D01*
X009388Y005602D02*
X009388Y005302D01*
X009613Y004842D02*
X009163Y004842D01*
X017185Y026601D02*
X017335Y026601D01*
X017410Y026676D01*
X017570Y026601D02*
X017570Y027052D01*
X017870Y026601D01*
X017870Y027052D01*
X018030Y026977D02*
X018105Y027052D01*
X018256Y027052D01*
X018331Y026977D01*
X018331Y026902D01*
X018256Y026826D01*
X018331Y026751D01*
X018331Y026676D01*
X018256Y026601D01*
X018105Y026601D01*
X018030Y026676D01*
X018180Y026826D02*
X018256Y026826D01*
X017410Y026977D02*
X017335Y027052D01*
X017185Y027052D01*
X017110Y026977D01*
X017110Y026676D01*
X017185Y026601D01*
D14*
X014935Y031553D02*
X014685Y031803D01*
X014935Y032053D01*
X014935Y031553D01*
X003912Y031553D02*
X003912Y032053D01*
X003662Y031803D01*
X003912Y031553D01*
D15*
X016654Y009748D02*
X016654Y009441D01*
X016654Y009594D02*
X016193Y009594D01*
X016347Y009441D01*
X016270Y009287D02*
X016193Y009211D01*
X016193Y008980D01*
X016654Y008980D01*
X016654Y009211D01*
X016577Y009287D01*
X016270Y009287D01*
X016193Y008827D02*
X016654Y008827D01*
X016654Y008520D02*
X016193Y008520D01*
X016347Y008673D01*
X016193Y008827D01*
X006856Y008790D02*
X006856Y008943D01*
X006780Y009020D01*
X006780Y009173D02*
X006856Y009250D01*
X006856Y009404D01*
X006780Y009480D01*
X006703Y009480D01*
X006626Y009404D01*
X006626Y009327D01*
X006626Y009404D02*
X006549Y009480D01*
X006473Y009480D01*
X006396Y009404D01*
X006396Y009250D01*
X006473Y009173D01*
X006473Y009020D02*
X006396Y008943D01*
X006396Y008790D01*
X006473Y008713D01*
X006780Y008713D01*
X006856Y008790D01*
X006856Y008560D02*
X006856Y008406D01*
X006856Y008483D02*
X006396Y008483D01*
X006396Y008406D02*
X006396Y008560D01*
D16*
X006662Y002500D02*
X006662Y000250D01*
X007662Y000250D02*
X007662Y002500D01*
X008662Y002500D02*
X008662Y000250D01*
X011650Y000303D02*
X011650Y002553D01*
X012650Y002553D02*
X012650Y000303D01*
X015685Y000250D02*
X015685Y002500D01*
X016685Y002500D02*
X016685Y000250D01*
X017685Y000250D02*
X017685Y002500D01*
X018685Y002500D02*
X018685Y000250D01*
X019685Y000250D02*
X019685Y002500D01*
X005662Y002500D02*
X005662Y000250D01*
X004662Y000250D02*
X004662Y002500D01*
D17*
X004662Y002650D03*
X005662Y002650D03*
X006662Y002650D03*
X007662Y002650D03*
X008662Y002650D03*
X011650Y002703D03*
X012650Y002703D03*
X015685Y002650D03*
X016685Y002650D03*
X017685Y002650D03*
X018685Y002650D03*
X019685Y002650D03*
D18*
X019685Y003950D03*
X018685Y003950D03*
X017685Y003950D03*
X016685Y003950D03*
X015685Y003950D03*
X012650Y004003D03*
X011650Y004003D03*
X008662Y003950D03*
X007662Y003950D03*
X006662Y003950D03*
X005662Y003950D03*
X004662Y003950D03*
D19*
X004662Y005000D03*
X005662Y005000D03*
X006662Y005000D03*
X007662Y005000D03*
X008662Y005000D03*
X015685Y005000D03*
X016685Y005000D03*
X017685Y005000D03*
X018685Y005000D03*
X019685Y005000D03*
D20*
X009146Y007661D02*
X004107Y007661D01*
X004107Y010339D01*
X009146Y010339D01*
X009146Y007661D01*
X004101Y007524D02*
X004101Y006756D01*
D21*
X004100Y012203D02*
X004400Y012203D01*
X004700Y012203D01*
X004700Y012403D02*
X004400Y012403D01*
X004100Y012403D01*
X003748Y032490D02*
X009575Y032490D01*
X009575Y038120D01*
X003748Y038120D01*
X003748Y032490D01*
X009575Y032490D01*
X009575Y038120D01*
X003748Y038120D01*
X003748Y032490D01*
X014772Y032490D02*
X014772Y038120D01*
X020599Y038120D01*
X020599Y032490D01*
X014772Y032490D01*
X020599Y032490D01*
X020599Y038120D01*
X014772Y038120D01*
X014772Y032490D01*
D22*
X011394Y029353D03*
X008894Y029353D03*
D23*
X008900Y029748D03*
X008900Y027858D03*
X011400Y027858D03*
X011400Y029748D03*
M02*
