%
M48
M72
T01C0.0236
T02C0.0315
T03C0.0320
T04C0.0354
T05C0.0374
T06C0.0394
T07C0.0400
T08C0.0433
T09C0.0906
T10C0.1300
%
T01
X4400Y11833
T02
X3162Y12803
X3162Y13803
X3162Y14803
X3162Y15803
X3162Y16803
X3162Y17803
X3162Y18803
X3162Y19803
X3162Y20803
X3162Y21803
X3162Y22803
X3162Y23803
X3162Y24803
X3162Y25803
X3162Y26803
X3162Y27803
X3162Y28803
X3162Y29803
X3162Y30803
X3162Y31803
X10162Y31803
X10162Y30803
X10162Y29803
X10162Y28803
X10162Y27803
X10162Y26803
X10162Y25803
X10162Y24803
X10162Y23803
X10162Y22803
X10162Y21803
X10162Y20803
X10162Y19803
X10162Y18803
X10162Y17803
X10162Y16803
X10162Y15803
X10162Y14803
X10162Y13803
X10162Y12803
X14185Y12803
X14185Y13803
X14185Y14803
X14185Y15803
X14185Y16803
X14185Y17803
X14185Y18803
X14185Y19803
X14185Y20803
X14185Y21803
X14185Y22803
X14185Y23803
X14185Y24803
X14185Y25803
X14185Y26803
X14185Y27803
X14185Y28803
X14185Y29803
X14185Y30803
X14185Y31803
X21185Y31803
X21185Y30803
X21185Y29803
X21185Y28803
X21185Y27803
X21185Y26803
X21185Y25803
X21185Y24803
X21185Y23803
X21185Y22803
X21185Y21803
X21185Y20803
X21185Y19803
X21185Y18803
X21185Y17803
X21185Y16803
X21185Y15803
X21185Y14803
X21185Y13803
X21185Y12803
T03
X4400Y12803
X4400Y11803
T04
X3140Y11683
X3140Y8923
X21160Y8923
X21160Y11683
T05
X19063Y33041
X18079Y33041
X17292Y33041
X16307Y33041
X8040Y33041
X7056Y33041
X6268Y33041
X5284Y33041
T06
X14924Y11000
X15924Y11000
X16924Y11000
X17924Y11000
X18924Y11000
X19924Y11000
X19924Y7000
X18924Y7000
X17924Y7000
X16924Y7000
X15924Y7000
X14924Y7000
T07
X15685Y5500
X15685Y4500
X16685Y4500
X16685Y5500
X17685Y5500
X17685Y4500
X18685Y4500
X18685Y5500
X19685Y5500
X19685Y4500
X22140Y9413
X22140Y11193
X12650Y10553
X12650Y9553
X12650Y8553
X12650Y7553
X11650Y7553
X11650Y8553
X11650Y9553
X11650Y10553
X8662Y5500
X8662Y4500
X7662Y4500
X7662Y5500
X6662Y5500
X6662Y4500
X5662Y4500
X5662Y5500
X4662Y5500
X4662Y4500
X2160Y9413
X2160Y11193
X5376Y12750
X5376Y13750
X11650Y15803
X11650Y16803
X11650Y17803
X11650Y18803
X12650Y18803
X12650Y17803
X12650Y16803
X12650Y15803
X12650Y4553
X11650Y4553
X7162Y27750
X6162Y27750
X1900Y30803
X1900Y31803
X12900Y31803
X12900Y30803
X17185Y27750
X18185Y27750
T08
X11400Y27303
X11400Y30303
X8900Y30303
X8900Y27303
T09
X9248Y34108
X9248Y34108
X4075Y34108
X4075Y34108
X15099Y34108
X15099Y34108
X20272Y34108
X20272Y34108
T10
X2725Y4990
X12174Y33730
X21622Y4990
M30
