%
M48
M72
T01C0.0320
T02C0.0360
T03C0.0400
T04C0.1100
%
T01
X11290Y7900
X12290Y7900
X13290Y7900
X14290Y7900
X15290Y7900
X16290Y7900
X17290Y7900
X18290Y7900
X19290Y7900
X20290Y7900
X21290Y7900
X22290Y7900
X23290Y7900
X24290Y7900
X25290Y7900
X26290Y7900
X21790Y9400
X20790Y9400
X19790Y9400
X18790Y9400
X17790Y9400
X16790Y9400
X15790Y9400
X14790Y9400
X13790Y9400
X12790Y9400
X10290Y11650
X9290Y11650
X10290Y12900
X10290Y13900
X11290Y13900
X12290Y13900
X13290Y13900
X14290Y13900
X15290Y13900
X16290Y13900
X17290Y13900
X18290Y13900
X19290Y13900
X20290Y13900
X21290Y13900
X22290Y13900
X23290Y13900
X24290Y13900
X25290Y13900
X26290Y13900
X21790Y12400
X20790Y12400
X19790Y12400
X18790Y12400
X17790Y12400
X16790Y12400
X15790Y12400
X14790Y12400
X13790Y12400
X12790Y12400
T02
X12290Y6150
X13290Y6150
X14290Y6150
X15290Y6150
X16290Y6150
X17290Y6150
X18290Y6150
X19290Y6150
X20290Y6150
X21290Y6150
X22290Y6150
X23290Y6150
X24290Y6150
X25290Y6150
X26290Y6150
X27290Y6150
X28290Y6150
X29290Y6150
X30290Y6150
X31290Y6150
X32290Y6150
X33290Y6150
X34290Y6150
X35290Y6150
X35290Y5150
X34290Y5150
X33290Y5150
X32290Y5150
X31290Y5150
X30290Y5150
X29290Y5150
X28290Y5150
X27290Y5150
X26290Y5150
X25290Y5150
X24290Y5150
X23290Y5150
X22290Y5150
X21290Y5150
X20290Y5150
X19290Y5150
X18290Y5150
X17290Y5150
X16290Y5150
X15290Y5150
X14290Y5150
X13290Y5150
X12290Y5150
X11290Y5150
X10290Y5150
X9290Y5150
X8290Y5150
X7290Y5150
X6290Y5150
X5290Y5150
X4290Y5150
X4290Y6150
X5290Y6150
X6290Y6150
X7290Y6150
X8290Y6150
X9290Y6150
X10290Y6150
X11290Y6150
T03
X9290Y8400
X9290Y9400
X9290Y10400
T04
X2290Y4150
X37290Y4150
M30
