G75*
%MOIN*%
%OFA0B0*%
%FSLAX24Y24*%
%IPPOS*%
%LPD*%
%AMOC8*
5,1,8,0,0,1.08239X$1,22.5*
%
%ADD10C,0.0100*%
%ADD11C,0.0000*%
%ADD12OC8,0.0540*%
%ADD13C,0.0480*%
%ADD14OC8,0.0480*%
%ADD15OC8,0.0600*%
%ADD16C,0.0240*%
%ADD17C,0.0120*%
D10*
X001290Y003158D02*
X038285Y003158D01*
X038285Y015400D01*
X001290Y015400D01*
X001290Y003158D01*
D11*
X000100Y003050D02*
X039480Y003050D01*
X036740Y004150D02*
X036742Y004197D01*
X036748Y004243D01*
X036758Y004289D01*
X036771Y004333D01*
X036789Y004377D01*
X036810Y004418D01*
X036834Y004458D01*
X036862Y004496D01*
X036893Y004531D01*
X036927Y004563D01*
X036963Y004592D01*
X037002Y004618D01*
X037042Y004641D01*
X037085Y004660D01*
X037129Y004676D01*
X037174Y004688D01*
X037220Y004696D01*
X037267Y004700D01*
X037313Y004700D01*
X037360Y004696D01*
X037406Y004688D01*
X037451Y004676D01*
X037495Y004660D01*
X037538Y004641D01*
X037578Y004618D01*
X037617Y004592D01*
X037653Y004563D01*
X037687Y004531D01*
X037718Y004496D01*
X037746Y004458D01*
X037770Y004418D01*
X037791Y004377D01*
X037809Y004333D01*
X037822Y004289D01*
X037832Y004243D01*
X037838Y004197D01*
X037840Y004150D01*
X037838Y004103D01*
X037832Y004057D01*
X037822Y004011D01*
X037809Y003967D01*
X037791Y003923D01*
X037770Y003882D01*
X037746Y003842D01*
X037718Y003804D01*
X037687Y003769D01*
X037653Y003737D01*
X037617Y003708D01*
X037578Y003682D01*
X037538Y003659D01*
X037495Y003640D01*
X037451Y003624D01*
X037406Y003612D01*
X037360Y003604D01*
X037313Y003600D01*
X037267Y003600D01*
X037220Y003604D01*
X037174Y003612D01*
X037129Y003624D01*
X037085Y003640D01*
X037042Y003659D01*
X037002Y003682D01*
X036963Y003708D01*
X036927Y003737D01*
X036893Y003769D01*
X036862Y003804D01*
X036834Y003842D01*
X036810Y003882D01*
X036789Y003923D01*
X036771Y003967D01*
X036758Y004011D01*
X036748Y004057D01*
X036742Y004103D01*
X036740Y004150D01*
X001740Y004150D02*
X001742Y004197D01*
X001748Y004243D01*
X001758Y004289D01*
X001771Y004333D01*
X001789Y004377D01*
X001810Y004418D01*
X001834Y004458D01*
X001862Y004496D01*
X001893Y004531D01*
X001927Y004563D01*
X001963Y004592D01*
X002002Y004618D01*
X002042Y004641D01*
X002085Y004660D01*
X002129Y004676D01*
X002174Y004688D01*
X002220Y004696D01*
X002267Y004700D01*
X002313Y004700D01*
X002360Y004696D01*
X002406Y004688D01*
X002451Y004676D01*
X002495Y004660D01*
X002538Y004641D01*
X002578Y004618D01*
X002617Y004592D01*
X002653Y004563D01*
X002687Y004531D01*
X002718Y004496D01*
X002746Y004458D01*
X002770Y004418D01*
X002791Y004377D01*
X002809Y004333D01*
X002822Y004289D01*
X002832Y004243D01*
X002838Y004197D01*
X002840Y004150D01*
X002838Y004103D01*
X002832Y004057D01*
X002822Y004011D01*
X002809Y003967D01*
X002791Y003923D01*
X002770Y003882D01*
X002746Y003842D01*
X002718Y003804D01*
X002687Y003769D01*
X002653Y003737D01*
X002617Y003708D01*
X002578Y003682D01*
X002538Y003659D01*
X002495Y003640D01*
X002451Y003624D01*
X002406Y003612D01*
X002360Y003604D01*
X002313Y003600D01*
X002267Y003600D01*
X002220Y003604D01*
X002174Y003612D01*
X002129Y003624D01*
X002085Y003640D01*
X002042Y003659D01*
X002002Y003682D01*
X001963Y003708D01*
X001927Y003737D01*
X001893Y003769D01*
X001862Y003804D01*
X001834Y003842D01*
X001810Y003882D01*
X001789Y003923D01*
X001771Y003967D01*
X001758Y004011D01*
X001748Y004057D01*
X001742Y004103D01*
X001740Y004150D01*
D12*
X004290Y005150D03*
X005290Y005150D03*
X006290Y005150D03*
X007290Y005150D03*
X008290Y005150D03*
X009290Y005150D03*
X010290Y005150D03*
X011290Y005150D03*
X012290Y005150D03*
X013290Y005150D03*
X014290Y005150D03*
X015290Y005150D03*
X016290Y005150D03*
X017290Y005150D03*
X018290Y005150D03*
X019290Y005150D03*
X020290Y005150D03*
X021290Y005150D03*
X022290Y005150D03*
X023290Y005150D03*
X024290Y005150D03*
X025290Y005150D03*
X026290Y005150D03*
X027290Y005150D03*
X028290Y005150D03*
X029290Y005150D03*
X030290Y005150D03*
X031290Y005150D03*
X032290Y005150D03*
X033290Y005150D03*
X034290Y005150D03*
X035290Y005150D03*
X035290Y006150D03*
X034290Y006150D03*
X033290Y006150D03*
X032290Y006150D03*
X031290Y006150D03*
X030290Y006150D03*
X029290Y006150D03*
X028290Y006150D03*
X027290Y006150D03*
X026290Y006150D03*
X025290Y006150D03*
X024290Y006150D03*
X023290Y006150D03*
X022290Y006150D03*
X021290Y006150D03*
X020290Y006150D03*
X019290Y006150D03*
X018290Y006150D03*
X017290Y006150D03*
X016290Y006150D03*
X015290Y006150D03*
X014290Y006150D03*
X013290Y006150D03*
X012290Y006150D03*
X011290Y006150D03*
X010290Y006150D03*
X009290Y006150D03*
X008290Y006150D03*
X007290Y006150D03*
X006290Y006150D03*
X005290Y006150D03*
X004290Y006150D03*
D13*
X011290Y007900D03*
X012290Y007900D03*
X013290Y007900D03*
X014290Y007900D03*
X015290Y007900D03*
X016290Y007900D03*
X017290Y007900D03*
X018290Y007900D03*
X019290Y007900D03*
X020290Y007900D03*
X021290Y007900D03*
X022290Y007900D03*
X023290Y007900D03*
X024290Y007900D03*
X025290Y007900D03*
X026290Y007900D03*
X021790Y009400D03*
X020790Y009400D03*
X019790Y009400D03*
X018790Y009400D03*
X017790Y009400D03*
X016790Y009400D03*
X015790Y009400D03*
X014790Y009400D03*
X013790Y009400D03*
X012790Y009400D03*
X012790Y012400D03*
X013790Y012400D03*
X014790Y012400D03*
X015790Y012400D03*
X016790Y012400D03*
X017790Y012400D03*
X018790Y012400D03*
X019790Y012400D03*
X020790Y012400D03*
X021790Y012400D03*
X021290Y013900D03*
X020290Y013900D03*
X019290Y013900D03*
X018290Y013900D03*
X017290Y013900D03*
X016290Y013900D03*
X015290Y013900D03*
X014290Y013900D03*
X013290Y013900D03*
X012290Y013900D03*
X011290Y013900D03*
X022290Y013900D03*
X023290Y013900D03*
X024290Y013900D03*
X025290Y013900D03*
X026290Y013900D03*
D14*
X010290Y013900D03*
X010290Y012900D03*
X010290Y011650D03*
X009290Y011650D03*
D15*
X009290Y010400D03*
X009290Y009400D03*
X009290Y008400D03*
D16*
X009290Y011650D02*
X009290Y012650D01*
X009540Y012900D01*
X010290Y012900D01*
X011290Y012900D02*
X011790Y012400D01*
X012790Y012400D01*
X011290Y012900D02*
X011290Y013900D01*
X021790Y009400D02*
X021790Y009150D01*
X021290Y008650D01*
X019040Y008650D01*
X018790Y008400D01*
X018790Y004400D01*
X035040Y004400D01*
X035290Y004650D01*
X035290Y005150D01*
X018790Y004400D02*
X004540Y004400D01*
X004290Y004650D01*
X004290Y005150D01*
D17*
X012790Y008900D02*
X013290Y008400D01*
X013290Y007900D01*
X015790Y008650D02*
X015790Y006900D01*
X016290Y006400D01*
X016290Y006150D01*
X016790Y005900D02*
X016790Y008650D01*
X017290Y009150D01*
X017290Y013900D01*
X016290Y013900D02*
X016290Y009150D01*
X015790Y008650D01*
X017790Y009400D02*
X017790Y010400D01*
X018290Y010900D01*
X018290Y012900D01*
X018790Y013400D01*
X018790Y014650D01*
X019040Y014900D01*
X034540Y014900D01*
X034790Y014650D01*
X034790Y005900D01*
X034290Y005400D01*
X034290Y005150D01*
X034290Y006150D02*
X034290Y014400D01*
X034040Y014650D01*
X020040Y014650D01*
X019790Y014400D01*
X019790Y013400D01*
X019290Y012900D01*
X019290Y010900D01*
X018790Y010400D01*
X018790Y009400D01*
X019790Y009400D02*
X019790Y010400D01*
X020290Y010900D01*
X020290Y012900D01*
X020790Y013400D01*
X020790Y014150D01*
X021040Y014400D01*
X030040Y014400D01*
X030290Y014150D01*
X030290Y006150D01*
X025290Y006150D02*
X025290Y006400D01*
X024290Y007400D01*
X024290Y007900D01*
X022290Y007900D02*
X022290Y007400D01*
X022040Y007150D01*
X020540Y007150D01*
X020290Y006900D01*
X020290Y006150D01*
X022290Y006150D02*
X022290Y006400D01*
X022790Y006900D01*
X022790Y010650D01*
X022290Y011150D01*
X022290Y013900D01*
X026290Y013900D02*
X026290Y012400D01*
X023790Y009900D01*
X023790Y006900D01*
X024290Y006400D01*
X024290Y006150D01*
X016790Y005900D02*
X016290Y005400D01*
X016290Y005150D01*
X012790Y008900D02*
X012790Y009400D01*
M02*
