G75*
%MOIN*%
%OFA0B0*%
%FSLAX24Y24*%
%IPPOS*%
%LPD*%
%AMOC8*
5,1,8,0,0,1.08239X$1,22.5*
%
%ADD10OC8,0.0590*%
%ADD11C,0.1150*%
%ADD12C,0.0530*%
%ADD13OC8,0.0530*%
%ADD14OC8,0.0650*%
D10*
X004290Y005150D03*
X005290Y005150D03*
X006290Y005150D03*
X007290Y005150D03*
X008290Y005150D03*
X009290Y005150D03*
X010290Y005150D03*
X011290Y005150D03*
X012290Y005150D03*
X013290Y005150D03*
X014290Y005150D03*
X015290Y005150D03*
X016290Y005150D03*
X017290Y005150D03*
X018290Y005150D03*
X019290Y005150D03*
X020290Y005150D03*
X021290Y005150D03*
X022290Y005150D03*
X023290Y005150D03*
X024290Y005150D03*
X025290Y005150D03*
X026290Y005150D03*
X027290Y005150D03*
X028290Y005150D03*
X029290Y005150D03*
X030290Y005150D03*
X031290Y005150D03*
X032290Y005150D03*
X033290Y005150D03*
X034290Y005150D03*
X035290Y005150D03*
X035290Y006150D03*
X034290Y006150D03*
X033290Y006150D03*
X032290Y006150D03*
X031290Y006150D03*
X030290Y006150D03*
X029290Y006150D03*
X028290Y006150D03*
X027290Y006150D03*
X026290Y006150D03*
X025290Y006150D03*
X024290Y006150D03*
X023290Y006150D03*
X022290Y006150D03*
X021290Y006150D03*
X020290Y006150D03*
X019290Y006150D03*
X018290Y006150D03*
X017290Y006150D03*
X016290Y006150D03*
X015290Y006150D03*
X014290Y006150D03*
X013290Y006150D03*
X012290Y006150D03*
X011290Y006150D03*
X010290Y006150D03*
X009290Y006150D03*
X008290Y006150D03*
X007290Y006150D03*
X006290Y006150D03*
X005290Y006150D03*
X004290Y006150D03*
D11*
X002290Y004150D03*
X037290Y004150D03*
D12*
X026290Y007900D03*
X025290Y007900D03*
X024290Y007900D03*
X023290Y007900D03*
X022290Y007900D03*
X021290Y007900D03*
X020290Y007900D03*
X019290Y007900D03*
X018290Y007900D03*
X017290Y007900D03*
X016290Y007900D03*
X015290Y007900D03*
X014290Y007900D03*
X013290Y007900D03*
X012290Y007900D03*
X011290Y007900D03*
X012790Y009400D03*
X013790Y009400D03*
X014790Y009400D03*
X015790Y009400D03*
X016790Y009400D03*
X017790Y009400D03*
X018790Y009400D03*
X019790Y009400D03*
X020790Y009400D03*
X021790Y009400D03*
X021790Y012400D03*
X020790Y012400D03*
X019790Y012400D03*
X018790Y012400D03*
X017790Y012400D03*
X016790Y012400D03*
X015790Y012400D03*
X014790Y012400D03*
X013790Y012400D03*
X012790Y012400D03*
X012290Y013900D03*
X013290Y013900D03*
X014290Y013900D03*
X015290Y013900D03*
X016290Y013900D03*
X017290Y013900D03*
X018290Y013900D03*
X019290Y013900D03*
X020290Y013900D03*
X021290Y013900D03*
X022290Y013900D03*
X023290Y013900D03*
X024290Y013900D03*
X025290Y013900D03*
X026290Y013900D03*
X011290Y013900D03*
D13*
X010290Y013900D03*
X010290Y012900D03*
X010290Y011650D03*
X009290Y011650D03*
D14*
X009290Y010400D03*
X009290Y009400D03*
X009290Y008400D03*
M02*
