G75*
%MOIN*%
%OFA0B0*%
%FSLAX24Y24*%
%IPPOS*%
%LPD*%
%AMOC8*
5,1,8,0,0,1.08239X$1,22.5*
%
%ADD10C,0.0100*%
%ADD11C,0.0060*%
%ADD12C,0.0120*%
%ADD13C,0.0050*%
%ADD14R,0.0200X0.0150*%
%ADD15R,0.0200X0.0300*%
%ADD16C,0.0040*%
D10*
X002290Y000150D02*
X037290Y000150D01*
X037290Y002400D01*
X038290Y002400D01*
X038290Y003020D01*
X036790Y003020D01*
X036290Y003520D01*
X036290Y004650D01*
X035040Y004650D01*
X034040Y004650D01*
X033540Y004650D01*
X032040Y004650D01*
X031540Y004650D01*
X028040Y004650D01*
X027540Y004650D01*
X024040Y004650D01*
X023540Y004650D01*
X020040Y004650D01*
X019540Y004650D01*
X016040Y004650D01*
X015540Y004650D01*
X012040Y004650D01*
X011540Y004650D01*
X008040Y004650D01*
X007540Y004650D01*
X006040Y004650D01*
X005540Y004650D01*
X004540Y004650D01*
X003290Y004650D01*
X003290Y003650D01*
X002660Y003020D01*
X001290Y003020D01*
X001290Y002400D01*
X002290Y002400D01*
X002290Y000150D01*
X001290Y003020D02*
X001290Y005150D01*
X003290Y005150D01*
X003290Y004650D01*
X001790Y004150D02*
X001792Y004194D01*
X001798Y004238D01*
X001808Y004281D01*
X001821Y004323D01*
X001838Y004364D01*
X001859Y004403D01*
X001883Y004440D01*
X001910Y004475D01*
X001940Y004507D01*
X001973Y004537D01*
X002009Y004563D01*
X002046Y004587D01*
X002086Y004606D01*
X002127Y004623D01*
X002170Y004635D01*
X002213Y004644D01*
X002257Y004649D01*
X002301Y004650D01*
X002345Y004647D01*
X002389Y004640D01*
X002432Y004629D01*
X002474Y004615D01*
X002514Y004597D01*
X002553Y004575D01*
X002589Y004551D01*
X002623Y004523D01*
X002655Y004492D01*
X002684Y004458D01*
X002710Y004422D01*
X002732Y004384D01*
X002751Y004344D01*
X002766Y004302D01*
X002778Y004260D01*
X002786Y004216D01*
X002790Y004172D01*
X002790Y004128D01*
X002786Y004084D01*
X002778Y004040D01*
X002766Y003998D01*
X002751Y003956D01*
X002732Y003916D01*
X002710Y003878D01*
X002684Y003842D01*
X002655Y003808D01*
X002623Y003777D01*
X002589Y003749D01*
X002553Y003725D01*
X002514Y003703D01*
X002474Y003685D01*
X002432Y003671D01*
X002389Y003660D01*
X002345Y003653D01*
X002301Y003650D01*
X002257Y003651D01*
X002213Y003656D01*
X002170Y003665D01*
X002127Y003677D01*
X002086Y003694D01*
X002046Y003713D01*
X002009Y003737D01*
X001973Y003763D01*
X001940Y003793D01*
X001910Y003825D01*
X001883Y003860D01*
X001859Y003897D01*
X001838Y003936D01*
X001821Y003977D01*
X001808Y004019D01*
X001798Y004062D01*
X001792Y004106D01*
X001790Y004150D01*
X004540Y004650D02*
X004540Y003050D01*
X005540Y003050D01*
X005540Y004650D01*
X006040Y004650D02*
X006040Y003050D01*
X007540Y003050D01*
X007540Y004650D01*
X008040Y004650D02*
X008040Y003050D01*
X011540Y003050D01*
X011540Y004650D01*
X012040Y004650D02*
X012040Y003050D01*
X015540Y003050D01*
X015540Y004650D01*
X016040Y004650D02*
X016040Y003050D01*
X019540Y003050D01*
X019540Y004650D01*
X020040Y004650D02*
X020040Y003050D01*
X023540Y003050D01*
X023540Y004650D01*
X024040Y004650D02*
X024040Y003050D01*
X027540Y003050D01*
X027540Y004650D01*
X028040Y004650D02*
X028040Y003050D01*
X031540Y003050D01*
X031540Y004650D01*
X032040Y004650D02*
X032040Y003050D01*
X033540Y003050D01*
X033540Y004650D01*
X034040Y004650D02*
X034040Y003050D01*
X035040Y003050D01*
X035040Y004650D01*
X036290Y004650D02*
X036290Y005150D01*
X038290Y005150D01*
X038290Y003020D01*
X036790Y004150D02*
X036792Y004194D01*
X036798Y004238D01*
X036808Y004281D01*
X036821Y004323D01*
X036838Y004364D01*
X036859Y004403D01*
X036883Y004440D01*
X036910Y004475D01*
X036940Y004507D01*
X036973Y004537D01*
X037009Y004563D01*
X037046Y004587D01*
X037086Y004606D01*
X037127Y004623D01*
X037170Y004635D01*
X037213Y004644D01*
X037257Y004649D01*
X037301Y004650D01*
X037345Y004647D01*
X037389Y004640D01*
X037432Y004629D01*
X037474Y004615D01*
X037514Y004597D01*
X037553Y004575D01*
X037589Y004551D01*
X037623Y004523D01*
X037655Y004492D01*
X037684Y004458D01*
X037710Y004422D01*
X037732Y004384D01*
X037751Y004344D01*
X037766Y004302D01*
X037778Y004260D01*
X037786Y004216D01*
X037790Y004172D01*
X037790Y004128D01*
X037786Y004084D01*
X037778Y004040D01*
X037766Y003998D01*
X037751Y003956D01*
X037732Y003916D01*
X037710Y003878D01*
X037684Y003842D01*
X037655Y003808D01*
X037623Y003777D01*
X037589Y003749D01*
X037553Y003725D01*
X037514Y003703D01*
X037474Y003685D01*
X037432Y003671D01*
X037389Y003660D01*
X037345Y003653D01*
X037301Y003650D01*
X037257Y003651D01*
X037213Y003656D01*
X037170Y003665D01*
X037127Y003677D01*
X037086Y003694D01*
X037046Y003713D01*
X037009Y003737D01*
X036973Y003763D01*
X036940Y003793D01*
X036910Y003825D01*
X036883Y003860D01*
X036859Y003897D01*
X036838Y003936D01*
X036821Y003977D01*
X036808Y004019D01*
X036798Y004062D01*
X036792Y004106D01*
X036790Y004150D01*
X036611Y009950D02*
X036611Y010510D01*
X036704Y010324D02*
X036891Y010324D01*
X036985Y010230D01*
X036985Y009950D01*
X036611Y010230D02*
X036704Y010324D01*
X036393Y010324D02*
X036206Y010324D01*
X036299Y010417D02*
X036299Y010043D01*
X036393Y009950D01*
X035972Y010043D02*
X035972Y010230D01*
X035878Y010324D01*
X035691Y010324D01*
X035598Y010230D01*
X035598Y010043D01*
X035691Y009950D01*
X035878Y009950D01*
X035972Y010043D01*
X035364Y009950D02*
X035364Y010230D01*
X035271Y010324D01*
X035177Y010230D01*
X035177Y009950D01*
X034990Y009950D02*
X034990Y010324D01*
X035084Y010324D01*
X035177Y010230D01*
X034756Y010230D02*
X034663Y010324D01*
X034476Y010324D01*
X034476Y010137D02*
X034756Y010137D01*
X034756Y010230D02*
X034756Y009950D01*
X034476Y009950D01*
X034383Y010043D01*
X034476Y010137D01*
X034149Y010230D02*
X034149Y010417D01*
X034055Y010510D01*
X033775Y010510D01*
X033775Y009950D01*
X033962Y010137D02*
X034149Y009950D01*
X034055Y010137D02*
X033775Y010137D01*
X034055Y010137D02*
X034149Y010230D01*
X032933Y010324D02*
X032933Y010417D01*
X032840Y010510D01*
X032653Y010510D01*
X032559Y010417D01*
X032933Y010324D02*
X032559Y009950D01*
X032933Y009950D01*
X032325Y009950D02*
X031952Y009950D01*
X032139Y009950D02*
X032139Y010510D01*
X031952Y010324D01*
X031718Y010230D02*
X031344Y010230D01*
X031110Y010230D02*
X030736Y010230D01*
X031017Y010510D01*
X031017Y009950D01*
X030502Y010043D02*
X030409Y009950D01*
X030222Y009950D01*
X030129Y010043D01*
X030502Y010417D01*
X030502Y010043D01*
X030129Y010043D02*
X030129Y010417D01*
X030222Y010510D01*
X030409Y010510D01*
X030502Y010417D01*
X029895Y010230D02*
X029521Y010230D01*
X029287Y010324D02*
X029287Y010417D01*
X029193Y010510D01*
X029007Y010510D01*
X028913Y010417D01*
X028679Y010417D02*
X028586Y010510D01*
X028399Y010510D01*
X028305Y010417D01*
X028071Y010417D02*
X027978Y010510D01*
X027791Y010510D01*
X027698Y010417D01*
X027698Y010043D01*
X028071Y010417D01*
X028071Y010043D01*
X027978Y009950D01*
X027791Y009950D01*
X027698Y010043D01*
X027464Y009950D02*
X027090Y009950D01*
X027464Y010324D01*
X027464Y010417D01*
X027370Y010510D01*
X027183Y010510D01*
X027090Y010417D01*
X028305Y009950D02*
X028679Y010324D01*
X028679Y010417D01*
X028913Y009950D02*
X029287Y010324D01*
X029287Y009950D02*
X028913Y009950D01*
X028679Y009950D02*
X028305Y009950D01*
X028305Y010940D02*
X028679Y011314D01*
X028679Y011407D01*
X028586Y011500D01*
X028399Y011500D01*
X028305Y011407D01*
X027885Y011500D02*
X027885Y010940D01*
X028071Y010940D02*
X027698Y010940D01*
X027464Y011033D02*
X027370Y010940D01*
X027183Y010940D01*
X027090Y011033D01*
X027464Y011033D02*
X027464Y011220D01*
X027370Y011314D01*
X027277Y011314D01*
X027090Y011220D01*
X027090Y011500D01*
X027464Y011500D01*
X027698Y011314D02*
X027885Y011500D01*
X027698Y011930D02*
X027698Y012304D01*
X027885Y012304D02*
X027978Y012304D01*
X027885Y012304D02*
X027698Y012117D01*
X027464Y012023D02*
X027464Y012397D01*
X027370Y012490D01*
X027090Y012490D01*
X027090Y011930D01*
X027370Y011930D01*
X027464Y012023D01*
X028204Y012023D02*
X028298Y011930D01*
X028578Y011930D01*
X028578Y012210D01*
X028484Y012304D01*
X028298Y012304D01*
X028812Y012210D02*
X028812Y012023D01*
X028905Y011930D01*
X029186Y011930D01*
X029186Y011837D02*
X029186Y012304D01*
X028905Y012304D01*
X028812Y012210D01*
X028578Y012117D02*
X028298Y012117D01*
X028204Y012023D01*
X028999Y011743D02*
X029092Y011743D01*
X029186Y011837D01*
X029420Y012023D02*
X029513Y011930D01*
X029700Y011930D01*
X029793Y012023D01*
X029793Y012210D01*
X029700Y012304D01*
X029513Y012304D01*
X029420Y012210D01*
X029420Y012023D01*
X030027Y011930D02*
X030027Y012304D01*
X030308Y012304D01*
X030401Y012210D01*
X030401Y011930D01*
X031243Y011930D02*
X031523Y011930D01*
X031616Y012023D01*
X031616Y012117D01*
X031523Y012210D01*
X031243Y012210D01*
X031523Y012210D02*
X031616Y012304D01*
X031616Y012397D01*
X031523Y012490D01*
X031243Y012490D01*
X031243Y011930D01*
X031850Y012023D02*
X031850Y012210D01*
X031944Y012304D01*
X032131Y012304D01*
X032224Y012210D01*
X032224Y012117D01*
X031850Y012117D01*
X031850Y012023D02*
X031944Y011930D01*
X032131Y011930D01*
X032552Y012023D02*
X032645Y011930D01*
X032552Y012023D02*
X032552Y012397D01*
X032645Y012304D02*
X032458Y012304D01*
X032957Y012304D02*
X033144Y012304D01*
X033237Y012210D01*
X033237Y011930D01*
X032957Y011930D01*
X032863Y012023D01*
X032957Y012117D01*
X033237Y012117D01*
X032933Y011500D02*
X032559Y011500D01*
X032559Y010940D01*
X032933Y010940D01*
X033167Y010940D02*
X033541Y011314D01*
X033775Y011314D02*
X034055Y011314D01*
X034149Y011220D01*
X034149Y011033D01*
X034055Y010940D01*
X033775Y010940D01*
X033775Y010753D02*
X033775Y011314D01*
X033541Y010940D02*
X033167Y011314D01*
X032746Y011220D02*
X032559Y011220D01*
X031718Y011500D02*
X031718Y010940D01*
X031344Y010940D02*
X031344Y011500D01*
X031531Y011314D01*
X031718Y011500D01*
X031110Y011314D02*
X031110Y010940D01*
X030736Y010940D02*
X030736Y011314D01*
X030923Y011500D01*
X031110Y011314D01*
X031110Y011220D02*
X030736Y011220D01*
X030502Y011220D02*
X030409Y011127D01*
X030129Y011127D01*
X030315Y011127D02*
X030502Y010940D01*
X030129Y010940D02*
X030129Y011500D01*
X030409Y011500D01*
X030502Y011407D01*
X030502Y011220D01*
X029287Y010940D02*
X029007Y011220D01*
X028913Y011127D02*
X029287Y011500D01*
X028913Y011500D02*
X028913Y010940D01*
X028679Y010940D02*
X028305Y010940D01*
X034383Y011033D02*
X034476Y011127D01*
X034756Y011127D01*
X034756Y011220D02*
X034756Y010940D01*
X034476Y010940D01*
X034383Y011033D01*
X034476Y011314D02*
X034663Y011314D01*
X034756Y011220D01*
X034990Y011314D02*
X035271Y011314D01*
X035364Y011220D01*
X035364Y010940D01*
X035598Y010940D02*
X035878Y010940D01*
X035972Y011033D01*
X035878Y011127D01*
X035691Y011127D01*
X035598Y011220D01*
X035691Y011314D01*
X035972Y011314D01*
X036206Y011314D02*
X036299Y011314D01*
X036299Y010940D01*
X036206Y010940D02*
X036393Y010940D01*
X036611Y011033D02*
X036704Y010940D01*
X036891Y010940D01*
X036985Y011033D01*
X036985Y011220D01*
X036891Y011314D01*
X036704Y011314D01*
X036611Y011220D01*
X036611Y011033D01*
X037219Y010940D02*
X037219Y011314D01*
X037499Y011314D01*
X037592Y011220D01*
X037592Y010940D01*
X036299Y011500D02*
X036299Y011594D01*
X034990Y011314D02*
X034990Y010940D01*
X010590Y013300D02*
X010290Y013300D01*
X009990Y013300D01*
X009990Y013500D02*
X010290Y013500D01*
X010590Y013500D01*
X009890Y011950D02*
X009890Y011650D01*
X009890Y011350D01*
X009690Y011350D02*
X009690Y011650D01*
X009690Y011950D01*
D11*
X009690Y011650D02*
X009640Y011650D01*
X009890Y011650D02*
X009940Y011650D01*
X010640Y011150D02*
X010657Y011152D01*
X010674Y011156D01*
X010690Y011163D01*
X010704Y011173D01*
X010717Y011186D01*
X010727Y011200D01*
X010734Y011216D01*
X010738Y011233D01*
X010740Y011250D01*
X010740Y012050D01*
X010738Y012067D01*
X010734Y012084D01*
X010727Y012100D01*
X010717Y012114D01*
X010704Y012127D01*
X010690Y012137D01*
X010674Y012144D01*
X010657Y012148D01*
X010640Y012150D01*
X008940Y012150D01*
X008923Y012148D01*
X008906Y012144D01*
X008890Y012137D01*
X008876Y012127D01*
X008863Y012114D01*
X008853Y012100D01*
X008846Y012084D01*
X008842Y012067D01*
X008840Y012050D01*
X008840Y011250D01*
X008842Y011233D01*
X008846Y011216D01*
X008853Y011200D01*
X008863Y011186D01*
X008876Y011173D01*
X008890Y011163D01*
X008906Y011156D01*
X008923Y011152D01*
X008940Y011150D01*
X010640Y011150D01*
X010790Y011300D02*
X010790Y013550D01*
X026790Y013550D01*
X026790Y008250D01*
X010790Y008250D01*
X010790Y010500D01*
X010829Y010502D01*
X010868Y010508D01*
X010906Y010517D01*
X010943Y010530D01*
X010979Y010547D01*
X011012Y010567D01*
X011044Y010591D01*
X011073Y010617D01*
X011099Y010646D01*
X011123Y010678D01*
X011143Y010711D01*
X011160Y010747D01*
X011173Y010784D01*
X011182Y010822D01*
X011188Y010861D01*
X011190Y010900D01*
X011188Y010939D01*
X011182Y010978D01*
X011173Y011016D01*
X011160Y011053D01*
X011143Y011089D01*
X011123Y011122D01*
X011099Y011154D01*
X011073Y011183D01*
X011044Y011209D01*
X011012Y011233D01*
X010979Y011253D01*
X010943Y011270D01*
X010906Y011283D01*
X010868Y011292D01*
X010829Y011298D01*
X010790Y011300D01*
X009790Y010650D02*
X009540Y010900D01*
X009040Y010900D01*
X008790Y010650D01*
X008790Y010150D01*
X009040Y009900D01*
X008790Y009650D01*
X008790Y009150D01*
X009040Y008900D01*
X008790Y008650D01*
X008790Y008150D01*
X009040Y007900D01*
X009540Y007900D01*
X009790Y008150D01*
X009790Y008650D01*
X009540Y008900D01*
X009040Y008900D01*
X009540Y008900D02*
X009790Y009150D01*
X009790Y009650D01*
X009540Y009900D01*
X009040Y009900D01*
X009540Y009900D02*
X009790Y010150D01*
X009790Y010650D01*
X008283Y010020D02*
X008283Y009680D01*
X008057Y009680D02*
X008057Y010020D01*
X008170Y009907D01*
X008283Y010020D01*
X007915Y009964D02*
X007858Y010020D01*
X007745Y010020D01*
X007688Y009964D01*
X007688Y009737D01*
X007745Y009680D01*
X007858Y009680D01*
X007915Y009737D01*
X007915Y009964D01*
X007547Y009964D02*
X007547Y009850D01*
X007490Y009793D01*
X007320Y009793D01*
X007320Y009680D02*
X007320Y010020D01*
X007490Y010020D01*
X007547Y009964D01*
X007433Y009793D02*
X007547Y009680D01*
X007490Y009020D02*
X007547Y008964D01*
X007547Y008850D01*
X007490Y008793D01*
X007320Y008793D01*
X007320Y008680D02*
X007320Y009020D01*
X007490Y009020D01*
X007688Y008907D02*
X007802Y009020D01*
X007915Y008907D01*
X007915Y008680D01*
X008057Y008680D02*
X008057Y009020D01*
X008170Y008907D01*
X008283Y009020D01*
X008283Y008680D01*
X007915Y008850D02*
X007688Y008850D01*
X007688Y008907D02*
X007688Y008680D01*
X007547Y008680D02*
X007433Y008793D01*
X009969Y008866D02*
X010076Y008760D01*
X010503Y008760D01*
X010610Y008866D01*
X010610Y009080D01*
X010503Y009187D01*
X010610Y009404D02*
X010610Y009831D01*
X010610Y009618D02*
X009969Y009618D01*
X010183Y009404D01*
X010076Y009187D02*
X009969Y009080D01*
X009969Y008866D01*
X009969Y008544D02*
X009969Y008330D01*
X009969Y008437D02*
X010610Y008437D01*
X010610Y008330D02*
X010610Y008544D01*
X012290Y009750D02*
X012290Y010500D01*
X012329Y010502D01*
X012368Y010508D01*
X012406Y010517D01*
X012443Y010530D01*
X012479Y010547D01*
X012512Y010567D01*
X012544Y010591D01*
X012573Y010617D01*
X012599Y010646D01*
X012623Y010678D01*
X012643Y010711D01*
X012660Y010747D01*
X012673Y010784D01*
X012682Y010822D01*
X012688Y010861D01*
X012690Y010900D01*
X012688Y010939D01*
X012682Y010978D01*
X012673Y011016D01*
X012660Y011053D01*
X012643Y011089D01*
X012623Y011122D01*
X012599Y011154D01*
X012573Y011183D01*
X012544Y011209D01*
X012512Y011233D01*
X012479Y011253D01*
X012443Y011270D01*
X012406Y011283D01*
X012368Y011292D01*
X012329Y011298D01*
X012290Y011300D01*
X012290Y012050D01*
X022290Y012050D01*
X022290Y009750D01*
X012290Y009750D01*
X010690Y012450D02*
X009890Y012450D01*
X009873Y012452D01*
X009856Y012456D01*
X009840Y012463D01*
X009826Y012473D01*
X009813Y012486D01*
X009803Y012500D01*
X009796Y012516D01*
X009792Y012533D01*
X009790Y012550D01*
X009790Y014250D01*
X009792Y014267D01*
X009796Y014284D01*
X009803Y014300D01*
X009813Y014314D01*
X009826Y014327D01*
X009840Y014337D01*
X009856Y014344D01*
X009873Y014348D01*
X009890Y014350D01*
X010690Y014350D01*
X010707Y014348D01*
X010724Y014344D01*
X010740Y014337D01*
X010754Y014327D01*
X010767Y014314D01*
X010777Y014300D01*
X010784Y014284D01*
X010788Y014267D01*
X010790Y014250D01*
X010790Y012550D01*
X010788Y012533D01*
X010784Y012516D01*
X010777Y012500D01*
X010767Y012486D01*
X010754Y012473D01*
X010740Y012463D01*
X010724Y012456D01*
X010707Y012452D01*
X010690Y012450D01*
X010290Y013250D02*
X010290Y013300D01*
X010290Y013500D02*
X010290Y013550D01*
D12*
X008790Y010400D02*
X008040Y010400D01*
X008040Y010150D01*
X008040Y009525D02*
X008040Y009400D01*
X008040Y009150D01*
X008040Y009400D02*
X008790Y009400D01*
X008665Y008400D02*
X008040Y008400D01*
X008040Y008525D01*
D13*
X007015Y008480D02*
X007015Y008345D01*
X006970Y008300D01*
X006925Y008345D01*
X006925Y008480D01*
X006880Y008480D02*
X007015Y008480D01*
X007015Y008595D02*
X006835Y008595D01*
X006835Y008685D02*
X006835Y008730D01*
X006835Y008685D02*
X006925Y008595D01*
X006880Y008480D02*
X006835Y008435D01*
X006835Y008345D01*
X006880Y008186D02*
X006835Y008141D01*
X006835Y008050D01*
X006880Y008005D01*
X006970Y008005D01*
X007015Y008050D01*
X007015Y008141D01*
X006970Y008186D01*
X006880Y008186D01*
X006535Y008186D02*
X006445Y008095D01*
X006445Y008141D02*
X006445Y008005D01*
X006535Y008005D02*
X006265Y008005D01*
X006265Y008141D01*
X006310Y008186D01*
X006400Y008186D01*
X006445Y008141D01*
X006400Y008300D02*
X006400Y008480D01*
X006355Y008480D02*
X006535Y008480D01*
X006535Y008595D02*
X006265Y008595D01*
X006355Y008685D01*
X006265Y008775D01*
X006535Y008775D01*
X006835Y008885D02*
X006835Y009020D01*
X006745Y009020D02*
X007015Y009020D01*
X007015Y008885D01*
X006970Y008840D01*
X006880Y008840D01*
X006835Y008885D01*
X006535Y009184D02*
X006535Y009274D01*
X006535Y009229D02*
X006265Y009229D01*
X006265Y009184D01*
X006355Y009380D02*
X006355Y009425D01*
X006535Y009425D01*
X006535Y009380D02*
X006535Y009471D01*
X006535Y009577D02*
X006355Y009577D01*
X006355Y009712D01*
X006400Y009757D01*
X006535Y009757D01*
X006535Y009872D02*
X006265Y009872D01*
X006355Y010007D02*
X006445Y009872D01*
X006535Y010007D01*
X006835Y010011D02*
X006925Y009921D01*
X007015Y009921D02*
X006835Y009921D01*
X006835Y010011D02*
X006835Y010056D01*
X006880Y009806D02*
X006835Y009761D01*
X006835Y009671D01*
X006880Y009626D01*
X006970Y009626D01*
X007015Y009671D01*
X007015Y009761D01*
X006970Y009806D01*
X006880Y009806D01*
X006880Y009520D02*
X006880Y009430D01*
X006790Y009475D02*
X006745Y009520D01*
X006790Y009475D02*
X007015Y009475D01*
X006265Y009425D02*
X006220Y009425D01*
X006355Y008480D02*
X006265Y008390D01*
X006355Y008300D01*
X006535Y008300D01*
X006880Y007891D02*
X006835Y007846D01*
X006835Y007711D01*
X006745Y007711D02*
X007015Y007711D01*
X007015Y007846D01*
X006970Y007891D01*
X006880Y007891D01*
X006535Y007604D02*
X006490Y007559D01*
X006310Y007559D01*
X006355Y007514D02*
X006355Y007604D01*
X006355Y007400D02*
X006535Y007400D01*
X006535Y007265D01*
X006490Y007220D01*
X006355Y007220D01*
X006310Y007105D02*
X006265Y007060D01*
X006265Y006970D01*
X006310Y006925D01*
X006490Y006925D01*
X006535Y006970D01*
X006535Y007060D01*
X006490Y007105D01*
X006745Y007310D02*
X006790Y007265D01*
X007015Y007265D01*
X006880Y007220D02*
X006880Y007310D01*
X006880Y007105D02*
X006835Y007060D01*
X006835Y006970D01*
X006880Y006925D01*
X006970Y006925D01*
X007015Y006970D01*
X007015Y007060D01*
X006970Y007105D01*
X006880Y007105D01*
X004265Y004015D02*
X004265Y003715D01*
X003965Y004015D01*
X003890Y004015D01*
X003815Y003940D01*
X003815Y003790D01*
X003890Y003715D01*
X003890Y003554D02*
X003965Y003554D01*
X004040Y003479D01*
X004115Y003554D01*
X004190Y003554D01*
X004265Y003479D01*
X004265Y003329D01*
X004190Y003254D01*
X004040Y003404D02*
X004040Y003479D01*
X003890Y003554D02*
X003815Y003479D01*
X003815Y003329D01*
X003890Y003254D01*
X006400Y010412D02*
X006490Y010412D01*
X006535Y010457D01*
X006535Y010547D01*
X006490Y010592D01*
X006400Y010592D01*
X006355Y010547D01*
X006355Y010457D01*
X006400Y010412D01*
X006745Y010461D02*
X006745Y010596D01*
X006790Y010641D01*
X006880Y010641D01*
X006925Y010596D01*
X006925Y010461D01*
X006925Y010551D02*
X007015Y010641D01*
X006970Y010755D02*
X007015Y010801D01*
X007015Y010891D01*
X006970Y010936D01*
X006790Y010936D01*
X006745Y010891D01*
X006745Y010801D01*
X006790Y010755D01*
X006970Y010755D01*
X006535Y010706D02*
X006355Y010706D01*
X006355Y010841D01*
X006400Y010887D01*
X006535Y010887D01*
X006745Y011050D02*
X006835Y011140D01*
X006745Y011230D01*
X007015Y011230D01*
X007015Y011050D02*
X006745Y011050D01*
X006535Y011296D02*
X006535Y011431D01*
X006490Y011476D01*
X006400Y011476D01*
X006355Y011431D01*
X006355Y011296D01*
X006265Y011296D02*
X006535Y011296D01*
X006490Y011590D02*
X006535Y011635D01*
X006535Y011725D01*
X006490Y011770D01*
X006400Y011770D01*
X006355Y011725D01*
X006355Y011635D01*
X006400Y011590D01*
X006490Y011590D01*
X006355Y011885D02*
X006355Y011975D01*
X006310Y011930D02*
X006490Y011930D01*
X006535Y011975D01*
X006490Y012081D02*
X006535Y012126D01*
X006535Y012217D01*
X006490Y012262D01*
X006400Y012262D01*
X006355Y012217D01*
X006355Y012126D01*
X006400Y012081D01*
X006490Y012081D01*
X006535Y012376D02*
X006355Y012376D01*
X006355Y012421D01*
X006400Y012466D01*
X006355Y012511D01*
X006400Y012556D01*
X006535Y012556D01*
X006535Y012466D02*
X006400Y012466D01*
X008215Y011961D02*
X008215Y011810D01*
X008290Y011735D01*
X008290Y011575D02*
X008215Y011500D01*
X008215Y011350D01*
X008290Y011275D01*
X008590Y011275D01*
X008665Y011350D01*
X008665Y011500D01*
X008590Y011575D01*
X008665Y011735D02*
X008365Y012036D01*
X008290Y012036D01*
X008215Y011961D01*
X008665Y012036D02*
X008665Y011735D01*
X007015Y010461D02*
X006745Y010461D01*
X009290Y013275D02*
X009590Y013275D01*
X009665Y013350D01*
X009665Y013500D01*
X009590Y013575D01*
X009665Y013735D02*
X009665Y014036D01*
X009665Y013886D02*
X009215Y013886D01*
X009365Y013735D01*
X009290Y013575D02*
X009215Y013500D01*
X009215Y013350D01*
X009290Y013275D01*
X035315Y003865D02*
X035465Y003715D01*
X035315Y003865D02*
X035765Y003865D01*
X035765Y003715D02*
X035765Y004015D01*
X036215Y005365D02*
X036065Y005515D01*
X036215Y005665D01*
X036515Y005665D01*
X036290Y005665D02*
X036290Y005365D01*
X036215Y005365D02*
X036515Y005365D01*
X036515Y006215D02*
X036065Y006215D01*
X036065Y006440D01*
X036140Y006515D01*
X036215Y006515D01*
X036290Y006440D01*
X036290Y006215D01*
X036515Y006215D02*
X036515Y006440D01*
X036440Y006515D01*
X036365Y006515D01*
X036290Y006440D01*
X033951Y001625D02*
X033801Y001625D01*
X033726Y001550D01*
X033726Y001250D01*
X033801Y001175D01*
X033951Y001175D01*
X034026Y001250D01*
X034026Y001550D02*
X033951Y001625D01*
X033566Y001400D02*
X033265Y001400D01*
X032645Y001475D02*
X032645Y001550D01*
X032570Y001625D01*
X032420Y001625D01*
X032345Y001550D01*
X032645Y001475D02*
X032345Y001175D01*
X032645Y001175D01*
X032185Y001175D02*
X031884Y001175D01*
X032034Y001175D02*
X032034Y001625D01*
X031884Y001475D01*
X031724Y001325D02*
X031649Y001400D01*
X031424Y001400D01*
X031424Y001250D01*
X031499Y001175D01*
X031649Y001175D01*
X031724Y001250D01*
X031724Y001325D01*
X031574Y001550D02*
X031424Y001400D01*
X031574Y001550D02*
X031724Y001625D01*
X031114Y001625D02*
X030963Y001475D01*
X030803Y001400D02*
X030503Y001400D01*
X030728Y001625D01*
X030728Y001175D01*
X030963Y001175D02*
X031264Y001175D01*
X031114Y001175D02*
X031114Y001625D01*
X029883Y001625D02*
X029883Y001175D01*
X029582Y001625D01*
X029582Y001175D01*
X029426Y001175D02*
X029275Y001175D01*
X029350Y001175D02*
X029350Y001625D01*
X029275Y001625D02*
X029426Y001625D01*
X029115Y001550D02*
X029040Y001625D01*
X028815Y001625D01*
X028815Y001175D01*
X029040Y001175D01*
X029115Y001250D01*
X029115Y001550D01*
D14*
X029290Y004725D03*
X030290Y004725D03*
X031290Y004725D03*
X032290Y004725D03*
X033290Y004725D03*
X034290Y004725D03*
X035290Y004725D03*
X028290Y004725D03*
X027290Y004725D03*
X026290Y004725D03*
X025290Y004725D03*
X024290Y004725D03*
X023290Y004725D03*
X022290Y004725D03*
X021290Y004725D03*
X020290Y004725D03*
X019290Y004725D03*
X018290Y004725D03*
X017290Y004725D03*
X016290Y004725D03*
X015290Y004725D03*
X014290Y004725D03*
X013290Y004725D03*
X012290Y004725D03*
X011290Y004725D03*
X010290Y004725D03*
X009290Y004725D03*
X008290Y004725D03*
X007290Y004725D03*
X006290Y004725D03*
X005290Y004725D03*
X004290Y004725D03*
D15*
X004290Y005650D03*
X005290Y005650D03*
X006290Y005650D03*
X007290Y005650D03*
X008290Y005650D03*
X009290Y005650D03*
X010290Y005650D03*
X011290Y005650D03*
X012290Y005650D03*
X013290Y005650D03*
X014290Y005650D03*
X015290Y005650D03*
X016290Y005650D03*
X017290Y005650D03*
X018290Y005650D03*
X019290Y005650D03*
X020290Y005650D03*
X021290Y005650D03*
X022290Y005650D03*
X023290Y005650D03*
X024290Y005650D03*
X025290Y005650D03*
X026290Y005650D03*
X027290Y005650D03*
X028290Y005650D03*
X029290Y005650D03*
X030290Y005650D03*
X031290Y005650D03*
X032290Y005650D03*
X033290Y005650D03*
X034290Y005650D03*
X035290Y005650D03*
D16*
X012120Y009720D02*
X012120Y009873D01*
X012120Y009797D02*
X011660Y009797D01*
X011660Y009873D02*
X011660Y009720D01*
X011736Y010027D02*
X012043Y010027D01*
X012120Y010104D01*
X012120Y010257D01*
X012043Y010334D01*
X012043Y010487D02*
X012120Y010564D01*
X012120Y010718D01*
X012043Y010794D01*
X011967Y010794D01*
X011890Y010718D01*
X011890Y010641D01*
X011890Y010718D02*
X011813Y010794D01*
X011736Y010794D01*
X011660Y010718D01*
X011660Y010564D01*
X011736Y010487D01*
X011736Y010334D02*
X011660Y010257D01*
X011660Y010104D01*
X011736Y010027D01*
M02*
