%
M48
M72
T01C0.0236
T02C0.0320
T03C0.0400
T04C0.1181
%
T01
X16950Y6050
X16950Y7050
T02
X18700Y9050
X16950Y12550
X16950Y13550
X18700Y13050
X12950Y12550
X11950Y12550
X10950Y12550
X9950Y12550
X8950Y12550
X7950Y12550
X6950Y12550
X5950Y12550
X4950Y12550
X3950Y12550
X2950Y12550
X2950Y13550
X1700Y13300
X700Y13300
X700Y11550
X1700Y11550
X2950Y11550
X3950Y11550
X2950Y10550
X1700Y9800
X700Y9800
X2950Y9550
X4950Y9550
X5950Y9550
X6950Y9550
X7950Y9550
X8950Y9550
X9950Y9550
X10950Y9550
X11950Y9550
X11950Y8550
X10950Y8550
X9950Y8550
X8950Y8550
X7950Y8550
X6950Y8550
X5950Y8550
X4950Y7550
X4950Y6550
X5950Y5550
X6950Y5550
X7950Y5550
X8950Y5550
X9950Y5550
X10950Y5550
X11950Y5550
X1700Y8050
X700Y8050
X12950Y13550
T03
X1450Y1550
X2450Y1550
X3450Y1550
X4450Y1550
X5450Y1550
X6450Y1550
X7450Y1550
X8450Y1550
X9450Y1550
X10450Y1550
X11450Y1550
X12450Y1550
X13450Y1550
X14450Y1550
X15450Y1550
X16450Y1550
X17450Y1550
X17450Y2550
X16450Y2550
X15450Y2550
X14450Y2550
X13450Y2550
X12450Y2550
X11450Y2550
X10450Y2550
X9450Y2550
X8450Y2550
X7450Y2550
X6450Y2550
X5450Y2550
X4450Y2550
X3450Y2550
X2450Y2550
X1450Y2550
X3950Y7550
X3950Y8550
X13450Y7800
X14450Y7800
X15450Y7800
X19950Y7550
X20950Y7550
X20950Y8550
X19950Y8550
X19950Y9550
X20950Y9550
X20950Y10550
X19950Y10550
X19950Y11550
X20950Y11550
X20950Y12550
X19950Y12550
X19950Y13550
X20950Y13550
X15450Y11550
X14450Y11550
X19950Y6550
X20950Y6550
X20950Y5550
X19950Y5550
X19950Y4550
X20950Y4550
X20950Y3550
X19950Y3550
X19950Y2550
X20950Y2550
X20950Y1550
X19950Y1550
T04
X1700Y5800
M30
