G75*
%MOIN*%
%OFA0B0*%
%FSLAX24Y24*%
%IPPOS*%
%LPD*%
%AMOC8*
5,1,8,0,0,1.08239X$1,22.5*
%
%ADD10OC8,0.0600*%
%ADD11OC8,0.0480*%
%ADD12C,0.0480*%
%ADD13C,0.2300*%
%ADD14C,0.0240*%
%ADD15C,0.0354*%
%ADD16C,0.0120*%
D10*
X001450Y001550D03*
X002450Y001550D03*
X003450Y001550D03*
X004450Y001550D03*
X005450Y001550D03*
X006450Y001550D03*
X007450Y001550D03*
X008450Y001550D03*
X009450Y001550D03*
X010450Y001550D03*
X011450Y001550D03*
X012450Y001550D03*
X013450Y001550D03*
X014450Y001550D03*
X015450Y001550D03*
X016450Y001550D03*
X017450Y001550D03*
X017450Y002550D03*
X016450Y002550D03*
X015450Y002550D03*
X014450Y002550D03*
X013450Y002550D03*
X012450Y002550D03*
X011450Y002550D03*
X010450Y002550D03*
X009450Y002550D03*
X008450Y002550D03*
X007450Y002550D03*
X006450Y002550D03*
X005450Y002550D03*
X004450Y002550D03*
X003450Y002550D03*
X002450Y002550D03*
X001450Y002550D03*
X003950Y007550D03*
X003950Y008550D03*
X013450Y007800D03*
X014450Y007800D03*
X015450Y007800D03*
X019950Y007550D03*
X020950Y007550D03*
X020950Y008550D03*
X019950Y008550D03*
X019950Y009550D03*
X020950Y009550D03*
X020950Y010550D03*
X019950Y010550D03*
X019950Y011550D03*
X020950Y011550D03*
X020950Y012550D03*
X019950Y012550D03*
X019950Y013550D03*
X020950Y013550D03*
X015450Y011550D03*
X014450Y011550D03*
X019950Y006550D03*
X020950Y006550D03*
X020950Y005550D03*
X019950Y005550D03*
X019950Y004550D03*
X020950Y004550D03*
X020950Y003550D03*
X019950Y003550D03*
X019950Y002550D03*
X020950Y002550D03*
X020950Y001550D03*
X019950Y001550D03*
D11*
X018700Y009050D03*
X016950Y012550D03*
X016950Y013550D03*
X018700Y013050D03*
X012950Y012550D03*
X012950Y013550D03*
X004950Y007550D03*
X004950Y006550D03*
X001700Y008050D03*
X000700Y008050D03*
X000700Y009800D03*
X001700Y009800D03*
X001700Y011550D03*
X000700Y011550D03*
X000700Y013300D03*
X001700Y013300D03*
X003950Y012550D03*
X003950Y011550D03*
D12*
X002950Y011550D03*
X002950Y010550D03*
X002950Y009550D03*
X004950Y009550D03*
X005950Y009550D03*
X006950Y009550D03*
X007950Y009550D03*
X008950Y009550D03*
X009950Y009550D03*
X010950Y009550D03*
X011950Y009550D03*
X011950Y008550D03*
X010950Y008550D03*
X009950Y008550D03*
X008950Y008550D03*
X007950Y008550D03*
X006950Y008550D03*
X005950Y008550D03*
X005950Y005550D03*
X006950Y005550D03*
X007950Y005550D03*
X008950Y005550D03*
X009950Y005550D03*
X010950Y005550D03*
X011950Y005550D03*
X011950Y012550D03*
X010950Y012550D03*
X009950Y012550D03*
X008950Y012550D03*
X007950Y012550D03*
X006950Y012550D03*
X005950Y012550D03*
X004950Y012550D03*
X002950Y012550D03*
X002950Y013550D03*
D13*
X001700Y005800D03*
D14*
X003700Y004050D02*
X003950Y004300D01*
X003950Y007550D01*
X004950Y007550D01*
X005950Y007300D02*
X005950Y008550D01*
X003950Y008550D01*
X005200Y006550D02*
X005950Y007300D01*
X005200Y006550D02*
X004950Y006550D01*
X003700Y004050D02*
X002200Y004050D01*
X001950Y003800D01*
X001950Y001550D01*
X001450Y001550D01*
X001950Y001550D02*
X002450Y001550D01*
X003450Y001550D01*
X004450Y001550D01*
X005450Y001550D01*
X006450Y001550D01*
X007450Y001550D01*
X008450Y001550D01*
X009450Y001550D01*
X010450Y001550D01*
X011450Y001550D01*
X011950Y001550D01*
X011950Y005550D01*
X011950Y006550D01*
X012450Y007050D01*
X012450Y007800D01*
X013450Y007800D01*
X012450Y007800D02*
X012450Y008800D01*
X011950Y009300D01*
X011950Y009550D01*
X014450Y009550D02*
X014450Y011550D01*
X015450Y011550D02*
X019950Y011550D01*
X019950Y010550D02*
X019950Y009550D01*
X019950Y008550D01*
X019950Y007550D01*
X018700Y009050D02*
X014950Y009050D01*
X014450Y009550D01*
X012950Y012550D02*
X012950Y013550D01*
X004950Y013550D01*
X002950Y013550D01*
X003950Y012550D02*
X004950Y012550D01*
X004950Y013550D01*
X019950Y005550D02*
X019950Y004550D01*
X019950Y003550D01*
X019950Y002550D01*
X019950Y001550D01*
X017450Y001550D01*
X016450Y001550D01*
X015450Y001550D01*
X014450Y001550D01*
X013450Y001550D01*
X012450Y001550D01*
X011950Y001550D01*
D15*
X016950Y006050D03*
X016950Y007050D03*
D16*
X020200Y007050D01*
X020700Y007550D01*
X020950Y007550D01*
X020200Y006050D02*
X020700Y005550D01*
X020950Y005550D01*
X020200Y006050D02*
X016950Y006050D01*
X011950Y008300D02*
X011950Y008550D01*
X011950Y008300D02*
X010450Y006800D01*
X010450Y005300D01*
X010200Y005050D01*
X007450Y005050D01*
X005450Y003050D01*
X005450Y002550D01*
X006450Y002550D02*
X006450Y003050D01*
X008200Y004800D01*
X010700Y004800D01*
X010950Y005050D01*
X010950Y005550D01*
X009950Y005550D02*
X009950Y006800D01*
X009450Y007300D01*
X009450Y008800D01*
X009950Y009300D01*
X009950Y009550D01*
X008950Y009550D02*
X008950Y009300D01*
X008450Y008800D01*
X008450Y007300D01*
X007950Y006800D01*
X007950Y005550D01*
X006950Y005550D02*
X006950Y005050D01*
X005200Y003300D01*
X003700Y003300D01*
X003450Y003050D01*
X003450Y002550D01*
X005950Y005550D02*
X005950Y006550D01*
X007450Y008050D01*
X007450Y008800D01*
X007950Y009300D01*
X007950Y009550D01*
X007200Y010050D02*
X006950Y009800D01*
X006950Y009550D01*
X007200Y010050D02*
X013700Y010050D01*
X013950Y010300D01*
X013950Y012300D01*
X014200Y012550D01*
X016950Y012550D01*
X019200Y012550D01*
X019700Y013050D01*
X020200Y013050D01*
X020700Y012550D01*
X020950Y012550D01*
X020950Y013550D02*
X020700Y013550D01*
X020200Y014050D01*
X019450Y014050D01*
X018950Y013550D01*
X016950Y013550D01*
X013950Y013550D01*
X013700Y013300D01*
X013700Y010550D01*
X013450Y010300D01*
X006200Y010300D01*
X005950Y010050D01*
X005950Y009550D01*
X005200Y010800D02*
X004450Y010050D01*
X003700Y010050D01*
X003450Y009800D01*
X003450Y008050D01*
X002950Y007550D01*
X001450Y007550D01*
X000950Y008050D01*
X000700Y008050D01*
X001700Y008050D02*
X002700Y008050D01*
X002950Y008300D01*
X002950Y009550D01*
X001700Y009800D02*
X001700Y010300D01*
X001950Y010550D01*
X002950Y010550D01*
X002950Y011550D02*
X001700Y011550D01*
X001450Y012050D02*
X009700Y012050D01*
X009950Y012300D01*
X009950Y012550D01*
X010950Y012550D02*
X010950Y011300D01*
X010700Y011050D01*
X000950Y011050D01*
X000700Y010800D01*
X000700Y009800D01*
X000700Y011550D02*
X000950Y011550D01*
X001450Y012050D01*
X001950Y012550D02*
X002950Y012550D01*
X001950Y012550D02*
X001700Y012800D01*
X001700Y013300D01*
X005200Y010800D02*
X011700Y010800D01*
X011950Y011050D01*
X011950Y012550D01*
X010950Y009550D02*
X010950Y008550D01*
M02*
