G75*
%MOIN*%
%OFA0B0*%
%FSLAX24Y24*%
%IPPOS*%
%LPD*%
%AMOC8*
5,1,8,0,0,1.08239X$1,22.5*
%
%ADD10C,0.0080*%
%ADD11C,0.0060*%
%ADD12C,0.0050*%
%ADD13R,0.0200X0.0200*%
%ADD14R,0.0340X0.0240*%
%ADD15C,0.0040*%
%ADD16C,0.0100*%
%ADD17R,0.0240X0.0340*%
D10*
X001450Y003419D02*
X001660Y003699D01*
X001660Y003880D02*
X001660Y004160D01*
X001660Y004020D02*
X001240Y004020D01*
X001380Y003880D01*
X001240Y003699D02*
X001450Y003419D01*
X003740Y005660D02*
X003810Y005590D01*
X004090Y005590D01*
X004160Y005660D01*
X004160Y005800D01*
X004090Y005870D01*
X003950Y005870D01*
X003950Y005730D01*
X003810Y005870D02*
X003740Y005800D01*
X003740Y005660D01*
X003740Y006050D02*
X004160Y006331D01*
X003740Y006331D01*
X003740Y006050D02*
X004160Y006050D01*
X004160Y006511D02*
X003740Y006511D01*
X003740Y006721D01*
X003810Y006791D01*
X004090Y006791D01*
X004160Y006721D01*
X004160Y006511D01*
X001070Y005800D02*
X001072Y005850D01*
X001078Y005900D01*
X001088Y005949D01*
X001102Y005997D01*
X001119Y006044D01*
X001140Y006089D01*
X001165Y006133D01*
X001193Y006174D01*
X001225Y006213D01*
X001259Y006250D01*
X001296Y006284D01*
X001336Y006314D01*
X001378Y006341D01*
X001422Y006365D01*
X001468Y006386D01*
X001515Y006402D01*
X001563Y006415D01*
X001613Y006424D01*
X001662Y006429D01*
X001713Y006430D01*
X001763Y006427D01*
X001812Y006420D01*
X001861Y006409D01*
X001909Y006394D01*
X001955Y006376D01*
X002000Y006354D01*
X002043Y006328D01*
X002084Y006299D01*
X002123Y006267D01*
X002159Y006232D01*
X002191Y006194D01*
X002221Y006154D01*
X002248Y006111D01*
X002271Y006067D01*
X002290Y006021D01*
X002306Y005973D01*
X002318Y005924D01*
X002326Y005875D01*
X002330Y005825D01*
X002330Y005775D01*
X002326Y005725D01*
X002318Y005676D01*
X002306Y005627D01*
X002290Y005579D01*
X002271Y005533D01*
X002248Y005489D01*
X002221Y005446D01*
X002191Y005406D01*
X002159Y005368D01*
X002123Y005333D01*
X002084Y005301D01*
X002043Y005272D01*
X002000Y005246D01*
X001955Y005224D01*
X001909Y005206D01*
X001861Y005191D01*
X001812Y005180D01*
X001763Y005173D01*
X001713Y005170D01*
X001662Y005171D01*
X001613Y005176D01*
X001563Y005185D01*
X001515Y005198D01*
X001468Y005214D01*
X001422Y005235D01*
X001378Y005259D01*
X001336Y005286D01*
X001296Y005316D01*
X001259Y005350D01*
X001225Y005387D01*
X001193Y005426D01*
X001165Y005467D01*
X001140Y005511D01*
X001119Y005556D01*
X001102Y005603D01*
X001088Y005651D01*
X001078Y005700D01*
X001072Y005750D01*
X001070Y005800D01*
X003740Y009340D02*
X004020Y009340D01*
X004160Y009480D01*
X004020Y009620D01*
X003740Y009620D01*
X003810Y009800D02*
X004090Y009800D01*
X004160Y009870D01*
X004160Y010011D01*
X004090Y010081D01*
X004090Y010261D02*
X003810Y010261D01*
X003740Y010331D01*
X003740Y010471D01*
X003810Y010541D01*
X004090Y010541D02*
X004160Y010471D01*
X004160Y010331D01*
X004090Y010261D01*
X003810Y010081D02*
X003740Y010011D01*
X003740Y009870D01*
X003810Y009800D01*
X016240Y007870D02*
X016240Y007590D01*
X016380Y007590D02*
X016380Y007800D01*
X016450Y007870D01*
X016520Y007800D01*
X016520Y007590D01*
X016700Y007660D02*
X016700Y007800D01*
X016770Y007870D01*
X016911Y007870D01*
X016981Y007800D01*
X016981Y007660D01*
X016911Y007590D01*
X016770Y007590D01*
X016700Y007660D01*
X016380Y007800D02*
X016310Y007870D01*
X016240Y007870D01*
X017161Y007870D02*
X017301Y007870D01*
X017231Y007940D02*
X017231Y007660D01*
X017301Y007590D01*
X018240Y013340D02*
X018520Y013340D01*
X018380Y013340D02*
X018380Y013760D01*
X018240Y013620D01*
X018700Y013760D02*
X018981Y013550D01*
X018700Y013340D01*
D11*
X001700Y001050D02*
X001200Y001050D01*
X000950Y001300D01*
X000950Y002800D01*
X001200Y003050D01*
X001700Y003050D01*
X001950Y002800D01*
X001950Y001300D01*
X002200Y001050D01*
X002700Y001050D01*
X002950Y001300D01*
X002950Y002800D01*
X003200Y003050D01*
X003700Y003050D01*
X003950Y002800D01*
X003950Y001300D01*
X004200Y001050D01*
X004700Y001050D01*
X004950Y001300D01*
X004950Y002800D01*
X005200Y003050D01*
X005700Y003050D01*
X005950Y002800D01*
X005950Y001300D01*
X006200Y001050D01*
X006700Y001050D01*
X006950Y001300D01*
X006950Y002800D01*
X007200Y003050D01*
X007700Y003050D01*
X007950Y002800D01*
X007950Y001300D01*
X007700Y001050D01*
X007200Y001050D01*
X006950Y001300D01*
X005950Y001300D02*
X005700Y001050D01*
X005200Y001050D01*
X004950Y001300D01*
X003950Y001300D02*
X003700Y001050D01*
X003200Y001050D01*
X002950Y001300D01*
X001950Y001300D02*
X001700Y001050D01*
X001950Y002800D02*
X002200Y003050D01*
X002700Y003050D01*
X002950Y002800D01*
X003950Y002800D02*
X004200Y003050D01*
X004700Y003050D01*
X004950Y002800D01*
X005950Y002800D02*
X006200Y003050D01*
X006700Y003050D01*
X006950Y002800D01*
X007950Y002800D02*
X008200Y003050D01*
X008700Y003050D01*
X008950Y002800D01*
X008950Y001300D01*
X008700Y001050D01*
X008200Y001050D01*
X007950Y001300D01*
X008950Y001300D02*
X009200Y001050D01*
X009700Y001050D01*
X009950Y001300D01*
X009950Y002800D01*
X010200Y003050D01*
X010700Y003050D01*
X010950Y002800D01*
X010950Y001300D01*
X010700Y001050D01*
X010200Y001050D01*
X009950Y001300D01*
X010950Y001300D02*
X011200Y001050D01*
X011700Y001050D01*
X011950Y001300D01*
X011950Y002800D01*
X012200Y003050D01*
X012700Y003050D01*
X012950Y002800D01*
X012950Y001300D01*
X012700Y001050D01*
X012200Y001050D01*
X011950Y001300D01*
X012950Y001300D02*
X013200Y001050D01*
X013700Y001050D01*
X013950Y001300D01*
X013950Y002800D01*
X014200Y003050D01*
X014700Y003050D01*
X014950Y002800D01*
X014950Y001300D01*
X014700Y001050D01*
X014200Y001050D01*
X013950Y001300D01*
X014950Y001300D02*
X015200Y001050D01*
X015700Y001050D01*
X015950Y001300D01*
X015950Y002800D01*
X016200Y003050D01*
X016700Y003050D01*
X016950Y002800D01*
X016950Y001300D01*
X016700Y001050D01*
X016200Y001050D01*
X015950Y001300D01*
X016950Y001300D02*
X017200Y001050D01*
X017700Y001050D01*
X017950Y001300D01*
X017950Y002800D01*
X017700Y003050D01*
X017200Y003050D01*
X016950Y002800D01*
X015950Y002800D02*
X015700Y003050D01*
X015200Y003050D01*
X014950Y002800D01*
X013950Y002800D02*
X013700Y003050D01*
X013200Y003050D01*
X012950Y002800D01*
X011950Y002800D02*
X011700Y003050D01*
X011200Y003050D01*
X010950Y002800D01*
X009950Y002800D02*
X009700Y003050D01*
X009200Y003050D01*
X008950Y002800D01*
X013480Y004080D02*
X013480Y004420D01*
X013650Y004420D01*
X013707Y004364D01*
X013707Y004250D01*
X013650Y004193D01*
X013480Y004193D01*
X013593Y004193D02*
X013707Y004080D01*
X013848Y004137D02*
X013905Y004193D01*
X014075Y004193D01*
X014075Y004250D02*
X014075Y004080D01*
X013905Y004080D01*
X013848Y004137D01*
X013905Y004307D02*
X014018Y004307D01*
X014075Y004250D01*
X014217Y004307D02*
X014217Y004080D01*
X014330Y004080D02*
X014330Y004250D01*
X014387Y004307D01*
X014443Y004250D01*
X014443Y004080D01*
X014585Y004137D02*
X014642Y004080D01*
X014755Y004080D01*
X014812Y004137D01*
X014812Y004250D01*
X014755Y004307D01*
X014642Y004307D01*
X014585Y004250D01*
X014585Y004137D01*
X014330Y004250D02*
X014273Y004307D01*
X014217Y004307D01*
X014217Y004680D02*
X014443Y004907D01*
X014443Y004964D01*
X014387Y005020D01*
X014273Y005020D01*
X014217Y004964D01*
X014075Y004964D02*
X014075Y004737D01*
X014018Y004680D01*
X013905Y004680D01*
X013848Y004737D01*
X014075Y004964D01*
X014018Y005020D01*
X013905Y005020D01*
X013848Y004964D01*
X013848Y004737D01*
X013707Y004680D02*
X013480Y004680D01*
X013707Y004907D01*
X013707Y004964D01*
X013650Y005020D01*
X013537Y005020D01*
X013480Y004964D01*
X013480Y005280D02*
X013480Y005620D01*
X013593Y005507D01*
X013707Y005620D01*
X013707Y005280D01*
X013848Y005280D02*
X013848Y005620D01*
X014018Y005507D02*
X013848Y005393D01*
X014018Y005280D01*
X014524Y005280D02*
X014750Y005280D01*
X014637Y005280D02*
X014637Y005620D01*
X014524Y005507D01*
X014462Y005767D02*
X014462Y006107D01*
X014632Y006107D01*
X014689Y006050D01*
X014689Y005937D01*
X014632Y005880D01*
X014462Y005880D01*
X014321Y005937D02*
X014321Y006050D01*
X014264Y006107D01*
X014151Y006107D01*
X014094Y006050D01*
X014094Y005937D01*
X014151Y005880D01*
X014264Y005880D01*
X014321Y005937D01*
X013962Y005880D02*
X013848Y005880D01*
X013905Y005880D02*
X013905Y006220D01*
X013848Y006220D01*
X013707Y006220D02*
X013480Y006220D01*
X013480Y005880D01*
X013480Y006050D02*
X013593Y006050D01*
X013650Y006480D02*
X013480Y006480D01*
X013480Y006820D01*
X013650Y006820D01*
X013707Y006764D01*
X013707Y006537D01*
X013650Y006480D01*
X013848Y006480D02*
X013848Y006707D01*
X013848Y006593D02*
X013962Y006707D01*
X014018Y006707D01*
X014212Y006707D02*
X014325Y006707D01*
X014382Y006650D01*
X014382Y006480D01*
X014212Y006480D01*
X014155Y006537D01*
X014212Y006593D01*
X014382Y006593D01*
X014524Y006537D02*
X014580Y006480D01*
X014750Y006480D01*
X014750Y006423D02*
X014750Y006707D01*
X014580Y006707D01*
X014524Y006650D01*
X014524Y006537D01*
X014637Y006367D02*
X014694Y006367D01*
X014750Y006423D01*
X014892Y006537D02*
X014949Y006480D01*
X015062Y006480D01*
X015119Y006537D01*
X015119Y006650D01*
X015062Y006707D01*
X014949Y006707D01*
X014892Y006650D01*
X014892Y006537D01*
X015260Y006480D02*
X015260Y006707D01*
X015430Y006707D01*
X015487Y006650D01*
X015487Y006480D01*
X015426Y006107D02*
X015426Y005823D01*
X015369Y005767D01*
X015312Y005767D01*
X015256Y005880D02*
X015426Y005880D01*
X015256Y005880D02*
X015199Y005937D01*
X015199Y006107D01*
X015057Y006050D02*
X015057Y005937D01*
X015001Y005880D01*
X014830Y005880D01*
X014830Y005767D02*
X014830Y006107D01*
X015001Y006107D01*
X015057Y006050D01*
X015189Y005620D02*
X015189Y005280D01*
X015076Y005280D02*
X015303Y005280D01*
X015444Y005337D02*
X015671Y005564D01*
X015671Y005337D01*
X015614Y005280D01*
X015501Y005280D01*
X015444Y005337D01*
X015444Y005564D01*
X015501Y005620D01*
X015614Y005620D01*
X015671Y005564D01*
X015992Y005880D02*
X015935Y005937D01*
X015992Y005993D01*
X016162Y005993D01*
X016162Y006050D02*
X016106Y006107D01*
X015992Y006107D01*
X016162Y006050D02*
X016162Y005880D01*
X015992Y005880D01*
X016304Y005937D02*
X016304Y006050D01*
X016360Y006107D01*
X016531Y006107D01*
X016531Y006220D02*
X016531Y005880D01*
X016360Y005880D01*
X016304Y005937D01*
X016672Y005937D02*
X016729Y005880D01*
X016899Y005880D01*
X016899Y006050D01*
X016842Y006107D01*
X016729Y006107D01*
X016729Y005993D02*
X016899Y005993D01*
X016729Y005993D02*
X016672Y005937D01*
X017040Y005880D02*
X017211Y005880D01*
X017267Y005937D01*
X017267Y006050D01*
X017211Y006107D01*
X017040Y006107D01*
X017040Y005767D01*
X017465Y005937D02*
X017465Y006164D01*
X017409Y006107D02*
X017522Y006107D01*
X017654Y006050D02*
X017654Y005937D01*
X017711Y005880D01*
X017824Y005880D01*
X017881Y005993D02*
X017654Y005993D01*
X017654Y006050D02*
X017711Y006107D01*
X017824Y006107D01*
X017881Y006050D01*
X017881Y005993D01*
X018023Y005993D02*
X018136Y006107D01*
X018193Y006107D01*
X018023Y006107D02*
X018023Y005880D01*
X017522Y005880D02*
X017465Y005937D01*
X017206Y006480D02*
X017036Y006480D01*
X016979Y006537D01*
X017036Y006593D01*
X017206Y006593D01*
X017206Y006650D02*
X017206Y006480D01*
X016847Y006480D02*
X016790Y006537D01*
X016790Y006764D01*
X016733Y006707D02*
X016847Y006707D01*
X017036Y006707D02*
X017149Y006707D01*
X017206Y006650D01*
X016592Y006650D02*
X016592Y006593D01*
X016365Y006593D01*
X016365Y006537D02*
X016365Y006650D01*
X016422Y006707D01*
X016535Y006707D01*
X016592Y006650D01*
X016422Y006480D02*
X016365Y006537D01*
X016422Y006480D02*
X016535Y006480D01*
X016224Y006537D02*
X016167Y006480D01*
X015997Y006480D01*
X015997Y006820D01*
X016167Y006820D01*
X016224Y006764D01*
X016224Y006707D01*
X016167Y006650D01*
X015997Y006650D01*
X016167Y006650D02*
X016224Y006593D01*
X016224Y006537D01*
X015700Y007300D02*
X015200Y007300D01*
X014950Y007550D01*
X014700Y007300D01*
X014200Y007300D01*
X013950Y007550D01*
X013700Y007300D01*
X013200Y007300D01*
X012950Y007550D01*
X012950Y008050D01*
X013200Y008300D01*
X013700Y008300D01*
X013950Y008050D01*
X014200Y008300D01*
X014700Y008300D01*
X014950Y008050D01*
X015200Y008300D01*
X015700Y008300D01*
X015950Y008050D01*
X015950Y007550D01*
X015700Y007300D01*
X014950Y007550D02*
X014950Y008050D01*
X015006Y008580D02*
X014949Y008637D01*
X014949Y008750D01*
X015006Y008807D01*
X015119Y008807D01*
X015176Y008750D01*
X015176Y008693D01*
X014949Y008693D01*
X015006Y008580D02*
X015119Y008580D01*
X014817Y008580D02*
X014703Y008580D01*
X014760Y008580D02*
X014760Y008920D01*
X014703Y008920D01*
X014562Y008750D02*
X014505Y008807D01*
X014335Y008807D01*
X014335Y008920D02*
X014335Y008580D01*
X014505Y008580D01*
X014562Y008637D01*
X014562Y008750D01*
X014193Y008750D02*
X014193Y008580D01*
X014023Y008580D01*
X013967Y008637D01*
X014023Y008693D01*
X014193Y008693D01*
X014193Y008750D02*
X014137Y008807D01*
X014023Y008807D01*
X013825Y008750D02*
X013825Y008580D01*
X013825Y008750D02*
X013768Y008807D01*
X013598Y008807D01*
X013598Y008580D01*
X013457Y008693D02*
X013457Y008750D01*
X013400Y008807D01*
X013287Y008807D01*
X013230Y008750D01*
X013230Y008637D01*
X013287Y008580D01*
X013400Y008580D01*
X013457Y008693D02*
X013230Y008693D01*
X013200Y009040D02*
X015287Y009040D01*
X015563Y009717D02*
X015563Y010057D01*
X015733Y010057D01*
X015790Y010000D01*
X015790Y009887D01*
X015733Y009830D01*
X015563Y009830D01*
X015931Y009830D02*
X016044Y009830D01*
X015988Y009830D02*
X015988Y010057D01*
X015931Y010057D01*
X015988Y010170D02*
X015988Y010227D01*
X016177Y010057D02*
X016347Y010057D01*
X016403Y010000D01*
X016403Y009830D01*
X016177Y009830D02*
X016177Y010057D01*
X016290Y010430D02*
X016403Y010543D01*
X016403Y010770D01*
X016545Y010714D02*
X016545Y010487D01*
X016602Y010430D01*
X016715Y010430D01*
X016772Y010487D01*
X016913Y010487D02*
X016970Y010430D01*
X017083Y010430D01*
X017140Y010487D01*
X017140Y010714D02*
X017083Y010770D01*
X016970Y010770D01*
X016913Y010714D01*
X016913Y010487D01*
X016772Y010714D02*
X016715Y010770D01*
X016602Y010770D01*
X016545Y010714D01*
X016177Y010770D02*
X016177Y010543D01*
X016290Y010430D01*
X015676Y010430D02*
X015563Y010430D01*
X015619Y010430D02*
X015619Y010770D01*
X015563Y010770D01*
X015421Y010600D02*
X015364Y010657D01*
X015251Y010657D01*
X015251Y010543D02*
X015421Y010543D01*
X015421Y010600D02*
X015421Y010430D01*
X015251Y010430D01*
X015194Y010487D01*
X015251Y010543D01*
X015053Y010600D02*
X015053Y010430D01*
X015053Y010600D02*
X014996Y010657D01*
X014826Y010657D01*
X014826Y010430D01*
X014685Y010487D02*
X014685Y010600D01*
X014628Y010657D01*
X014514Y010657D01*
X014458Y010600D01*
X014458Y010487D01*
X014514Y010430D01*
X014628Y010430D01*
X014685Y010487D01*
X014637Y010227D02*
X014637Y010170D01*
X014637Y010057D02*
X014637Y009830D01*
X014580Y009830D02*
X014694Y009830D01*
X014826Y009887D02*
X014883Y009943D01*
X015053Y009943D01*
X015053Y010000D02*
X015053Y009830D01*
X014883Y009830D01*
X014826Y009887D01*
X014883Y010057D02*
X014996Y010057D01*
X015053Y010000D01*
X014637Y010057D02*
X014580Y010057D01*
X014439Y010057D02*
X014326Y009830D01*
X014212Y010057D01*
X014212Y010430D02*
X014326Y010430D01*
X014269Y010430D02*
X014269Y010657D01*
X014212Y010657D01*
X014269Y010770D02*
X014269Y010827D01*
X014200Y011050D02*
X014700Y011050D01*
X014950Y011300D01*
X015200Y011050D01*
X015700Y011050D01*
X015950Y011300D01*
X015950Y011800D01*
X015700Y012050D01*
X015200Y012050D01*
X014950Y011800D01*
X014950Y011300D01*
X014200Y011050D02*
X013950Y011300D01*
X013950Y011800D01*
X014200Y012050D01*
X014700Y012050D01*
X014950Y011800D01*
X014000Y012150D02*
X015900Y012150D01*
X015950Y012100D01*
X016100Y012100D01*
X016117Y012102D01*
X016134Y012106D01*
X016150Y012113D01*
X016164Y012123D01*
X016177Y012136D01*
X016187Y012150D01*
X016194Y012166D01*
X016198Y012183D01*
X016200Y012200D01*
X016200Y012900D01*
X016198Y012917D01*
X016194Y012934D01*
X016187Y012950D01*
X016177Y012964D01*
X016164Y012977D01*
X016150Y012987D01*
X016134Y012994D01*
X016117Y012998D01*
X016100Y013000D01*
X015950Y013000D01*
X015900Y012950D01*
X014000Y012950D01*
X013950Y013000D01*
X013800Y013000D01*
X013800Y013100D02*
X013950Y013100D01*
X014000Y013150D01*
X015900Y013150D01*
X015950Y013100D01*
X016100Y013100D01*
X016117Y013102D01*
X016134Y013106D01*
X016150Y013113D01*
X016164Y013123D01*
X016177Y013136D01*
X016187Y013150D01*
X016194Y013166D01*
X016198Y013183D01*
X016200Y013200D01*
X016200Y013900D01*
X016198Y013917D01*
X016194Y013934D01*
X016187Y013950D01*
X016177Y013964D01*
X016164Y013977D01*
X016150Y013987D01*
X016134Y013994D01*
X016117Y013998D01*
X016100Y014000D01*
X015950Y014000D01*
X015900Y013950D01*
X014000Y013950D01*
X013950Y014000D01*
X013800Y014000D01*
X013783Y013998D01*
X013766Y013994D01*
X013750Y013987D01*
X013736Y013977D01*
X013723Y013964D01*
X013713Y013950D01*
X013706Y013934D01*
X013702Y013917D01*
X013700Y013900D01*
X013700Y013200D01*
X013702Y013183D01*
X013706Y013166D01*
X013713Y013150D01*
X013723Y013136D01*
X013736Y013123D01*
X013750Y013113D01*
X013766Y013106D01*
X013783Y013102D01*
X013800Y013100D01*
X013800Y013000D02*
X013783Y012998D01*
X013766Y012994D01*
X013750Y012987D01*
X013736Y012977D01*
X013723Y012964D01*
X013713Y012950D01*
X013706Y012934D01*
X013702Y012917D01*
X013700Y012900D01*
X013700Y012200D01*
X013702Y012183D01*
X013706Y012166D01*
X013713Y012150D01*
X013723Y012136D01*
X013736Y012123D01*
X013750Y012113D01*
X013766Y012106D01*
X013783Y012102D01*
X013800Y012100D01*
X013950Y012100D01*
X014000Y012150D01*
X012450Y012200D02*
X012450Y009900D01*
X004450Y009900D01*
X004450Y010650D01*
X004489Y010652D01*
X004528Y010658D01*
X004566Y010667D01*
X004603Y010680D01*
X004639Y010697D01*
X004672Y010717D01*
X004704Y010741D01*
X004733Y010767D01*
X004759Y010796D01*
X004783Y010828D01*
X004803Y010861D01*
X004820Y010897D01*
X004833Y010934D01*
X004842Y010972D01*
X004848Y011011D01*
X004850Y011050D01*
X004848Y011089D01*
X004842Y011128D01*
X004833Y011166D01*
X004820Y011203D01*
X004803Y011239D01*
X004783Y011272D01*
X004759Y011304D01*
X004733Y011333D01*
X004704Y011359D01*
X004672Y011383D01*
X004639Y011403D01*
X004603Y011420D01*
X004566Y011433D01*
X004528Y011442D01*
X004489Y011448D01*
X004450Y011450D01*
X004450Y012200D01*
X012450Y012200D01*
X013287Y010770D02*
X013230Y010714D01*
X013230Y010487D01*
X013287Y010430D01*
X013400Y010430D01*
X013457Y010487D01*
X013457Y010714D01*
X013400Y010770D01*
X013287Y010770D01*
X013598Y010657D02*
X013768Y010657D01*
X013825Y010600D01*
X013825Y010487D01*
X013768Y010430D01*
X013598Y010430D01*
X013598Y010317D02*
X013598Y010657D01*
X013967Y010657D02*
X014080Y010657D01*
X014023Y010714D02*
X014023Y010487D01*
X014080Y010430D01*
X013646Y010057D02*
X013702Y010000D01*
X013702Y009830D01*
X013476Y009830D02*
X013476Y010057D01*
X013646Y010057D01*
X013287Y010057D02*
X013287Y009830D01*
X013343Y009830D02*
X013230Y009830D01*
X013230Y010057D02*
X013287Y010057D01*
X013287Y010170D02*
X013287Y010227D01*
X012450Y008200D02*
X012450Y005900D01*
X005450Y005900D01*
X005450Y006650D01*
X005489Y006652D01*
X005528Y006658D01*
X005566Y006667D01*
X005603Y006680D01*
X005639Y006697D01*
X005672Y006717D01*
X005704Y006741D01*
X005733Y006767D01*
X005759Y006796D01*
X005783Y006828D01*
X005803Y006861D01*
X005820Y006897D01*
X005833Y006934D01*
X005842Y006972D01*
X005848Y007011D01*
X005850Y007050D01*
X005848Y007089D01*
X005842Y007128D01*
X005833Y007166D01*
X005820Y007203D01*
X005803Y007239D01*
X005783Y007272D01*
X005759Y007304D01*
X005733Y007333D01*
X005704Y007359D01*
X005672Y007383D01*
X005639Y007403D01*
X005603Y007420D01*
X005566Y007433D01*
X005528Y007442D01*
X005489Y007448D01*
X005450Y007450D01*
X005450Y008200D01*
X012450Y008200D01*
X013950Y008050D02*
X013950Y007550D01*
X015189Y005620D02*
X015076Y005507D01*
X014949Y005337D02*
X014949Y005280D01*
X014892Y005280D01*
X014892Y005337D01*
X014949Y005337D01*
X014755Y005020D02*
X014642Y005020D01*
X014585Y004964D01*
X014755Y005020D02*
X014812Y004964D01*
X014812Y004907D01*
X014585Y004680D01*
X014812Y004680D01*
X014953Y004850D02*
X015180Y004850D01*
X015322Y004737D02*
X015378Y004680D01*
X015492Y004680D01*
X015548Y004737D01*
X015548Y004964D01*
X015322Y004737D01*
X015322Y004964D01*
X015378Y005020D01*
X015492Y005020D01*
X015548Y004964D01*
X015690Y004964D02*
X015747Y005020D01*
X015860Y005020D01*
X015917Y004964D01*
X015917Y004907D01*
X015860Y004850D01*
X015917Y004793D01*
X015917Y004737D01*
X015860Y004680D01*
X015747Y004680D01*
X015690Y004737D01*
X015803Y004850D02*
X015860Y004850D01*
X016058Y004850D02*
X016285Y004850D01*
X016427Y004964D02*
X016483Y005020D01*
X016597Y005020D01*
X016653Y004964D01*
X016653Y004907D01*
X016427Y004680D01*
X016653Y004680D01*
X016795Y004737D02*
X016852Y004680D01*
X016965Y004680D01*
X017022Y004737D01*
X017022Y004793D01*
X016965Y004850D01*
X016908Y004850D01*
X016965Y004850D02*
X017022Y004907D01*
X017022Y004964D01*
X016965Y005020D01*
X016852Y005020D01*
X016795Y004964D01*
X015624Y004137D02*
X015624Y004080D01*
X015567Y004080D01*
X015567Y004137D01*
X015624Y004137D01*
X015426Y004080D02*
X015426Y004250D01*
X015369Y004307D01*
X015256Y004307D01*
X015199Y004250D01*
X015067Y004307D02*
X014953Y004307D01*
X015010Y004364D02*
X015010Y004137D01*
X015067Y004080D01*
X015199Y004080D02*
X015199Y004420D01*
X014443Y004680D02*
X014217Y004680D01*
X011197Y007114D02*
X010970Y006887D01*
X010970Y006830D01*
X010829Y006830D02*
X010602Y006830D01*
X010715Y006830D02*
X010715Y007170D01*
X010602Y007057D01*
X010460Y007000D02*
X010233Y007000D01*
X010404Y007170D01*
X010404Y006830D01*
X010092Y007114D02*
X009865Y006887D01*
X009865Y006830D01*
X009865Y007170D02*
X010092Y007170D01*
X010092Y007114D01*
X009360Y007057D02*
X009303Y007057D01*
X009190Y006943D01*
X009190Y006830D02*
X009190Y007057D01*
X009048Y007000D02*
X009048Y006887D01*
X008992Y006830D01*
X008878Y006830D01*
X008822Y006887D01*
X008822Y007000D01*
X008878Y007057D01*
X008992Y007057D01*
X009048Y007000D01*
X008312Y007114D02*
X008085Y006887D01*
X008085Y006830D01*
X007943Y006887D02*
X007887Y006830D01*
X007773Y006830D01*
X007717Y006887D01*
X007943Y007114D01*
X007943Y006887D01*
X007717Y006887D02*
X007717Y007114D01*
X007773Y007170D01*
X007887Y007170D01*
X007943Y007114D01*
X008085Y007170D02*
X008312Y007170D01*
X008312Y007114D01*
X007575Y007000D02*
X007348Y007000D01*
X007518Y007170D01*
X007518Y006830D01*
X007207Y007114D02*
X006980Y006887D01*
X006980Y006830D01*
X006980Y007170D02*
X007207Y007170D01*
X007207Y007114D01*
X005450Y007900D02*
X005450Y006200D01*
X005448Y006183D01*
X005444Y006166D01*
X005437Y006150D01*
X005427Y006136D01*
X005414Y006123D01*
X005400Y006113D01*
X005384Y006106D01*
X005367Y006102D01*
X005350Y006100D01*
X004550Y006100D01*
X004533Y006102D01*
X004516Y006106D01*
X004500Y006113D01*
X004486Y006123D01*
X004473Y006136D01*
X004463Y006150D01*
X004456Y006166D01*
X004452Y006183D01*
X004450Y006200D01*
X004450Y007900D01*
X004452Y007917D01*
X004456Y007934D01*
X004463Y007950D01*
X004473Y007964D01*
X004486Y007977D01*
X004500Y007987D01*
X004516Y007994D01*
X004533Y007998D01*
X004550Y008000D01*
X005350Y008000D01*
X005367Y007998D01*
X005384Y007994D01*
X005400Y007987D01*
X005414Y007977D01*
X005427Y007964D01*
X005437Y007950D01*
X005444Y007934D01*
X005448Y007917D01*
X005450Y007900D01*
X004950Y007200D02*
X004950Y007150D01*
X004950Y006950D02*
X004950Y006900D01*
X004450Y007300D02*
X004200Y007050D01*
X003700Y007050D01*
X003450Y007300D01*
X003450Y007800D01*
X003700Y008050D01*
X003450Y008300D01*
X003450Y008800D01*
X003700Y009050D01*
X004200Y009050D01*
X004450Y008800D01*
X004450Y008300D01*
X004200Y008050D01*
X004450Y007800D01*
X004450Y007300D01*
X004200Y008050D02*
X003700Y008050D01*
X002420Y008005D02*
X002363Y007948D01*
X002420Y008005D02*
X002420Y008118D01*
X002363Y008175D01*
X002307Y008175D01*
X002250Y008118D01*
X002250Y008005D01*
X002193Y007948D01*
X002136Y007948D01*
X002080Y008005D01*
X002080Y008118D01*
X002136Y008175D01*
X002136Y008317D02*
X002080Y008373D01*
X002080Y008487D01*
X002136Y008543D01*
X002363Y008317D01*
X002420Y008373D01*
X002420Y008487D01*
X002363Y008543D01*
X002136Y008543D01*
X002136Y008317D02*
X002363Y008317D01*
X002363Y007807D02*
X002136Y007807D01*
X002080Y007750D01*
X002080Y007580D01*
X002420Y007580D01*
X002420Y007750D01*
X002363Y007807D01*
X001200Y007450D02*
X001155Y007452D01*
X001109Y007457D01*
X001065Y007465D01*
X001021Y007477D01*
X000978Y007493D01*
X000936Y007511D01*
X000896Y007533D01*
X000858Y007557D01*
X000822Y007584D01*
X000787Y007614D01*
X000756Y007647D01*
X000726Y007682D01*
X001200Y008650D02*
X001247Y008648D01*
X001295Y008642D01*
X001341Y008633D01*
X001387Y008620D01*
X001431Y008604D01*
X001475Y008583D01*
X001516Y008560D01*
X001555Y008534D01*
X001592Y008504D01*
X001627Y008471D01*
X001659Y008436D01*
X001688Y008399D01*
X001200Y008650D02*
X001154Y008648D01*
X001108Y008643D01*
X001062Y008634D01*
X001017Y008622D01*
X000974Y008606D01*
X000932Y008587D01*
X000891Y008564D01*
X000852Y008539D01*
X000816Y008511D01*
X000781Y008480D01*
X000749Y008446D01*
X000720Y008410D01*
X001200Y007450D02*
X001245Y007452D01*
X001291Y007457D01*
X001335Y007465D01*
X001379Y007477D01*
X001422Y007493D01*
X001464Y007511D01*
X001504Y007533D01*
X001542Y007557D01*
X001578Y007584D01*
X001613Y007614D01*
X001644Y007647D01*
X001674Y007682D01*
X002750Y009050D02*
X003150Y009050D01*
X003176Y009052D01*
X003202Y009057D01*
X003227Y009065D01*
X003250Y009077D01*
X003272Y009091D01*
X003291Y009109D01*
X003309Y009128D01*
X003323Y009150D01*
X003335Y009173D01*
X003343Y009198D01*
X003348Y009224D01*
X003350Y009250D01*
X003350Y013850D01*
X003300Y013900D02*
X002600Y013900D01*
X002600Y013200D01*
X003300Y013200D01*
X003300Y013900D01*
X003350Y013850D02*
X003348Y013876D01*
X003343Y013902D01*
X003335Y013927D01*
X003323Y013950D01*
X003309Y013972D01*
X003291Y013991D01*
X003272Y014009D01*
X003250Y014023D01*
X003227Y014035D01*
X003202Y014043D01*
X003176Y014048D01*
X003150Y014050D01*
X002750Y014050D01*
X002724Y014048D01*
X002698Y014043D01*
X002673Y014035D01*
X002650Y014023D01*
X002628Y014009D01*
X002609Y013991D01*
X002591Y013972D01*
X002577Y013950D01*
X002565Y013927D01*
X002557Y013902D01*
X002552Y013876D01*
X002550Y013850D01*
X002550Y009250D01*
X002420Y009330D02*
X002420Y009500D01*
X002363Y009557D01*
X002136Y009557D01*
X002080Y009500D01*
X002080Y009330D01*
X002420Y009330D01*
X002550Y009250D02*
X002552Y009224D01*
X002557Y009198D01*
X002565Y009173D01*
X002577Y009150D01*
X002591Y009128D01*
X002609Y009109D01*
X002628Y009091D01*
X002650Y009077D01*
X002673Y009065D01*
X002698Y009057D01*
X002724Y009052D01*
X002750Y009050D01*
X002363Y009698D02*
X002420Y009755D01*
X002420Y009868D01*
X002363Y009925D01*
X002307Y009925D01*
X002250Y009868D01*
X002250Y009755D01*
X002193Y009698D01*
X002136Y009698D01*
X002080Y009755D01*
X002080Y009868D01*
X002136Y009925D01*
X002193Y010067D02*
X002080Y010180D01*
X002420Y010180D01*
X002420Y010067D02*
X002420Y010293D01*
X002420Y011080D02*
X002080Y011080D01*
X002080Y011250D01*
X002136Y011307D01*
X002363Y011307D01*
X002420Y011250D01*
X002420Y011080D01*
X002363Y011448D02*
X002420Y011505D01*
X002420Y011618D01*
X002363Y011675D01*
X002307Y011675D01*
X002250Y011618D01*
X002250Y011505D01*
X002193Y011448D01*
X002136Y011448D01*
X002080Y011505D01*
X002080Y011618D01*
X002136Y011675D01*
X002136Y011817D02*
X002080Y011873D01*
X002080Y011987D01*
X002136Y012043D01*
X002193Y012043D01*
X002420Y011817D01*
X002420Y012043D01*
X002420Y012830D02*
X002080Y012830D01*
X002080Y013000D01*
X002136Y013057D01*
X002363Y013057D01*
X002420Y013000D01*
X002420Y012830D01*
X002363Y013198D02*
X002420Y013255D01*
X002420Y013368D01*
X002363Y013425D01*
X002307Y013425D01*
X002250Y013368D01*
X002250Y013255D01*
X002193Y013198D01*
X002136Y013198D01*
X002080Y013255D01*
X002080Y013368D01*
X002136Y013425D01*
X002136Y013567D02*
X002080Y013623D01*
X002080Y013737D01*
X002136Y013793D01*
X002193Y013793D01*
X002250Y013737D01*
X002307Y013793D01*
X002363Y013793D01*
X002420Y013737D01*
X002420Y013623D01*
X002363Y013567D01*
X002250Y013680D02*
X002250Y013737D01*
X001200Y012700D02*
X001155Y012702D01*
X001109Y012707D01*
X001065Y012715D01*
X001021Y012727D01*
X000978Y012743D01*
X000936Y012761D01*
X000896Y012783D01*
X000858Y012807D01*
X000822Y012834D01*
X000787Y012864D01*
X000756Y012897D01*
X000726Y012932D01*
X001200Y013900D02*
X001247Y013898D01*
X001295Y013892D01*
X001341Y013883D01*
X001387Y013870D01*
X001431Y013854D01*
X001475Y013833D01*
X001516Y013810D01*
X001555Y013784D01*
X001592Y013754D01*
X001627Y013721D01*
X001659Y013686D01*
X001688Y013649D01*
X001200Y013900D02*
X001154Y013898D01*
X001108Y013893D01*
X001062Y013884D01*
X001017Y013872D01*
X000974Y013856D01*
X000932Y013837D01*
X000891Y013814D01*
X000852Y013789D01*
X000816Y013761D01*
X000781Y013730D01*
X000749Y013696D01*
X000720Y013660D01*
X001200Y012700D02*
X001245Y012702D01*
X001291Y012707D01*
X001335Y012715D01*
X001379Y012727D01*
X001422Y012743D01*
X001464Y012761D01*
X001504Y012783D01*
X001542Y012807D01*
X001578Y012834D01*
X001613Y012864D01*
X001644Y012897D01*
X001674Y012932D01*
X003450Y012900D02*
X003450Y011200D01*
X003452Y011183D01*
X003456Y011166D01*
X003463Y011150D01*
X003473Y011136D01*
X003486Y011123D01*
X003500Y011113D01*
X003516Y011106D01*
X003533Y011102D01*
X003550Y011100D01*
X004350Y011100D01*
X004367Y011102D01*
X004384Y011106D01*
X004400Y011113D01*
X004414Y011123D01*
X004427Y011136D01*
X004437Y011150D01*
X004444Y011166D01*
X004448Y011183D01*
X004450Y011200D01*
X004450Y012900D01*
X004448Y012917D01*
X004444Y012934D01*
X004437Y012950D01*
X004427Y012964D01*
X004414Y012977D01*
X004400Y012987D01*
X004384Y012994D01*
X004367Y012998D01*
X004350Y013000D01*
X003550Y013000D01*
X003533Y012998D01*
X003516Y012994D01*
X003500Y012987D01*
X003486Y012977D01*
X003473Y012964D01*
X003463Y012950D01*
X003456Y012934D01*
X003452Y012917D01*
X003450Y012900D01*
X003950Y012200D02*
X003950Y012150D01*
X003950Y011950D02*
X003950Y011900D01*
X001200Y010950D02*
X001155Y010952D01*
X001109Y010957D01*
X001065Y010965D01*
X001021Y010977D01*
X000978Y010993D01*
X000936Y011011D01*
X000896Y011033D01*
X000858Y011057D01*
X000822Y011084D01*
X000787Y011114D01*
X000756Y011147D01*
X000726Y011182D01*
X001200Y012150D02*
X001247Y012148D01*
X001295Y012142D01*
X001341Y012133D01*
X001387Y012120D01*
X001431Y012104D01*
X001475Y012083D01*
X001516Y012060D01*
X001555Y012034D01*
X001592Y012004D01*
X001627Y011971D01*
X001659Y011936D01*
X001688Y011899D01*
X001200Y012150D02*
X001154Y012148D01*
X001108Y012143D01*
X001062Y012134D01*
X001017Y012122D01*
X000974Y012106D01*
X000932Y012087D01*
X000891Y012064D01*
X000852Y012039D01*
X000816Y012011D01*
X000781Y011980D01*
X000749Y011946D01*
X000720Y011910D01*
X001200Y010950D02*
X001245Y010952D01*
X001291Y010957D01*
X001335Y010965D01*
X001379Y010977D01*
X001422Y010993D01*
X001464Y011011D01*
X001504Y011033D01*
X001542Y011057D01*
X001578Y011084D01*
X001613Y011114D01*
X001644Y011147D01*
X001674Y011182D01*
X000726Y009432D02*
X000756Y009397D01*
X000787Y009364D01*
X000822Y009334D01*
X000858Y009307D01*
X000896Y009283D01*
X000936Y009261D01*
X000978Y009243D01*
X001021Y009227D01*
X001065Y009215D01*
X001109Y009207D01*
X001155Y009202D01*
X001200Y009200D01*
X000720Y010160D02*
X000749Y010196D01*
X000781Y010230D01*
X000816Y010261D01*
X000852Y010289D01*
X000891Y010314D01*
X000932Y010337D01*
X000974Y010356D01*
X001017Y010372D01*
X001062Y010384D01*
X001108Y010393D01*
X001154Y010398D01*
X001200Y010400D01*
X001674Y009432D02*
X001644Y009397D01*
X001613Y009364D01*
X001578Y009334D01*
X001542Y009307D01*
X001504Y009283D01*
X001464Y009261D01*
X001422Y009243D01*
X001379Y009227D01*
X001335Y009215D01*
X001291Y009207D01*
X001245Y009202D01*
X001200Y009200D01*
X001688Y010149D02*
X001659Y010186D01*
X001627Y010221D01*
X001592Y010254D01*
X001555Y010284D01*
X001516Y010310D01*
X001475Y010333D01*
X001431Y010354D01*
X001387Y010370D01*
X001341Y010383D01*
X001295Y010392D01*
X001247Y010398D01*
X001200Y010400D01*
X007230Y010830D02*
X007230Y010887D01*
X007457Y011114D01*
X007457Y011170D01*
X007230Y011170D01*
X007598Y011000D02*
X007825Y011000D01*
X007768Y010830D02*
X007768Y011170D01*
X007598Y011000D01*
X007967Y010830D02*
X008193Y010830D01*
X008335Y010887D02*
X008392Y010830D01*
X008505Y010830D01*
X008562Y010887D01*
X008562Y010943D01*
X008505Y011000D01*
X008392Y011000D01*
X008335Y011057D01*
X008335Y011114D01*
X008392Y011170D01*
X008505Y011170D01*
X008562Y011114D01*
X008703Y011057D02*
X008817Y011170D01*
X008817Y010830D01*
X008930Y010830D02*
X008703Y010830D01*
X009072Y010887D02*
X009128Y010830D01*
X009242Y010830D01*
X009298Y010887D01*
X009298Y010943D01*
X009242Y011000D01*
X009185Y011000D01*
X009242Y011000D02*
X009298Y011057D01*
X009298Y011114D01*
X009242Y011170D01*
X009128Y011170D01*
X009072Y011114D01*
X009440Y011114D02*
X009440Y011057D01*
X009497Y011000D01*
X009667Y011000D01*
X009667Y010887D02*
X009667Y011114D01*
X009610Y011170D01*
X009497Y011170D01*
X009440Y011114D01*
X009440Y010887D02*
X009497Y010830D01*
X009610Y010830D01*
X009667Y010887D01*
X007967Y010830D02*
X007967Y011170D01*
X010970Y007170D02*
X011197Y007170D01*
X011197Y007114D01*
X016913Y009887D02*
X016970Y009830D01*
X017083Y009830D01*
X017140Y009887D01*
X017140Y010000D01*
X017083Y010057D01*
X017027Y010057D01*
X016913Y010000D01*
X016913Y010170D01*
X017140Y010170D01*
X018250Y010050D02*
X018250Y009900D01*
X018252Y009883D01*
X018256Y009866D01*
X018263Y009850D01*
X018273Y009836D01*
X018286Y009823D01*
X018300Y009813D01*
X018316Y009806D01*
X018333Y009802D01*
X018350Y009800D01*
X019050Y009800D01*
X019067Y009802D01*
X019084Y009806D01*
X019100Y009813D01*
X019114Y009823D01*
X019127Y009836D01*
X019137Y009850D01*
X019144Y009866D01*
X019148Y009883D01*
X019150Y009900D01*
X019150Y010050D01*
X019100Y010100D01*
X019100Y012000D01*
X019150Y012050D01*
X019150Y012200D01*
X019148Y012217D01*
X019144Y012234D01*
X019137Y012250D01*
X019127Y012264D01*
X019114Y012277D01*
X019100Y012287D01*
X019084Y012294D01*
X019067Y012298D01*
X019050Y012300D01*
X018350Y012300D01*
X018333Y012298D01*
X018316Y012294D01*
X018300Y012287D01*
X018286Y012277D01*
X018273Y012264D01*
X018263Y012250D01*
X018256Y012234D01*
X018252Y012217D01*
X018250Y012200D01*
X018250Y012050D01*
X018300Y012000D01*
X018300Y010100D01*
X018250Y010050D01*
X019450Y009800D02*
X019450Y009300D01*
X019700Y009050D01*
X021200Y009050D01*
X021450Y008800D01*
X021450Y008300D01*
X021200Y008050D01*
X019700Y008050D01*
X019450Y007800D01*
X019450Y007300D01*
X019700Y007050D01*
X021200Y007050D01*
X021450Y006800D01*
X021450Y006300D01*
X021200Y006050D01*
X019700Y006050D01*
X019450Y006300D01*
X019450Y006800D01*
X019700Y007050D01*
X019700Y006050D02*
X019450Y005800D01*
X019450Y005300D01*
X019700Y005050D01*
X021200Y005050D01*
X021450Y004800D01*
X021450Y004300D01*
X021200Y004050D01*
X019700Y004050D01*
X019450Y004300D01*
X019450Y004800D01*
X019700Y005050D01*
X019700Y004050D02*
X019450Y003800D01*
X019450Y003300D01*
X019700Y003050D01*
X021200Y003050D01*
X021450Y002800D01*
X021450Y002300D01*
X021200Y002050D01*
X021450Y001800D01*
X021450Y001300D01*
X021200Y001050D01*
X019700Y001050D01*
X019450Y001300D01*
X019450Y001800D01*
X019700Y002050D01*
X021200Y002050D01*
X021200Y003050D02*
X021450Y003300D01*
X021450Y003800D01*
X021200Y004050D01*
X021200Y005050D02*
X021450Y005300D01*
X021450Y005800D01*
X021200Y006050D01*
X021200Y007050D02*
X021450Y007300D01*
X021450Y007800D01*
X021200Y008050D01*
X021200Y009050D02*
X021450Y009300D01*
X021450Y009800D01*
X021200Y010050D01*
X019700Y010050D01*
X019450Y009800D01*
X019700Y010050D02*
X019450Y010300D01*
X019450Y010800D01*
X019700Y011050D01*
X021200Y011050D01*
X021450Y010800D01*
X021450Y010300D01*
X021200Y010050D01*
X021200Y011050D02*
X021450Y011300D01*
X021450Y011800D01*
X021200Y012050D01*
X019700Y012050D01*
X019450Y011800D01*
X019450Y011300D01*
X019700Y011050D01*
X019700Y012050D02*
X019450Y012300D01*
X019450Y012800D01*
X019700Y013050D01*
X021200Y013050D01*
X021450Y012800D01*
X021450Y012300D01*
X021200Y012050D01*
X021200Y013050D02*
X021450Y013300D01*
X021450Y013800D01*
X021200Y014050D01*
X019700Y014050D01*
X019450Y013800D01*
X019450Y013300D01*
X019700Y013050D01*
X019700Y009050D02*
X019450Y008800D01*
X019450Y008300D01*
X019700Y008050D01*
X019700Y003050D02*
X019450Y002800D01*
X019450Y002300D01*
X019700Y002050D01*
X000350Y005800D02*
X000352Y005873D01*
X000358Y005946D01*
X000368Y006018D01*
X000382Y006090D01*
X000399Y006161D01*
X000421Y006231D01*
X000446Y006300D01*
X000475Y006367D01*
X000507Y006432D01*
X000543Y006496D01*
X000583Y006558D01*
X000625Y006617D01*
X000671Y006674D01*
X000720Y006728D01*
X000772Y006780D01*
X000826Y006829D01*
X000883Y006875D01*
X000942Y006917D01*
X001004Y006957D01*
X001068Y006993D01*
X001133Y007025D01*
X001200Y007054D01*
X001269Y007079D01*
X001339Y007101D01*
X001410Y007118D01*
X001482Y007132D01*
X001554Y007142D01*
X001627Y007148D01*
X001700Y007150D01*
X001773Y007148D01*
X001846Y007142D01*
X001918Y007132D01*
X001990Y007118D01*
X002061Y007101D01*
X002131Y007079D01*
X002200Y007054D01*
X002267Y007025D01*
X002332Y006993D01*
X002396Y006957D01*
X002458Y006917D01*
X002517Y006875D01*
X002574Y006829D01*
X002628Y006780D01*
X002680Y006728D01*
X002729Y006674D01*
X002775Y006617D01*
X002817Y006558D01*
X002857Y006496D01*
X002893Y006432D01*
X002925Y006367D01*
X002954Y006300D01*
X002979Y006231D01*
X003001Y006161D01*
X003018Y006090D01*
X003032Y006018D01*
X003042Y005946D01*
X003048Y005873D01*
X003050Y005800D01*
X003048Y005727D01*
X003042Y005654D01*
X003032Y005582D01*
X003018Y005510D01*
X003001Y005439D01*
X002979Y005369D01*
X002954Y005300D01*
X002925Y005233D01*
X002893Y005168D01*
X002857Y005104D01*
X002817Y005042D01*
X002775Y004983D01*
X002729Y004926D01*
X002680Y004872D01*
X002628Y004820D01*
X002574Y004771D01*
X002517Y004725D01*
X002458Y004683D01*
X002396Y004643D01*
X002332Y004607D01*
X002267Y004575D01*
X002200Y004546D01*
X002131Y004521D01*
X002061Y004499D01*
X001990Y004482D01*
X001918Y004468D01*
X001846Y004458D01*
X001773Y004452D01*
X001700Y004450D01*
X001627Y004452D01*
X001554Y004458D01*
X001482Y004468D01*
X001410Y004482D01*
X001339Y004499D01*
X001269Y004521D01*
X001200Y004546D01*
X001133Y004575D01*
X001068Y004607D01*
X001004Y004643D01*
X000942Y004683D01*
X000883Y004725D01*
X000826Y004771D01*
X000772Y004820D01*
X000720Y004872D01*
X000671Y004926D01*
X000625Y004983D01*
X000583Y005042D01*
X000543Y005104D01*
X000507Y005168D01*
X000475Y005233D01*
X000446Y005300D01*
X000421Y005369D01*
X000399Y005439D01*
X000382Y005510D01*
X000368Y005582D01*
X000358Y005654D01*
X000352Y005727D01*
X000350Y005800D01*
D12*
X002880Y007495D02*
X002880Y007645D01*
X002955Y007720D01*
X002880Y007880D02*
X003330Y008181D01*
X002880Y008181D01*
X002955Y008341D02*
X002880Y008416D01*
X002880Y008566D01*
X002955Y008641D01*
X003030Y008641D01*
X003105Y008566D01*
X003180Y008641D01*
X003255Y008641D01*
X003330Y008566D01*
X003330Y008416D01*
X003255Y008341D01*
X003105Y008491D02*
X003105Y008566D01*
X003330Y007880D02*
X002880Y007880D01*
X003255Y007720D02*
X003330Y007645D01*
X003330Y007495D01*
X003255Y007420D01*
X002955Y007420D01*
X002880Y007495D01*
X008725Y003950D02*
X008725Y003650D01*
X008800Y003575D01*
X008950Y003575D01*
X009025Y003650D01*
X009185Y003575D02*
X009185Y004025D01*
X009486Y003575D01*
X009486Y004025D01*
X009646Y003875D02*
X009796Y004025D01*
X009796Y003575D01*
X009646Y003575D02*
X009946Y003575D01*
X009025Y003950D02*
X008950Y004025D01*
X008800Y004025D01*
X008725Y003950D01*
X018725Y008150D02*
X018800Y008075D01*
X019100Y008075D01*
X019175Y008150D01*
X019175Y008300D01*
X019100Y008375D01*
X019175Y008535D02*
X018725Y008535D01*
X019175Y008836D01*
X018725Y008836D01*
X018800Y008996D02*
X018725Y009071D01*
X018725Y009221D01*
X018800Y009296D01*
X018875Y009296D01*
X019175Y008996D01*
X019175Y009296D01*
X018800Y008375D02*
X018725Y008300D01*
X018725Y008150D01*
X017291Y011420D02*
X016991Y011420D01*
X017141Y011420D02*
X017141Y011870D01*
X016991Y011720D01*
X016831Y011795D02*
X016831Y011645D01*
X016756Y011570D01*
X016530Y011570D01*
X016530Y011420D02*
X016530Y011870D01*
X016756Y011870D01*
X016831Y011795D01*
X016370Y011870D02*
X016220Y011870D01*
X016295Y011870D02*
X016295Y011495D01*
X016220Y011420D01*
X016145Y011420D01*
X016070Y011495D01*
X003115Y014116D02*
X003115Y014343D01*
X003115Y014229D02*
X002775Y014229D01*
X002888Y014116D01*
D13*
X019950Y013550D03*
X020950Y013550D03*
X020950Y012550D03*
X019950Y012550D03*
X019950Y011550D03*
X020950Y011550D03*
X020950Y010550D03*
X019950Y010550D03*
X019950Y009550D03*
X020950Y009550D03*
X020950Y008550D03*
X019950Y008550D03*
X019950Y007550D03*
X020950Y007550D03*
X020950Y006550D03*
X019950Y006550D03*
X019950Y005550D03*
X020950Y005550D03*
X020950Y004550D03*
X019950Y004550D03*
X019950Y003550D03*
X020950Y003550D03*
X020950Y002550D03*
X019950Y002550D03*
X019950Y001550D03*
X020950Y001550D03*
D14*
X016370Y012550D03*
X016370Y013550D03*
X013530Y013550D03*
X013530Y012550D03*
D15*
X014020Y012655D02*
X014020Y012295D01*
X014020Y012415D02*
X014200Y012415D01*
X014260Y012475D01*
X014260Y012595D01*
X014200Y012655D01*
X014020Y012655D01*
X014140Y012415D02*
X014260Y012295D01*
X014388Y012295D02*
X014629Y012535D01*
X014629Y012595D01*
X014568Y012655D01*
X014448Y012655D01*
X014388Y012595D01*
X014388Y012295D02*
X014629Y012295D01*
X014629Y013295D02*
X014388Y013295D01*
X014508Y013295D02*
X014508Y013655D01*
X014388Y013535D01*
X014260Y013475D02*
X014200Y013415D01*
X014020Y013415D01*
X014020Y013295D02*
X014020Y013655D01*
X014200Y013655D01*
X014260Y013595D01*
X014260Y013475D01*
X014140Y013415D02*
X014260Y013295D01*
X013030Y010774D02*
X013030Y010534D01*
X012790Y010774D01*
X012730Y010774D01*
X012670Y010714D01*
X012670Y010594D01*
X012730Y010534D01*
X012730Y010406D02*
X012670Y010346D01*
X012670Y010226D01*
X012730Y010166D01*
X012970Y010166D01*
X013030Y010226D01*
X013030Y010346D01*
X012970Y010406D01*
X013030Y010040D02*
X013030Y009920D01*
X013030Y009980D02*
X012670Y009980D01*
X012670Y009920D02*
X012670Y010040D01*
X013030Y006974D02*
X013030Y006734D01*
X013030Y006854D02*
X012670Y006854D01*
X012790Y006734D01*
X012730Y006606D02*
X012670Y006546D01*
X012670Y006426D01*
X012730Y006366D01*
X012970Y006366D01*
X013030Y006426D01*
X013030Y006546D01*
X012970Y006606D01*
X013030Y006240D02*
X013030Y006120D01*
X013030Y006180D02*
X012670Y006180D01*
X012670Y006120D02*
X012670Y006240D01*
X005080Y005779D02*
X005080Y005538D01*
X004840Y005779D01*
X004780Y005779D01*
X004720Y005718D01*
X004720Y005598D01*
X004780Y005538D01*
X004780Y005410D02*
X004720Y005350D01*
X004720Y005230D01*
X004780Y005170D01*
X005020Y005170D01*
X005080Y005230D01*
X005080Y005350D01*
X005020Y005410D01*
X004929Y013170D02*
X004688Y013170D01*
X004808Y013170D02*
X004808Y013530D01*
X004688Y013410D01*
X004560Y013470D02*
X004500Y013530D01*
X004380Y013530D01*
X004320Y013470D01*
X004320Y013230D01*
X004380Y013170D01*
X004500Y013170D01*
X004560Y013230D01*
X004577Y013820D02*
X004577Y014180D01*
X004457Y014060D01*
X004329Y014180D02*
X004329Y013820D01*
X004088Y014180D01*
X004088Y013820D01*
X003960Y013820D02*
X003840Y013940D01*
X003900Y013940D02*
X003720Y013940D01*
X003720Y013820D02*
X003720Y014180D01*
X003900Y014180D01*
X003960Y014120D01*
X003960Y014000D01*
X003900Y013940D01*
X004457Y013820D02*
X004697Y013820D01*
D16*
X004250Y012150D02*
X003950Y012150D01*
X003650Y012150D01*
X003650Y011950D02*
X003950Y011950D01*
X004250Y011950D01*
X001200Y012350D02*
X001146Y012348D01*
X001092Y012343D01*
X001039Y012334D01*
X000986Y012321D01*
X000935Y012305D01*
X000885Y012285D01*
X000836Y012262D01*
X000788Y012236D01*
X000743Y012207D01*
X000700Y012174D01*
X000659Y012139D01*
X000620Y012101D01*
X000584Y012061D01*
X000551Y012018D01*
X000521Y011973D01*
X000494Y011926D01*
X000505Y011153D02*
X000535Y011105D01*
X000568Y011060D01*
X000604Y011017D01*
X000642Y010976D01*
X000684Y010939D01*
X000728Y010904D01*
X000774Y010873D01*
X000823Y010844D01*
X000873Y010820D01*
X000925Y010799D01*
X000979Y010781D01*
X001033Y010768D01*
X001088Y010758D01*
X001144Y010752D01*
X001200Y010750D01*
X001253Y010752D01*
X001307Y010757D01*
X001359Y010766D01*
X001411Y010778D01*
X001462Y010794D01*
X001512Y010813D01*
X001561Y010836D01*
X001608Y010862D01*
X001653Y010890D01*
X001696Y010922D01*
X001736Y010956D01*
X001775Y010994D01*
X001811Y011033D01*
X001815Y012062D02*
X001779Y012102D01*
X001740Y012140D01*
X001699Y012175D01*
X001656Y012207D01*
X001611Y012237D01*
X001564Y012263D01*
X001515Y012285D01*
X001464Y012305D01*
X001413Y012321D01*
X001361Y012334D01*
X001307Y012343D01*
X001254Y012348D01*
X001200Y012350D01*
X000494Y013676D02*
X000521Y013723D01*
X000551Y013768D01*
X000584Y013811D01*
X000620Y013851D01*
X000659Y013889D01*
X000700Y013924D01*
X000743Y013957D01*
X000788Y013986D01*
X000836Y014012D01*
X000885Y014035D01*
X000935Y014055D01*
X000986Y014071D01*
X001039Y014084D01*
X001092Y014093D01*
X001146Y014098D01*
X001200Y014100D01*
X000505Y012903D02*
X000535Y012855D01*
X000568Y012810D01*
X000604Y012767D01*
X000642Y012726D01*
X000684Y012689D01*
X000728Y012654D01*
X000774Y012623D01*
X000823Y012594D01*
X000873Y012570D01*
X000925Y012549D01*
X000979Y012531D01*
X001033Y012518D01*
X001088Y012508D01*
X001144Y012502D01*
X001200Y012500D01*
X001253Y012502D01*
X001307Y012507D01*
X001359Y012516D01*
X001411Y012528D01*
X001462Y012544D01*
X001512Y012563D01*
X001561Y012586D01*
X001608Y012612D01*
X001653Y012640D01*
X001696Y012672D01*
X001736Y012706D01*
X001775Y012744D01*
X001811Y012783D01*
X001815Y013812D02*
X001779Y013852D01*
X001740Y013890D01*
X001699Y013925D01*
X001656Y013957D01*
X001611Y013987D01*
X001564Y014013D01*
X001515Y014035D01*
X001464Y014055D01*
X001413Y014071D01*
X001361Y014084D01*
X001307Y014093D01*
X001254Y014098D01*
X001200Y014100D01*
X000505Y009403D02*
X000535Y009355D01*
X000568Y009310D01*
X000604Y009267D01*
X000642Y009226D01*
X000684Y009189D01*
X000728Y009154D01*
X000774Y009123D01*
X000823Y009094D01*
X000873Y009070D01*
X000925Y009049D01*
X000979Y009031D01*
X001033Y009018D01*
X001088Y009008D01*
X001144Y009002D01*
X001200Y009000D01*
X000494Y010176D02*
X000521Y010223D01*
X000551Y010268D01*
X000584Y010311D01*
X000620Y010351D01*
X000659Y010389D01*
X000700Y010424D01*
X000743Y010457D01*
X000788Y010486D01*
X000836Y010512D01*
X000885Y010535D01*
X000935Y010555D01*
X000986Y010571D01*
X001039Y010584D01*
X001092Y010593D01*
X001146Y010598D01*
X001200Y010600D01*
X001811Y009283D02*
X001775Y009244D01*
X001736Y009206D01*
X001696Y009172D01*
X001653Y009140D01*
X001608Y009112D01*
X001561Y009086D01*
X001512Y009063D01*
X001462Y009044D01*
X001411Y009028D01*
X001359Y009016D01*
X001307Y009007D01*
X001253Y009002D01*
X001200Y009000D01*
X001815Y010312D02*
X001779Y010352D01*
X001740Y010390D01*
X001699Y010425D01*
X001656Y010457D01*
X001611Y010487D01*
X001564Y010513D01*
X001515Y010535D01*
X001464Y010555D01*
X001413Y010571D01*
X001361Y010584D01*
X001307Y010593D01*
X001254Y010598D01*
X001200Y010600D01*
X000505Y007653D02*
X000535Y007605D01*
X000568Y007560D01*
X000604Y007517D01*
X000642Y007476D01*
X000684Y007439D01*
X000728Y007404D01*
X000774Y007373D01*
X000823Y007344D01*
X000873Y007320D01*
X000925Y007299D01*
X000979Y007281D01*
X001033Y007268D01*
X001088Y007258D01*
X001144Y007252D01*
X001200Y007250D01*
X000494Y008426D02*
X000521Y008473D01*
X000551Y008518D01*
X000584Y008561D01*
X000620Y008601D01*
X000659Y008639D01*
X000700Y008674D01*
X000743Y008707D01*
X000788Y008736D01*
X000836Y008762D01*
X000885Y008785D01*
X000935Y008805D01*
X000986Y008821D01*
X001039Y008834D01*
X001092Y008843D01*
X001146Y008848D01*
X001200Y008850D01*
X001811Y007533D02*
X001775Y007494D01*
X001736Y007456D01*
X001696Y007422D01*
X001653Y007390D01*
X001608Y007362D01*
X001561Y007336D01*
X001512Y007313D01*
X001462Y007294D01*
X001411Y007278D01*
X001359Y007266D01*
X001307Y007257D01*
X001253Y007252D01*
X001200Y007250D01*
X001815Y008562D02*
X001779Y008602D01*
X001740Y008640D01*
X001699Y008675D01*
X001656Y008707D01*
X001611Y008737D01*
X001564Y008763D01*
X001515Y008785D01*
X001464Y008805D01*
X001413Y008821D01*
X001361Y008834D01*
X001307Y008843D01*
X001254Y008848D01*
X001200Y008850D01*
X004650Y007150D02*
X004950Y007150D01*
X005250Y007150D01*
X005250Y006950D02*
X004950Y006950D01*
X004650Y006950D01*
D17*
X018700Y009630D03*
X018700Y012470D03*
M02*
